<?xml version="1.0" encoding="UTF-8"?>
<!DOCTYPE svg PUBLIC "-//W3C//DTD SVG 1.1//EN" 
"http://www.w3.org/Graphics/SVG/1.1/DTD/svg11.dtd">

<svg width="100%" height="100%" version="1.1"
xmlns="http://www.w3.org/2000/svg">
<line x1="10.0" y1="249.70990239278558" x2="10.0" y2="239.70990239278555" stroke="rgb(35%, 35%, 35%)" stroke-width="1.0" />
<line x1="10.0" y1="229.70990239278555" x2="10.0" y2="219.70990239278558" stroke="rgb(35%, 35%, 35%)" stroke-width="1.0" />
<line x1="10.0" y1="209.70990239278558" x2="10.0" y2="199.70990239278558" stroke="rgb(35%, 35%, 35%)" stroke-width="1.0" />
<line x1="10.26862854942486" y1="189.7171237373239" x2="10.671572589132282" y2="182.22793316132578" stroke="rgb(35%, 35%, 35%)" stroke-width="1.0" />
<line x1="15.314423729318076" y1="174.81313536339707" x2="21.875777409239063" y2="171.18009568982603" stroke="rgb(35%, 35%, 35%)" stroke-width="1.0" />
<line x1="30.624222590760937" y1="171.18009568982603" x2="37.18557627068192" y2="174.81313536339707" stroke="rgb(35%, 35%, 35%)" stroke-width="1.0" />
<line x1="41.82842741086772" y1="182.22793316132578" x2="42.23137145057514" y2="189.7171237373239" stroke="rgb(35%, 35%, 35%)" stroke-width="1.0" />
<line x1="42.5" y1="199.70990239278558" x2="42.5" y2="209.70990239278558" stroke="rgb(35%, 35%, 35%)" stroke-width="1.0" />
<line x1="42.5" y1="219.70990239278558" x2="42.5" y2="229.70990239278558" stroke="rgb(35%, 35%, 35%)" stroke-width="1.0" />
<line x1="42.5" y1="239.70990239278558" x2="42.5" y2="249.70990239278558" stroke="rgb(35%, 35%, 35%)" stroke-width="1.0" />
<line x1="47.5" y1="254.70990239278558" x2="55.0" y2="254.70990239278558" stroke="rgb(35%, 35%, 35%)" stroke-width="1.0" />
<line x1="65.0" y1="254.70990239278558" x2="72.5" y2="254.70990239278558" stroke="rgb(35%, 35%, 35%)" stroke-width="1.0" />
<line x1="77.5" y1="249.70990239278558" x2="77.5" y2="239.70990239278558" stroke="rgb(35%, 35%, 35%)" stroke-width="1.0" />
<line x1="77.5" y1="229.70990239278558" x2="77.5" y2="219.70990239278558" stroke="rgb(35%, 35%, 35%)" stroke-width="1.0" />
<line x1="77.5" y1="209.70990239278558" x2="77.5" y2="199.70990239278558" stroke="rgb(35%, 35%, 35%)" stroke-width="1.0" />
<line x1="77.5" y1="189.70990239278558" x2="77.5" y2="179.70990239278558" stroke="rgb(35%, 35%, 35%)" stroke-width="1.0" />
<line x1="74.53437679219797" y1="170.684349140207" x2="70.08593989040025" y2="164.64601642423307" stroke="rgb(35%, 35%, 35%)" stroke-width="1.0" />
<line x1="67.12031668259823" y1="155.62046317165448" x2="67.12031668259823" y2="148.12045964778355" stroke="rgb(35%, 35%, 35%)" stroke-width="1.0" />
<line x1="70.08593989040025" y1="139.09490639520496" x2="74.53437679219797" y2="133.05657367923104" stroke="rgb(35%, 35%, 35%)" stroke-width="1.0" />
<line x1="77.5" y1="124.03102042665245" x2="77.5" y2="114.03102042665242" stroke="rgb(35%, 35%, 35%)" stroke-width="1.0" />
<line x1="77.5" y1="104.03102042665242" x2="77.5" y2="94.03102042665242" stroke="rgb(35%, 35%, 35%)" stroke-width="1.0" />
<line x1="77.5" y1="84.03102042665242" x2="77.5" y2="74.03102042665242" stroke="rgb(35%, 35%, 35%)" stroke-width="1.0" />
<line x1="77.5" y1="64.03102042665242" x2="77.5" y2="54.03102042665242" stroke="rgb(35%, 35%, 35%)" stroke-width="1.0" />
<line x1="75.60052547530273" y1="44.40587215551278" x2="72.75130491987936" y2="37.46812839813748" stroke="rgb(35%, 35%, 35%)" stroke-width="1.0" />
<line x1="72.77360479081668" y1="28.22705300752517" x2="75.65627525558693" y2="21.30314102021714" stroke="rgb(35%, 35%, 35%)" stroke-width="1.0" />
<line x1="82.19860079960264" y1="14.776583877638473" x2="89.12944885161887" y2="11.91063002310591" stroke="rgb(35%, 35%, 35%)" stroke-width="1.0" />
<line x1="98.37055114838113" y1="11.91063002310591" x2="105.30139920039736" y2="14.776583877638473" stroke="rgb(35%, 35%, 35%)" stroke-width="1.0" />
<line x1="111.84372474441305" y1="21.30314102021714" x2="114.72639520918332" y2="28.22705300752517" stroke="rgb(35%, 35%, 35%)" stroke-width="1.0" />
<line x1="114.74869508012063" y1="37.46812839813748" x2="111.89947452469727" y2="44.40587215551278" stroke="rgb(35%, 35%, 35%)" stroke-width="1.0" />
<line x1="110.0" y1="54.03102042665242" x2="110.0" y2="64.03102042665242" stroke="rgb(35%, 35%, 35%)" stroke-width="1.0" />
<line x1="110.0" y1="74.03102042665242" x2="110.0" y2="84.03102042665242" stroke="rgb(35%, 35%, 35%)" stroke-width="1.0" />
<line x1="110.0" y1="94.03102042665242" x2="110.0" y2="104.03102042665242" stroke="rgb(35%, 35%, 35%)" stroke-width="1.0" />
<line x1="110.0" y1="114.03102042665242" x2="110.0" y2="124.03102042665245" stroke="rgb(35%, 35%, 35%)" stroke-width="1.0" />
<line x1="112.96562320780203" y1="133.05657367923104" x2="117.41406010959975" y2="139.09490639520496" stroke="rgb(35%, 35%, 35%)" stroke-width="1.0" />
<line x1="120.37968331740177" y1="148.12045964778355" x2="120.37968331740177" y2="155.62046317165448" stroke="rgb(35%, 35%, 35%)" stroke-width="1.0" />
<line x1="117.41406010959975" y1="164.64601642423307" x2="112.96562320780203" y2="170.684349140207" stroke="rgb(35%, 35%, 35%)" stroke-width="1.0" />
<line x1="110.0" y1="179.70990239278558" x2="110.0" y2="189.70990239278558" stroke="rgb(35%, 35%, 35%)" stroke-width="1.0" />
<line x1="110.0" y1="199.70990239278558" x2="110.0" y2="209.70990239278558" stroke="rgb(35%, 35%, 35%)" stroke-width="1.0" />
<line x1="110.0" y1="219.70990239278558" x2="110.0" y2="229.70990239278558" stroke="rgb(35%, 35%, 35%)" stroke-width="1.0" />
<line x1="110.0" y1="239.70990239278558" x2="110.0" y2="249.70990239278558" stroke="rgb(35%, 35%, 35%)" stroke-width="1.0" />
<line x1="115.0" y1="254.70990239278558" x2="122.5" y2="254.70990239278558" stroke="rgb(35%, 35%, 35%)" stroke-width="1.0" />
<line x1="132.5" y1="254.70990239278558" x2="140.0" y2="254.70990239278558" stroke="rgb(35%, 35%, 35%)" stroke-width="1.0" />
<line x1="145.0" y1="249.70990239278558" x2="145.0" y2="239.70990239278558" stroke="rgb(35%, 35%, 35%)" stroke-width="1.0" />
<line x1="145.0" y1="229.70990239278558" x2="145.0" y2="219.70990239278558" stroke="rgb(35%, 35%, 35%)" stroke-width="1.0" />
<line x1="145.0" y1="209.70990239278558" x2="145.0" y2="199.70990239278558" stroke="rgb(35%, 35%, 35%)" stroke-width="1.0" />
<line x1="145.0" y1="189.70990239278558" x2="145.0" y2="179.70990239278558" stroke="rgb(35%, 35%, 35%)" stroke-width="1.0" />
<line x1="145.0" y1="169.70990239278558" x2="145.0" y2="159.70990239278558" stroke="rgb(35%, 35%, 35%)" stroke-width="1.0" />
<line x1="145.0" y1="149.70990239278558" x2="145.0" y2="139.70990239278558" stroke="rgb(35%, 35%, 35%)" stroke-width="1.0" />
<line x1="145.26862854942488" y1="129.71712373732387" x2="145.67157258913227" y2="122.22793316132578" stroke="rgb(35%, 35%, 35%)" stroke-width="1.0" />
<line x1="150.3144237293181" y1="114.81313536339707" x2="156.87577740923905" y2="111.18009568982603" stroke="rgb(35%, 35%, 35%)" stroke-width="1.0" />
<line x1="165.62422259076095" y1="111.18009568982603" x2="172.1855762706819" y2="114.81313536339707" stroke="rgb(35%, 35%, 35%)" stroke-width="1.0" />
<line x1="176.82842741086773" y1="122.22793316132578" x2="177.23137145057512" y2="129.71712373732387" stroke="rgb(35%, 35%, 35%)" stroke-width="1.0" />
<line x1="177.5" y1="139.70990239278558" x2="177.5" y2="149.70990239278558" stroke="rgb(35%, 35%, 35%)" stroke-width="1.0" />
<line x1="177.5" y1="159.70990239278558" x2="177.5" y2="169.70990239278558" stroke="rgb(35%, 35%, 35%)" stroke-width="1.0" />
<line x1="177.5" y1="179.70990239278558" x2="177.5" y2="189.70990239278558" stroke="rgb(35%, 35%, 35%)" stroke-width="1.0" />
<line x1="177.5" y1="199.70990239278558" x2="177.5" y2="209.70990239278558" stroke="rgb(35%, 35%, 35%)" stroke-width="1.0" />
<line x1="177.5" y1="219.70990239278558" x2="177.5" y2="229.70990239278558" stroke="rgb(35%, 35%, 35%)" stroke-width="1.0" />
<line x1="177.5" y1="239.70990239278558" x2="177.5" y2="249.70990239278558" stroke="rgb(35%, 35%, 35%)" stroke-width="1.0" />
<line x1="182.5" y1="254.70990239278558" x2="190.0" y2="254.70990239278558" stroke="rgb(35%, 35%, 35%)" stroke-width="1.0" />
<line x1="200.0" y1="254.70990239278558" x2="207.5" y2="254.70990239278558" stroke="rgb(35%, 35%, 35%)" stroke-width="1.0" />
<line x1="217.5" y1="254.70990239278558" x2="225.0" y2="254.70990239278558" stroke="rgb(35%, 35%, 35%)" stroke-width="1.0" />
<line x1="235.0" y1="254.70990239278558" x2="242.5" y2="254.70990239278558" stroke="rgb(35%, 35%, 35%)" stroke-width="1.0" />
<line x1="247.5" y1="249.70990239278558" x2="247.5" y2="239.70990239278558" stroke="rgb(35%, 35%, 35%)" stroke-width="1.0" />
<line x1="247.5" y1="229.70990239278558" x2="247.5" y2="219.70990239278558" stroke="rgb(35%, 35%, 35%)" stroke-width="1.0" />
<line x1="247.5" y1="209.70990239278558" x2="247.5" y2="199.70990239278558" stroke="rgb(35%, 35%, 35%)" stroke-width="1.0" />
<line x1="247.5" y1="189.70990239278558" x2="247.5" y2="179.70990239278558" stroke="rgb(35%, 35%, 35%)" stroke-width="1.0" />
<line x1="247.5" y1="169.70990239278558" x2="247.5" y2="159.70990239278558" stroke="rgb(35%, 35%, 35%)" stroke-width="1.0" />
<line x1="247.5" y1="149.70990239278558" x2="247.5" y2="139.70990239278558" stroke="rgb(35%, 35%, 35%)" stroke-width="1.0" />
<line x1="247.76862854942488" y1="129.71712373732387" x2="248.17157258913227" y2="122.22793316132578" stroke="rgb(35%, 35%, 35%)" stroke-width="1.0" />
<line x1="252.8144237293181" y1="114.81313536339707" x2="259.37577740923905" y2="111.18009568982603" stroke="rgb(35%, 35%, 35%)" stroke-width="1.0" />
<line x1="268.12422259076095" y1="111.18009568982603" x2="274.6855762706819" y2="114.81313536339707" stroke="rgb(35%, 35%, 35%)" stroke-width="1.0" />
<line x1="279.32842741086773" y1="122.22793316132578" x2="279.7313714505751" y2="129.71712373732387" stroke="rgb(35%, 35%, 35%)" stroke-width="1.0" />
<line x1="280.0" y1="139.70990239278558" x2="280.0" y2="149.70990239278558" stroke="rgb(35%, 35%, 35%)" stroke-width="1.0" />
<line x1="280.0" y1="159.70990239278558" x2="280.0" y2="169.70990239278558" stroke="rgb(35%, 35%, 35%)" stroke-width="1.0" />
<line x1="280.0" y1="179.70990239278558" x2="280.0" y2="189.70990239278558" stroke="rgb(35%, 35%, 35%)" stroke-width="1.0" />
<line x1="280.0" y1="199.70990239278558" x2="280.0" y2="209.70990239278558" stroke="rgb(35%, 35%, 35%)" stroke-width="1.0" />
<line x1="280.0" y1="219.70990239278558" x2="280.0" y2="229.70990239278558" stroke="rgb(35%, 35%, 35%)" stroke-width="1.0" />
<line x1="280.0" y1="239.70990239278558" x2="280.0" y2="249.70990239278558" stroke="rgb(35%, 35%, 35%)" stroke-width="1.0" />
<line x1="285.0" y1="254.70990239278558" x2="292.5" y2="254.70990239278558" stroke="rgb(35%, 35%, 35%)" stroke-width="1.0" />
<line x1="302.5" y1="254.70990239278558" x2="310.0" y2="254.70990239278558" stroke="rgb(35%, 35%, 35%)" stroke-width="1.0" />
<line x1="15.0" y1="253.45990239278558" x2="37.5" y2="253.45990239278558" stroke="rgb(0%, 0%, 100%)" stroke-width="1.0" />
<line x1="15.0" y1="255.95990239278558" x2="37.5" y2="255.95990239278558" stroke="rgb(0%, 0%, 100%)" stroke-width="1.0" />
<line x1="15.0" y1="233.45990239278555" x2="37.5" y2="233.45990239278558" stroke="rgb(0%, 0%, 100%)" stroke-width="1.0" />
<line x1="15.0" y1="235.95990239278555" x2="37.5" y2="235.95990239278558" stroke="rgb(0%, 0%, 100%)" stroke-width="1.0" />
<line x1="15.0" y1="213.45990239278558" x2="37.5" y2="213.45990239278558" stroke="rgb(0%, 0%, 100%)" stroke-width="1.0" />
<line x1="15.0" y1="215.95990239278558" x2="37.5" y2="215.95990239278558" stroke="rgb(0%, 0%, 100%)" stroke-width="1.0" />
<line x1="15.0" y1="193.45990239278558" x2="37.5" y2="193.45990239278558" stroke="rgb(0%, 0%, 100%)" stroke-width="1.0" />
<line x1="15.0" y1="195.95990239278558" x2="37.5" y2="195.95990239278558" stroke="rgb(0%, 0%, 100%)" stroke-width="1.0" />
<line x1="82.5" y1="254.70990239278558" x2="105.0" y2="254.70990239278558" stroke="rgb(0%, 0%, 100%)" stroke-width="1.0" />
<circle cx="93.75" cy="254.70990239278558" r="2.75" stroke="none" stroke-width="1.0" fill="rgb(0%, 0%, 100%)"/>
<line x1="82.5" y1="233.45990239278558" x2="105.0" y2="233.45990239278558" stroke="rgb(0%, 0%, 100%)" stroke-width="1.0" />
<line x1="82.5" y1="235.95990239278558" x2="105.0" y2="235.95990239278558" stroke="rgb(0%, 0%, 100%)" stroke-width="1.0" />
<line x1="82.5" y1="214.70990239278558" x2="105.0" y2="214.70990239278558" stroke="rgb(0%, 0%, 100%)" stroke-width="1.0" />
<circle cx="93.75" cy="214.70990239278558" r="2.75" stroke="none" stroke-width="1.0" fill="rgb(0%, 0%, 100%)"/>
<line x1="82.5" y1="193.45990239278558" x2="105.0" y2="193.45990239278558" stroke="rgb(0%, 0%, 100%)" stroke-width="1.0" />
<line x1="82.5" y1="195.95990239278558" x2="105.0" y2="195.95990239278558" stroke="rgb(0%, 0%, 100%)" stroke-width="1.0" />
<line x1="82.5" y1="174.70990239278558" x2="105.0" y2="174.70990239278558" stroke="rgb(0%, 0%, 100%)" stroke-width="1.0" />
<circle cx="93.75" cy="174.70990239278558" r="2.75" stroke="none" stroke-width="1.0" fill="rgb(0%, 0%, 100%)"/>
<line x1="82.5" y1="129.03102042665245" x2="105.0" y2="129.03102042665245" stroke="rgb(0%, 0%, 100%)" stroke-width="1.0" />
<circle cx="93.75" cy="129.03102042665245" r="2.75" stroke="none" stroke-width="1.0" fill="rgb(0%, 0%, 100%)"/>
<line x1="82.5" y1="109.03102042665242" x2="105.0" y2="109.03102042665242" stroke="rgb(0%, 0%, 100%)" stroke-width="1.0" />
<circle cx="93.75" cy="109.03102042665242" r="2.75" stroke="none" stroke-width="1.0" fill="rgb(0%, 0%, 100%)"/>
<line x1="82.5" y1="87.78102042665242" x2="105.0" y2="87.78102042665242" stroke="rgb(0%, 0%, 100%)" stroke-width="1.0" />
<line x1="82.5" y1="90.28102042665242" x2="105.0" y2="90.28102042665242" stroke="rgb(0%, 0%, 100%)" stroke-width="1.0" />
<line x1="82.5" y1="69.03102042665242" x2="105.0" y2="69.03102042665242" stroke="rgb(0%, 0%, 100%)" stroke-width="1.0" />
<circle cx="93.75" cy="69.03102042665242" r="2.75" stroke="none" stroke-width="1.0" fill="rgb(0%, 0%, 100%)"/>
<line x1="82.5" y1="49.03102042665242" x2="105.0" y2="49.03102042665242" stroke="rgb(0%, 0%, 100%)" stroke-width="1.0" />
<circle cx="93.75" cy="49.03102042665242" r="2.75" stroke="none" stroke-width="1.0" fill="rgb(0%, 0%, 100%)"/>
<line x1="150.0" y1="253.45990239278558" x2="172.5" y2="253.45990239278558" stroke="rgb(0%, 0%, 100%)" stroke-width="1.0" />
<line x1="150.0" y1="255.95990239278558" x2="172.5" y2="255.95990239278558" stroke="rgb(0%, 0%, 100%)" stroke-width="1.0" />
<line x1="150.0" y1="234.70990239278558" x2="172.5" y2="234.70990239278558" stroke="rgb(0%, 0%, 100%)" stroke-width="1.0" />
<circle cx="161.25" cy="234.70990239278558" r="2.75" stroke="none" stroke-width="1.0" fill="rgb(0%, 0%, 100%)"/>
<line x1="150.0" y1="214.70990239278558" x2="172.5" y2="214.70990239278558" stroke="rgb(0%, 0%, 100%)" stroke-width="1.0" />
<circle cx="161.25" cy="214.70990239278558" r="2.75" stroke="none" stroke-width="1.0" fill="rgb(0%, 0%, 100%)"/>
<line x1="150.0" y1="193.45990239278558" x2="172.5" y2="193.45990239278558" stroke="rgb(0%, 0%, 100%)" stroke-width="1.0" />
<line x1="150.0" y1="195.95990239278558" x2="172.5" y2="195.95990239278558" stroke="rgb(0%, 0%, 100%)" stroke-width="1.0" />
<line x1="150.0" y1="173.45990239278558" x2="172.5" y2="173.45990239278558" stroke="rgb(0%, 0%, 100%)" stroke-width="1.0" />
<line x1="150.0" y1="175.95990239278558" x2="172.5" y2="175.95990239278558" stroke="rgb(0%, 0%, 100%)" stroke-width="1.0" />
<line x1="150.0" y1="153.45990239278558" x2="172.5" y2="153.45990239278558" stroke="rgb(0%, 0%, 100%)" stroke-width="1.0" />
<line x1="150.0" y1="155.95990239278558" x2="172.5" y2="155.95990239278558" stroke="rgb(0%, 0%, 100%)" stroke-width="1.0" />
<line x1="150.0" y1="133.45990239278558" x2="172.5" y2="133.45990239278558" stroke="rgb(0%, 0%, 100%)" stroke-width="1.0" />
<line x1="150.0" y1="135.95990239278558" x2="172.5" y2="135.95990239278558" stroke="rgb(0%, 0%, 100%)" stroke-width="1.0" />
<line x1="252.5" y1="254.70990239278558" x2="275.0" y2="254.70990239278558" stroke="rgb(0%, 0%, 100%)" stroke-width="1.0" />
<circle cx="263.75" cy="254.70990239278558" r="2.75" stroke="none" stroke-width="1.0" fill="rgb(0%, 0%, 100%)"/>
<line x1="252.5" y1="234.70990239278558" x2="275.0" y2="234.70990239278558" stroke="rgb(0%, 0%, 100%)" stroke-width="1.0" />
<circle cx="263.75" cy="234.70990239278558" r="2.75" stroke="none" stroke-width="1.0" fill="rgb(0%, 0%, 100%)"/>
<line x1="252.5" y1="213.45990239278558" x2="275.0" y2="213.45990239278558" stroke="rgb(0%, 0%, 100%)" stroke-width="1.0" />
<line x1="252.5" y1="215.95990239278558" x2="275.0" y2="215.95990239278558" stroke="rgb(0%, 0%, 100%)" stroke-width="1.0" />
<line x1="252.5" y1="193.45990239278558" x2="275.0" y2="193.45990239278558" stroke="rgb(0%, 0%, 100%)" stroke-width="1.0" />
<line x1="252.5" y1="195.95990239278558" x2="275.0" y2="195.95990239278558" stroke="rgb(0%, 0%, 100%)" stroke-width="1.0" />
<line x1="252.5" y1="173.45990239278558" x2="275.0" y2="173.45990239278558" stroke="rgb(0%, 0%, 100%)" stroke-width="1.0" />
<line x1="252.5" y1="175.95990239278558" x2="275.0" y2="175.95990239278558" stroke="rgb(0%, 0%, 100%)" stroke-width="1.0" />
<line x1="252.5" y1="154.70990239278558" x2="275.0" y2="154.70990239278558" stroke="rgb(0%, 0%, 100%)" stroke-width="1.0" />
<circle cx="263.75" cy="154.70990239278558" r="2.75" stroke="none" stroke-width="1.0" fill="rgb(0%, 0%, 100%)"/>
<line x1="252.5" y1="133.45990239278558" x2="275.0" y2="133.45990239278558" stroke="rgb(0%, 0%, 100%)" stroke-width="1.0" />
<line x1="252.5" y1="135.95990239278558" x2="275.0" y2="135.95990239278558" stroke="rgb(0%, 0%, 100%)" stroke-width="1.0" />
<circle cx="10.0" cy="254.70990239278558" r="5.0" stroke="none" stroke-width="1.0" fill="rgb(94%, 94%, 94%)"/>
<circle cx="10.0" cy="254.70990239278558" r="5.0" stroke="rgb(35%, 35%, 35%)" stroke-width="1.0" fill="none"/>
<text x="10.0" y="257.7099023927856" text-anchor="middle" font-family="Verdana" font-size="7.5" fill="rgb(0%, 0%, 0%)" >G</text>
<circle cx="10.0" cy="234.70990239278555" r="5.0" stroke="none" stroke-width="1.0" fill="rgb(94%, 94%, 94%)"/>
<circle cx="10.0" cy="234.70990239278555" r="5.0" stroke="rgb(35%, 35%, 35%)" stroke-width="1.0" fill="none"/>
<text x="10.0" y="237.70990239278555" text-anchor="middle" font-family="Verdana" font-size="7.5" fill="rgb(0%, 0%, 0%)" >G</text>
<circle cx="10.0" cy="214.70990239278558" r="5.0" stroke="none" stroke-width="1.0" fill="rgb(94%, 94%, 94%)"/>
<circle cx="10.0" cy="214.70990239278558" r="5.0" stroke="rgb(35%, 35%, 35%)" stroke-width="1.0" fill="none"/>
<text x="10.0" y="217.70990239278558" text-anchor="middle" font-family="Verdana" font-size="7.5" fill="rgb(0%, 0%, 0%)" >C</text>
<circle cx="10.0" cy="194.70990239278558" r="5.0" stroke="none" stroke-width="1.0" fill="rgb(94%, 94%, 94%)"/>
<circle cx="10.0" cy="194.70990239278558" r="5.0" stroke="rgb(35%, 35%, 35%)" stroke-width="1.0" fill="none"/>
<text x="10.0" y="197.70990239278558" text-anchor="middle" font-family="Verdana" font-size="7.5" fill="rgb(0%, 0%, 0%)" >C</text>
<circle cx="10.940201138557143" cy="177.2351545058641" r="5.0" stroke="none" stroke-width="1.0" fill="rgb(94%, 94%, 94%)"/>
<circle cx="10.940201138557143" cy="177.2351545058641" r="5.0" stroke="rgb(35%, 35%, 35%)" stroke-width="1.0" fill="none"/>
<text x="10.940201138557143" y="180.2351545058641" text-anchor="middle" font-family="Verdana" font-size="7.5" fill="rgb(0%, 0%, 0%)" >G</text>
<circle cx="26.25" cy="168.75807654735902" r="5.0" stroke="none" stroke-width="1.0" fill="rgb(94%, 94%, 94%)"/>
<circle cx="26.25" cy="168.75807654735902" r="5.0" stroke="rgb(35%, 35%, 35%)" stroke-width="1.0" fill="none"/>
<text x="26.25" y="171.75807654735902" text-anchor="middle" font-family="Verdana" font-size="7.5" fill="rgb(0%, 0%, 0%)" >A</text>
<circle cx="41.55979886144286" cy="177.2351545058641" r="5.0" stroke="none" stroke-width="1.0" fill="rgb(94%, 94%, 94%)"/>
<circle cx="41.55979886144286" cy="177.2351545058641" r="5.0" stroke="rgb(35%, 35%, 35%)" stroke-width="1.0" fill="none"/>
<text x="41.55979886144286" y="180.2351545058641" text-anchor="middle" font-family="Verdana" font-size="7.5" fill="rgb(0%, 0%, 0%)" >A</text>
<circle cx="42.5" cy="194.70990239278558" r="5.0" stroke="none" stroke-width="1.0" fill="rgb(94%, 94%, 94%)"/>
<circle cx="42.5" cy="194.70990239278558" r="5.0" stroke="rgb(35%, 35%, 35%)" stroke-width="1.0" fill="none"/>
<text x="42.5" y="197.70990239278558" text-anchor="middle" font-family="Verdana" font-size="7.5" fill="rgb(0%, 0%, 0%)" >G</text>
<circle cx="42.5" cy="214.70990239278558" r="5.0" stroke="none" stroke-width="1.0" fill="rgb(94%, 94%, 94%)"/>
<circle cx="42.5" cy="214.70990239278558" r="5.0" stroke="rgb(35%, 35%, 35%)" stroke-width="1.0" fill="none"/>
<text x="42.5" y="217.70990239278558" text-anchor="middle" font-family="Verdana" font-size="7.5" fill="rgb(0%, 0%, 0%)" >G</text>
<circle cx="42.5" cy="234.70990239278558" r="5.0" stroke="none" stroke-width="1.0" fill="rgb(94%, 94%, 94%)"/>
<circle cx="42.5" cy="234.70990239278558" r="5.0" stroke="rgb(35%, 35%, 35%)" stroke-width="1.0" fill="none"/>
<text x="42.5" y="237.70990239278558" text-anchor="middle" font-family="Verdana" font-size="7.5" fill="rgb(0%, 0%, 0%)" >C</text>
<circle cx="42.5" cy="254.70990239278558" r="5.0" stroke="none" stroke-width="1.0" fill="rgb(94%, 94%, 94%)"/>
<circle cx="42.5" cy="254.70990239278558" r="5.0" stroke="rgb(35%, 35%, 35%)" stroke-width="1.0" fill="none"/>
<text x="42.5" y="257.7099023927856" text-anchor="middle" font-family="Verdana" font-size="7.5" fill="rgb(0%, 0%, 0%)" >C</text>
<circle cx="60.0" cy="254.70990239278558" r="5.0" stroke="none" stroke-width="1.0" fill="rgb(94%, 94%, 94%)"/>
<circle cx="60.0" cy="254.70990239278558" r="5.0" stroke="rgb(35%, 35%, 35%)" stroke-width="1.0" fill="none"/>
<text x="60.0" y="257.7099023927856" text-anchor="middle" font-family="Verdana" font-size="7.5" fill="rgb(0%, 0%, 0%)" >A</text>
<circle cx="77.5" cy="254.70990239278558" r="5.0" stroke="none" stroke-width="1.0" fill="rgb(94%, 94%, 94%)"/>
<circle cx="77.5" cy="254.70990239278558" r="5.0" stroke="rgb(35%, 35%, 35%)" stroke-width="1.0" fill="none"/>
<text x="77.5" y="257.7099023927856" text-anchor="middle" font-family="Verdana" font-size="7.5" fill="rgb(0%, 0%, 0%)" >A</text>
<circle cx="77.5" cy="234.70990239278558" r="5.0" stroke="none" stroke-width="1.0" fill="rgb(94%, 94%, 94%)"/>
<circle cx="77.5" cy="234.70990239278558" r="5.0" stroke="rgb(35%, 35%, 35%)" stroke-width="1.0" fill="none"/>
<text x="77.5" y="237.70990239278558" text-anchor="middle" font-family="Verdana" font-size="7.5" fill="rgb(0%, 0%, 0%)" >C</text>
<circle cx="77.5" cy="214.70990239278558" r="5.0" stroke="none" stroke-width="1.0" fill="rgb(94%, 94%, 94%)"/>
<circle cx="77.5" cy="214.70990239278558" r="5.0" stroke="rgb(35%, 35%, 35%)" stroke-width="1.0" fill="none"/>
<text x="77.5" y="217.70990239278558" text-anchor="middle" font-family="Verdana" font-size="7.5" fill="rgb(0%, 0%, 0%)" >T</text>
<circle cx="77.5" cy="194.70990239278558" r="5.0" stroke="none" stroke-width="1.0" fill="rgb(94%, 94%, 94%)"/>
<circle cx="77.5" cy="194.70990239278558" r="5.0" stroke="rgb(35%, 35%, 35%)" stroke-width="1.0" fill="none"/>
<text x="77.5" y="197.70990239278558" text-anchor="middle" font-family="Verdana" font-size="7.5" fill="rgb(0%, 0%, 0%)" >C</text>
<circle cx="77.5" cy="174.70990239278558" r="5.0" stroke="none" stroke-width="1.0" fill="rgb(94%, 94%, 94%)"/>
<circle cx="77.5" cy="174.70990239278558" r="5.0" stroke="rgb(35%, 35%, 35%)" stroke-width="1.0" fill="none"/>
<text x="77.5" y="177.70990239278558" text-anchor="middle" font-family="Verdana" font-size="7.5" fill="rgb(0%, 0%, 0%)" >T</text>
<circle cx="67.12031668259823" cy="160.62046317165448" r="5.0" stroke="none" stroke-width="1.0" fill="rgb(94%, 94%, 94%)"/>
<circle cx="67.12031668259823" cy="160.62046317165448" r="5.0" stroke="rgb(35%, 35%, 35%)" stroke-width="1.0" fill="none"/>
<text x="67.12031668259823" y="163.62046317165448" text-anchor="middle" font-family="Verdana" font-size="7.5" fill="rgb(0%, 0%, 0%)" >C</text>
<circle cx="67.12031668259823" cy="143.12045964778355" r="5.0" stroke="none" stroke-width="1.0" fill="rgb(94%, 94%, 94%)"/>
<circle cx="67.12031668259823" cy="143.12045964778355" r="5.0" stroke="rgb(35%, 35%, 35%)" stroke-width="1.0" fill="none"/>
<text x="67.12031668259823" y="146.12045964778355" text-anchor="middle" font-family="Verdana" font-size="7.5" fill="rgb(0%, 0%, 0%)" >C</text>
<circle cx="77.5" cy="129.03102042665245" r="5.0" stroke="none" stroke-width="1.0" fill="rgb(94%, 94%, 94%)"/>
<circle cx="77.5" cy="129.03102042665245" r="5.0" stroke="rgb(35%, 35%, 35%)" stroke-width="1.0" fill="none"/>
<text x="77.5" y="132.03102042665245" text-anchor="middle" font-family="Verdana" font-size="7.5" fill="rgb(0%, 0%, 0%)" >T</text>
<circle cx="77.5" cy="109.03102042665242" r="5.0" stroke="none" stroke-width="1.0" fill="rgb(94%, 94%, 94%)"/>
<circle cx="77.5" cy="109.03102042665242" r="5.0" stroke="rgb(35%, 35%, 35%)" stroke-width="1.0" fill="none"/>
<text x="77.5" y="112.03102042665242" text-anchor="middle" font-family="Verdana" font-size="7.5" fill="rgb(0%, 0%, 0%)" >T</text>
<circle cx="77.5" cy="89.03102042665242" r="5.0" stroke="none" stroke-width="1.0" fill="rgb(94%, 94%, 94%)"/>
<circle cx="77.5" cy="89.03102042665242" r="5.0" stroke="rgb(35%, 35%, 35%)" stroke-width="1.0" fill="none"/>
<text x="77.5" y="92.03102042665242" text-anchor="middle" font-family="Verdana" font-size="7.5" fill="rgb(0%, 0%, 0%)" >G</text>
<circle cx="77.5" cy="69.03102042665242" r="5.0" stroke="none" stroke-width="1.0" fill="rgb(94%, 94%, 94%)"/>
<circle cx="77.5" cy="69.03102042665242" r="5.0" stroke="rgb(35%, 35%, 35%)" stroke-width="1.0" fill="none"/>
<text x="77.5" y="72.03102042665242" text-anchor="middle" font-family="Verdana" font-size="7.5" fill="rgb(0%, 0%, 0%)" >T</text>
<circle cx="77.5" cy="49.03102042665242" r="5.0" stroke="none" stroke-width="1.0" fill="rgb(94%, 94%, 94%)"/>
<circle cx="77.5" cy="49.03102042665242" r="5.0" stroke="rgb(35%, 35%, 35%)" stroke-width="1.0" fill="none"/>
<text x="77.5" y="52.03102042665242" text-anchor="middle" font-family="Verdana" font-size="7.5" fill="rgb(0%, 0%, 0%)" >A</text>
<circle cx="70.85183039518209" cy="32.84298012699787" r="5.0" stroke="none" stroke-width="1.0" fill="rgb(94%, 94%, 94%)"/>
<circle cx="70.85183039518209" cy="32.84298012699787" r="5.0" stroke="rgb(35%, 35%, 35%)" stroke-width="1.0" fill="none"/>
<text x="70.85183039518209" y="35.84298012699787" text-anchor="middle" font-family="Verdana" font-size="7.5" fill="rgb(0%, 0%, 0%)" >T</text>
<circle cx="77.57804965122152" cy="16.687213900744382" r="5.0" stroke="none" stroke-width="1.0" fill="rgb(94%, 94%, 94%)"/>
<circle cx="77.57804965122152" cy="16.687213900744382" r="5.0" stroke="rgb(35%, 35%, 35%)" stroke-width="1.0" fill="none"/>
<text x="77.57804965122152" y="19.687213900744382" text-anchor="middle" font-family="Verdana" font-size="7.5" fill="rgb(0%, 0%, 0%)" >T</text>
<circle cx="93.75" cy="10.0" r="5.0" stroke="none" stroke-width="1.0" fill="rgb(94%, 94%, 94%)"/>
<circle cx="93.75" cy="10.0" r="5.0" stroke="rgb(35%, 35%, 35%)" stroke-width="1.0" fill="none"/>
<text x="93.75" y="13.0" text-anchor="middle" font-family="Verdana" font-size="7.5" fill="rgb(0%, 0%, 0%)" >T</text>
<circle cx="109.92195034877848" cy="16.687213900744382" r="5.0" stroke="none" stroke-width="1.0" fill="rgb(94%, 94%, 94%)"/>
<circle cx="109.92195034877848" cy="16.687213900744382" r="5.0" stroke="rgb(35%, 35%, 35%)" stroke-width="1.0" fill="none"/>
<text x="109.92195034877848" y="19.687213900744382" text-anchor="middle" font-family="Verdana" font-size="7.5" fill="rgb(0%, 0%, 0%)" >C</text>
<circle cx="116.6481696048179" cy="32.84298012699787" r="5.0" stroke="none" stroke-width="1.0" fill="rgb(94%, 94%, 94%)"/>
<circle cx="116.6481696048179" cy="32.84298012699787" r="5.0" stroke="rgb(35%, 35%, 35%)" stroke-width="1.0" fill="none"/>
<text x="116.6481696048179" y="35.84298012699787" text-anchor="middle" font-family="Verdana" font-size="7.5" fill="rgb(0%, 0%, 0%)" >T</text>
<circle cx="110.0" cy="49.03102042665242" r="5.0" stroke="none" stroke-width="1.0" fill="rgb(94%, 94%, 94%)"/>
<circle cx="110.0" cy="49.03102042665242" r="5.0" stroke="rgb(35%, 35%, 35%)" stroke-width="1.0" fill="none"/>
<text x="110.0" y="52.03102042665242" text-anchor="middle" font-family="Verdana" font-size="7.5" fill="rgb(0%, 0%, 0%)" >T</text>
<circle cx="110.0" cy="69.03102042665242" r="5.0" stroke="none" stroke-width="1.0" fill="rgb(94%, 94%, 94%)"/>
<circle cx="110.0" cy="69.03102042665242" r="5.0" stroke="rgb(35%, 35%, 35%)" stroke-width="1.0" fill="none"/>
<text x="110.0" y="72.03102042665242" text-anchor="middle" font-family="Verdana" font-size="7.5" fill="rgb(0%, 0%, 0%)" >A</text>
<circle cx="110.0" cy="89.03102042665242" r="5.0" stroke="none" stroke-width="1.0" fill="rgb(94%, 94%, 94%)"/>
<circle cx="110.0" cy="89.03102042665242" r="5.0" stroke="rgb(35%, 35%, 35%)" stroke-width="1.0" fill="none"/>
<text x="110.0" y="92.03102042665242" text-anchor="middle" font-family="Verdana" font-size="7.5" fill="rgb(0%, 0%, 0%)" >C</text>
<circle cx="110.0" cy="109.03102042665242" r="5.0" stroke="none" stroke-width="1.0" fill="rgb(94%, 94%, 94%)"/>
<circle cx="110.0" cy="109.03102042665242" r="5.0" stroke="rgb(35%, 35%, 35%)" stroke-width="1.0" fill="none"/>
<text x="110.0" y="112.03102042665242" text-anchor="middle" font-family="Verdana" font-size="7.5" fill="rgb(0%, 0%, 0%)" >A</text>
<circle cx="110.0" cy="129.03102042665245" r="5.0" stroke="none" stroke-width="1.0" fill="rgb(94%, 94%, 94%)"/>
<circle cx="110.0" cy="129.03102042665245" r="5.0" stroke="rgb(35%, 35%, 35%)" stroke-width="1.0" fill="none"/>
<text x="110.0" y="132.03102042665245" text-anchor="middle" font-family="Verdana" font-size="7.5" fill="rgb(0%, 0%, 0%)" >A</text>
<circle cx="120.37968331740177" cy="143.12045964778355" r="5.0" stroke="none" stroke-width="1.0" fill="rgb(94%, 94%, 94%)"/>
<circle cx="120.37968331740177" cy="143.12045964778355" r="5.0" stroke="rgb(35%, 35%, 35%)" stroke-width="1.0" fill="none"/>
<text x="120.37968331740177" y="146.12045964778355" text-anchor="middle" font-family="Verdana" font-size="7.5" fill="rgb(0%, 0%, 0%)" >A</text>
<circle cx="120.37968331740177" cy="160.62046317165448" r="5.0" stroke="none" stroke-width="1.0" fill="rgb(94%, 94%, 94%)"/>
<circle cx="120.37968331740177" cy="160.62046317165448" r="5.0" stroke="rgb(35%, 35%, 35%)" stroke-width="1.0" fill="none"/>
<text x="120.37968331740177" y="163.62046317165448" text-anchor="middle" font-family="Verdana" font-size="7.5" fill="rgb(0%, 0%, 0%)" >A</text>
<circle cx="110.0" cy="174.70990239278558" r="5.0" stroke="none" stroke-width="1.0" fill="rgb(94%, 94%, 94%)"/>
<circle cx="110.0" cy="174.70990239278558" r="5.0" stroke="rgb(35%, 35%, 35%)" stroke-width="1.0" fill="none"/>
<text x="110.0" y="177.70990239278558" text-anchor="middle" font-family="Verdana" font-size="7.5" fill="rgb(0%, 0%, 0%)" >A</text>
<circle cx="110.0" cy="194.70990239278558" r="5.0" stroke="none" stroke-width="1.0" fill="rgb(94%, 94%, 94%)"/>
<circle cx="110.0" cy="194.70990239278558" r="5.0" stroke="rgb(35%, 35%, 35%)" stroke-width="1.0" fill="none"/>
<text x="110.0" y="197.70990239278558" text-anchor="middle" font-family="Verdana" font-size="7.5" fill="rgb(0%, 0%, 0%)" >G</text>
<circle cx="110.0" cy="214.70990239278558" r="5.0" stroke="none" stroke-width="1.0" fill="rgb(94%, 94%, 94%)"/>
<circle cx="110.0" cy="214.70990239278558" r="5.0" stroke="rgb(35%, 35%, 35%)" stroke-width="1.0" fill="none"/>
<text x="110.0" y="217.70990239278558" text-anchor="middle" font-family="Verdana" font-size="7.5" fill="rgb(0%, 0%, 0%)" >A</text>
<circle cx="110.0" cy="234.70990239278558" r="5.0" stroke="none" stroke-width="1.0" fill="rgb(94%, 94%, 94%)"/>
<circle cx="110.0" cy="234.70990239278558" r="5.0" stroke="rgb(35%, 35%, 35%)" stroke-width="1.0" fill="none"/>
<text x="110.0" y="237.70990239278558" text-anchor="middle" font-family="Verdana" font-size="7.5" fill="rgb(0%, 0%, 0%)" >G</text>
<circle cx="110.0" cy="254.70990239278558" r="5.0" stroke="none" stroke-width="1.0" fill="rgb(94%, 94%, 94%)"/>
<circle cx="110.0" cy="254.70990239278558" r="5.0" stroke="rgb(35%, 35%, 35%)" stroke-width="1.0" fill="none"/>
<text x="110.0" y="257.7099023927856" text-anchor="middle" font-family="Verdana" font-size="7.5" fill="rgb(0%, 0%, 0%)" >T</text>
<circle cx="127.5" cy="254.70990239278558" r="5.0" stroke="none" stroke-width="1.0" fill="rgb(94%, 94%, 94%)"/>
<circle cx="127.5" cy="254.70990239278558" r="5.0" stroke="rgb(35%, 35%, 35%)" stroke-width="1.0" fill="none"/>
<text x="127.5" y="257.7099023927856" text-anchor="middle" font-family="Verdana" font-size="7.5" fill="rgb(0%, 0%, 0%)" >C</text>
<circle cx="145.0" cy="254.70990239278558" r="5.0" stroke="none" stroke-width="1.0" fill="rgb(94%, 94%, 94%)"/>
<circle cx="145.0" cy="254.70990239278558" r="5.0" stroke="rgb(35%, 35%, 35%)" stroke-width="1.0" fill="none"/>
<text x="145.0" y="257.7099023927856" text-anchor="middle" font-family="Verdana" font-size="7.5" fill="rgb(0%, 0%, 0%)" >G</text>
<circle cx="145.0" cy="234.70990239278558" r="5.0" stroke="none" stroke-width="1.0" fill="rgb(94%, 94%, 94%)"/>
<circle cx="145.0" cy="234.70990239278558" r="5.0" stroke="rgb(35%, 35%, 35%)" stroke-width="1.0" fill="none"/>
<text x="145.0" y="237.70990239278558" text-anchor="middle" font-family="Verdana" font-size="7.5" fill="rgb(0%, 0%, 0%)" >A</text>
<circle cx="145.0" cy="214.70990239278558" r="5.0" stroke="none" stroke-width="1.0" fill="rgb(94%, 94%, 94%)"/>
<circle cx="145.0" cy="214.70990239278558" r="5.0" stroke="rgb(35%, 35%, 35%)" stroke-width="1.0" fill="none"/>
<text x="145.0" y="217.70990239278558" text-anchor="middle" font-family="Verdana" font-size="7.5" fill="rgb(0%, 0%, 0%)" >T</text>
<circle cx="145.0" cy="194.70990239278558" r="5.0" stroke="none" stroke-width="1.0" fill="rgb(94%, 94%, 94%)"/>
<circle cx="145.0" cy="194.70990239278558" r="5.0" stroke="rgb(35%, 35%, 35%)" stroke-width="1.0" fill="none"/>
<text x="145.0" y="197.70990239278558" text-anchor="middle" font-family="Verdana" font-size="7.5" fill="rgb(0%, 0%, 0%)" >C</text>
<circle cx="145.0" cy="174.70990239278558" r="5.0" stroke="none" stroke-width="1.0" fill="rgb(94%, 94%, 94%)"/>
<circle cx="145.0" cy="174.70990239278558" r="5.0" stroke="rgb(35%, 35%, 35%)" stroke-width="1.0" fill="none"/>
<text x="145.0" y="177.70990239278558" text-anchor="middle" font-family="Verdana" font-size="7.5" fill="rgb(0%, 0%, 0%)" >C</text>
<circle cx="145.0" cy="154.70990239278558" r="5.0" stroke="none" stroke-width="1.0" fill="rgb(94%, 94%, 94%)"/>
<circle cx="145.0" cy="154.70990239278558" r="5.0" stroke="rgb(35%, 35%, 35%)" stroke-width="1.0" fill="none"/>
<text x="145.0" y="157.70990239278558" text-anchor="middle" font-family="Verdana" font-size="7.5" fill="rgb(0%, 0%, 0%)" >G</text>
<circle cx="145.0" cy="134.70990239278558" r="5.0" stroke="none" stroke-width="1.0" fill="rgb(94%, 94%, 94%)"/>
<circle cx="145.0" cy="134.70990239278558" r="5.0" stroke="rgb(35%, 35%, 35%)" stroke-width="1.0" fill="none"/>
<text x="145.0" y="137.70990239278558" text-anchor="middle" font-family="Verdana" font-size="7.5" fill="rgb(0%, 0%, 0%)" >G</text>
<circle cx="145.94020113855714" cy="117.23515450586407" r="5.0" stroke="none" stroke-width="1.0" fill="rgb(94%, 94%, 94%)"/>
<circle cx="145.94020113855714" cy="117.23515450586407" r="5.0" stroke="rgb(35%, 35%, 35%)" stroke-width="1.0" fill="none"/>
<text x="145.94020113855714" y="120.23515450586407" text-anchor="middle" font-family="Verdana" font-size="7.5" fill="rgb(0%, 0%, 0%)" >G</text>
<circle cx="161.25" cy="108.75807654735902" r="5.0" stroke="none" stroke-width="1.0" fill="rgb(94%, 94%, 94%)"/>
<circle cx="161.25" cy="108.75807654735902" r="5.0" stroke="rgb(35%, 35%, 35%)" stroke-width="1.0" fill="none"/>
<text x="161.25" y="111.75807654735902" text-anchor="middle" font-family="Verdana" font-size="7.5" fill="rgb(0%, 0%, 0%)" >A</text>
<circle cx="176.55979886144286" cy="117.23515450586407" r="5.0" stroke="none" stroke-width="1.0" fill="rgb(94%, 94%, 94%)"/>
<circle cx="176.55979886144286" cy="117.23515450586407" r="5.0" stroke="rgb(35%, 35%, 35%)" stroke-width="1.0" fill="none"/>
<text x="176.55979886144286" y="120.23515450586407" text-anchor="middle" font-family="Verdana" font-size="7.5" fill="rgb(0%, 0%, 0%)" >A</text>
<circle cx="177.5" cy="134.70990239278558" r="5.0" stroke="none" stroke-width="1.0" fill="rgb(94%, 94%, 94%)"/>
<circle cx="177.5" cy="134.70990239278558" r="5.0" stroke="rgb(35%, 35%, 35%)" stroke-width="1.0" fill="none"/>
<text x="177.5" y="137.70990239278558" text-anchor="middle" font-family="Verdana" font-size="7.5" fill="rgb(0%, 0%, 0%)" >C</text>
<circle cx="177.5" cy="154.70990239278558" r="5.0" stroke="none" stroke-width="1.0" fill="rgb(94%, 94%, 94%)"/>
<circle cx="177.5" cy="154.70990239278558" r="5.0" stroke="rgb(35%, 35%, 35%)" stroke-width="1.0" fill="none"/>
<text x="177.5" y="157.70990239278558" text-anchor="middle" font-family="Verdana" font-size="7.5" fill="rgb(0%, 0%, 0%)" >C</text>
<circle cx="177.5" cy="174.70990239278558" r="5.0" stroke="none" stroke-width="1.0" fill="rgb(94%, 94%, 94%)"/>
<circle cx="177.5" cy="174.70990239278558" r="5.0" stroke="rgb(35%, 35%, 35%)" stroke-width="1.0" fill="none"/>
<text x="177.5" y="177.70990239278558" text-anchor="middle" font-family="Verdana" font-size="7.5" fill="rgb(0%, 0%, 0%)" >G</text>
<circle cx="177.5" cy="194.70990239278558" r="5.0" stroke="none" stroke-width="1.0" fill="rgb(94%, 94%, 94%)"/>
<circle cx="177.5" cy="194.70990239278558" r="5.0" stroke="rgb(35%, 35%, 35%)" stroke-width="1.0" fill="none"/>
<text x="177.5" y="197.70990239278558" text-anchor="middle" font-family="Verdana" font-size="7.5" fill="rgb(0%, 0%, 0%)" >G</text>
<circle cx="177.5" cy="214.70990239278558" r="5.0" stroke="none" stroke-width="1.0" fill="rgb(94%, 94%, 94%)"/>
<circle cx="177.5" cy="214.70990239278558" r="5.0" stroke="rgb(35%, 35%, 35%)" stroke-width="1.0" fill="none"/>
<text x="177.5" y="217.70990239278558" text-anchor="middle" font-family="Verdana" font-size="7.5" fill="rgb(0%, 0%, 0%)" >A</text>
<circle cx="177.5" cy="234.70990239278558" r="5.0" stroke="none" stroke-width="1.0" fill="rgb(94%, 94%, 94%)"/>
<circle cx="177.5" cy="234.70990239278558" r="5.0" stroke="rgb(35%, 35%, 35%)" stroke-width="1.0" fill="none"/>
<text x="177.5" y="237.70990239278558" text-anchor="middle" font-family="Verdana" font-size="7.5" fill="rgb(0%, 0%, 0%)" >T</text>
<circle cx="177.5" cy="254.70990239278558" r="5.0" stroke="none" stroke-width="1.0" fill="rgb(94%, 94%, 94%)"/>
<circle cx="177.5" cy="254.70990239278558" r="5.0" stroke="rgb(35%, 35%, 35%)" stroke-width="1.0" fill="none"/>
<text x="177.5" y="257.7099023927856" text-anchor="middle" font-family="Verdana" font-size="7.5" fill="rgb(0%, 0%, 0%)" >C</text>
<circle cx="195.0" cy="254.70990239278558" r="5.0" stroke="none" stroke-width="1.0" fill="rgb(94%, 94%, 94%)"/>
<circle cx="195.0" cy="254.70990239278558" r="5.0" stroke="rgb(35%, 35%, 35%)" stroke-width="1.0" fill="none"/>
<text x="195.0" y="257.7099023927856" text-anchor="middle" font-family="Verdana" font-size="7.5" fill="rgb(0%, 0%, 0%)" >C</text>
<circle cx="212.5" cy="254.70990239278558" r="5.0" stroke="none" stroke-width="1.0" fill="rgb(94%, 94%, 94%)"/>
<circle cx="212.5" cy="254.70990239278558" r="5.0" stroke="rgb(35%, 35%, 35%)" stroke-width="1.0" fill="none"/>
<text x="212.5" y="257.7099023927856" text-anchor="middle" font-family="Verdana" font-size="7.5" fill="rgb(0%, 0%, 0%)" >A</text>
<circle cx="230.0" cy="254.70990239278558" r="5.0" stroke="none" stroke-width="1.0" fill="rgb(94%, 94%, 94%)"/>
<circle cx="230.0" cy="254.70990239278558" r="5.0" stroke="rgb(35%, 35%, 35%)" stroke-width="1.0" fill="none"/>
<text x="230.0" y="257.7099023927856" text-anchor="middle" font-family="Verdana" font-size="7.5" fill="rgb(0%, 0%, 0%)" >T</text>
<circle cx="247.5" cy="254.70990239278558" r="5.0" stroke="none" stroke-width="1.0" fill="rgb(94%, 94%, 94%)"/>
<circle cx="247.5" cy="254.70990239278558" r="5.0" stroke="rgb(35%, 35%, 35%)" stroke-width="1.0" fill="none"/>
<text x="247.5" y="257.7099023927856" text-anchor="middle" font-family="Verdana" font-size="7.5" fill="rgb(0%, 0%, 0%)" >A</text>
<circle cx="247.5" cy="234.70990239278558" r="5.0" stroke="none" stroke-width="1.0" fill="rgb(94%, 94%, 94%)"/>
<circle cx="247.5" cy="234.70990239278558" r="5.0" stroke="rgb(35%, 35%, 35%)" stroke-width="1.0" fill="none"/>
<text x="247.5" y="237.70990239278558" text-anchor="middle" font-family="Verdana" font-size="7.5" fill="rgb(0%, 0%, 0%)" >A</text>
<circle cx="247.5" cy="214.70990239278558" r="5.0" stroke="none" stroke-width="1.0" fill="rgb(94%, 94%, 94%)"/>
<circle cx="247.5" cy="214.70990239278558" r="5.0" stroke="rgb(35%, 35%, 35%)" stroke-width="1.0" fill="none"/>
<text x="247.5" y="217.70990239278558" text-anchor="middle" font-family="Verdana" font-size="7.5" fill="rgb(0%, 0%, 0%)" >C</text>
<circle cx="247.5" cy="194.70990239278558" r="5.0" stroke="none" stroke-width="1.0" fill="rgb(94%, 94%, 94%)"/>
<circle cx="247.5" cy="194.70990239278558" r="5.0" stroke="rgb(35%, 35%, 35%)" stroke-width="1.0" fill="none"/>
<text x="247.5" y="197.70990239278558" text-anchor="middle" font-family="Verdana" font-size="7.5" fill="rgb(0%, 0%, 0%)" >G</text>
<circle cx="247.5" cy="174.70990239278558" r="5.0" stroke="none" stroke-width="1.0" fill="rgb(94%, 94%, 94%)"/>
<circle cx="247.5" cy="174.70990239278558" r="5.0" stroke="rgb(35%, 35%, 35%)" stroke-width="1.0" fill="none"/>
<text x="247.5" y="177.70990239278558" text-anchor="middle" font-family="Verdana" font-size="7.5" fill="rgb(0%, 0%, 0%)" >G</text>
<circle cx="247.5" cy="154.70990239278558" r="5.0" stroke="none" stroke-width="1.0" fill="rgb(94%, 94%, 94%)"/>
<circle cx="247.5" cy="154.70990239278558" r="5.0" stroke="rgb(35%, 35%, 35%)" stroke-width="1.0" fill="none"/>
<text x="247.5" y="157.70990239278558" text-anchor="middle" font-family="Verdana" font-size="7.5" fill="rgb(0%, 0%, 0%)" >T</text>
<circle cx="247.5" cy="134.70990239278558" r="5.0" stroke="none" stroke-width="1.0" fill="rgb(94%, 94%, 94%)"/>
<circle cx="247.5" cy="134.70990239278558" r="5.0" stroke="rgb(35%, 35%, 35%)" stroke-width="1.0" fill="none"/>
<text x="247.5" y="137.70990239278558" text-anchor="middle" font-family="Verdana" font-size="7.5" fill="rgb(0%, 0%, 0%)" >C</text>
<circle cx="248.44020113855714" cy="117.23515450586407" r="5.0" stroke="none" stroke-width="1.0" fill="rgb(94%, 94%, 94%)"/>
<circle cx="248.44020113855714" cy="117.23515450586407" r="5.0" stroke="rgb(35%, 35%, 35%)" stroke-width="1.0" fill="none"/>
<text x="248.44020113855714" y="120.23515450586407" text-anchor="middle" font-family="Verdana" font-size="7.5" fill="rgb(0%, 0%, 0%)" >G</text>
<circle cx="263.75" cy="108.75807654735902" r="5.0" stroke="none" stroke-width="1.0" fill="rgb(94%, 94%, 94%)"/>
<circle cx="263.75" cy="108.75807654735902" r="5.0" stroke="rgb(35%, 35%, 35%)" stroke-width="1.0" fill="none"/>
<text x="263.75" y="111.75807654735902" text-anchor="middle" font-family="Verdana" font-size="7.5" fill="rgb(0%, 0%, 0%)" >A</text>
<circle cx="279.05979886144286" cy="117.23515450586407" r="5.0" stroke="none" stroke-width="1.0" fill="rgb(94%, 94%, 94%)"/>
<circle cx="279.05979886144286" cy="117.23515450586407" r="5.0" stroke="rgb(35%, 35%, 35%)" stroke-width="1.0" fill="none"/>
<text x="279.05979886144286" y="120.23515450586407" text-anchor="middle" font-family="Verdana" font-size="7.5" fill="rgb(0%, 0%, 0%)" >A</text>
<circle cx="280.0" cy="134.70990239278558" r="5.0" stroke="none" stroke-width="1.0" fill="rgb(94%, 94%, 94%)"/>
<circle cx="280.0" cy="134.70990239278558" r="5.0" stroke="rgb(35%, 35%, 35%)" stroke-width="1.0" fill="none"/>
<text x="280.0" y="137.70990239278558" text-anchor="middle" font-family="Verdana" font-size="7.5" fill="rgb(0%, 0%, 0%)" >G</text>
<circle cx="280.0" cy="154.70990239278558" r="5.0" stroke="none" stroke-width="1.0" fill="rgb(94%, 94%, 94%)"/>
<circle cx="280.0" cy="154.70990239278558" r="5.0" stroke="rgb(35%, 35%, 35%)" stroke-width="1.0" fill="none"/>
<text x="280.0" y="157.70990239278558" text-anchor="middle" font-family="Verdana" font-size="7.5" fill="rgb(0%, 0%, 0%)" >A</text>
<circle cx="280.0" cy="174.70990239278558" r="5.0" stroke="none" stroke-width="1.0" fill="rgb(94%, 94%, 94%)"/>
<circle cx="280.0" cy="174.70990239278558" r="5.0" stroke="rgb(35%, 35%, 35%)" stroke-width="1.0" fill="none"/>
<text x="280.0" y="177.70990239278558" text-anchor="middle" font-family="Verdana" font-size="7.5" fill="rgb(0%, 0%, 0%)" >C</text>
<circle cx="280.0" cy="194.70990239278558" r="5.0" stroke="none" stroke-width="1.0" fill="rgb(94%, 94%, 94%)"/>
<circle cx="280.0" cy="194.70990239278558" r="5.0" stroke="rgb(35%, 35%, 35%)" stroke-width="1.0" fill="none"/>
<text x="280.0" y="197.70990239278558" text-anchor="middle" font-family="Verdana" font-size="7.5" fill="rgb(0%, 0%, 0%)" >C</text>
<circle cx="280.0" cy="214.70990239278558" r="5.0" stroke="none" stroke-width="1.0" fill="rgb(94%, 94%, 94%)"/>
<circle cx="280.0" cy="214.70990239278558" r="5.0" stroke="rgb(35%, 35%, 35%)" stroke-width="1.0" fill="none"/>
<text x="280.0" y="217.70990239278558" text-anchor="middle" font-family="Verdana" font-size="7.5" fill="rgb(0%, 0%, 0%)" >G</text>
<circle cx="280.0" cy="234.70990239278558" r="5.0" stroke="none" stroke-width="1.0" fill="rgb(94%, 94%, 94%)"/>
<circle cx="280.0" cy="234.70990239278558" r="5.0" stroke="rgb(35%, 35%, 35%)" stroke-width="1.0" fill="none"/>
<text x="280.0" y="237.70990239278558" text-anchor="middle" font-family="Verdana" font-size="7.5" fill="rgb(0%, 0%, 0%)" >T</text>
<circle cx="280.0" cy="254.70990239278558" r="5.0" stroke="none" stroke-width="1.0" fill="rgb(94%, 94%, 94%)"/>
<circle cx="280.0" cy="254.70990239278558" r="5.0" stroke="rgb(35%, 35%, 35%)" stroke-width="1.0" fill="none"/>
<text x="280.0" y="257.7099023927856" text-anchor="middle" font-family="Verdana" font-size="7.5" fill="rgb(0%, 0%, 0%)" >T</text>
<circle cx="297.5" cy="254.70990239278558" r="5.0" stroke="none" stroke-width="1.0" fill="rgb(94%, 94%, 94%)"/>
<circle cx="297.5" cy="254.70990239278558" r="5.0" stroke="rgb(35%, 35%, 35%)" stroke-width="1.0" fill="none"/>
<text x="297.5" y="257.7099023927856" text-anchor="middle" font-family="Verdana" font-size="7.5" fill="rgb(0%, 0%, 0%)" >A</text>
<circle cx="315.0" cy="254.70990239278558" r="5.0" stroke="none" stroke-width="1.0" fill="rgb(94%, 94%, 94%)"/>
<circle cx="315.0" cy="254.70990239278558" r="5.0" stroke="rgb(35%, 35%, 35%)" stroke-width="1.0" fill="none"/>
<text x="315.0" y="257.7099023927856" text-anchor="middle" font-family="Verdana" font-size="7.5" fill="rgb(0%, 0%, 0%)" >C</text>
<line x1="10.0" y1="262.2099023927856" x2="10.0" y2="267.2099023927856" stroke="rgb(25%, 25%, 25%)" stroke-width="1.0" />
<text x="10.0" y="277.7099023927856" text-anchor="middle" font-family="Verdana" font-size="7.5" fill="rgb(25%, 25%, 25%)" >1</text>
<line x1="50.0" y1="234.70990239278558" x2="55.0" y2="234.70990239278558" stroke="rgb(25%, 25%, 25%)" stroke-width="1.0" />
<text x="62.5" y="237.70990239278558" text-anchor="middle" font-family="Verdana" font-size="7.5" fill="rgb(25%, 25%, 25%)" >10</text>
<line x1="70.09428808642556" y1="127.8455116526901" x2="65.15714681070928" y2="127.05517247004855" stroke="rgb(25%, 25%, 25%)" stroke-width="1.0" />
<text x="57.75143489713484" y="128.8696636960862" text-anchor="middle" font-family="Verdana" font-size="7.5" fill="rgb(25%, 25%, 25%)" >20</text>
<line x1="117.49999454079742" y1="49.021971227303624" x2="122.49999090132903" y2="49.01593842773775" stroke="rgb(25%, 25%, 25%)" stroke-width="1.0" />
<text x="129.99998544212647" y="52.00688922838893" text-anchor="middle" font-family="Verdana" font-size="7.5" fill="rgb(25%, 25%, 25%)" >30</text>
<line x1="117.5" y1="234.70990239278558" x2="122.5" y2="234.70990239278558" stroke="rgb(25%, 25%, 25%)" stroke-width="1.0" />
<text x="130.0" y="237.70990239278558" text-anchor="middle" font-family="Verdana" font-size="7.5" fill="rgb(25%, 25%, 25%)" >40</text>
<line x1="139.58353062961635" y1="113.25486054175008" x2="135.34575029032246" y2="110.60133123234075" stroke="rgb(25%, 25%, 25%)" stroke-width="1.0" />
<text x="128.98907978138166" y="109.62103726822679" text-anchor="middle" font-family="Verdana" font-size="7.5" fill="rgb(25%, 25%, 25%)" >50</text>
<line x1="195.0" y1="262.2099023927856" x2="195.0" y2="267.2099023927856" stroke="rgb(25%, 25%, 25%)" stroke-width="1.0" />
<text x="195.0" y="277.7099023927856" text-anchor="middle" font-family="Verdana" font-size="7.5" fill="rgb(25%, 25%, 25%)" >60</text>
<line x1="242.08353062961635" y1="113.25486054175008" x2="237.84575029032246" y2="110.60133123234075" stroke="rgb(25%, 25%, 25%)" stroke-width="1.0" />
<text x="231.48907978138166" y="109.62103726822679" text-anchor="middle" font-family="Verdana" font-size="7.5" fill="rgb(25%, 25%, 25%)" >70</text>
<line x1="297.5" y1="262.2099023927856" x2="297.5" y2="267.2099023927856" stroke="rgb(25%, 25%, 25%)" stroke-width="1.0" />
<text x="297.5" y="277.7099023927856" text-anchor="middle" font-family="Verdana" font-size="7.5" fill="rgb(25%, 25%, 25%)" >80</text>
<line x1="315.0" y1="262.2099023927856" x2="315.0" y2="267.2099023927856" stroke="rgb(25%, 25%, 25%)" stroke-width="1.0" />
<text x="315.0" y="277.7099023927856" text-anchor="middle" font-family="Verdana" font-size="7.5" fill="rgb(25%, 25%, 25%)" >81</text>
<text x="162.5" y="295.90990239278557" text-anchor="middle" font-family="Verdana" font-size="18.0" fill="rgb(0%, 0%, 0%)" >1NGU_GAA (E=-27.27 kcal/mol)</text>
</svg>
