<?xml version="1.0" encoding="UTF-8"?>
<!DOCTYPE svg PUBLIC "-//W3C//DTD SVG 1.1//EN" 
"http://www.w3.org/Graphics/SVG/1.1/DTD/svg11.dtd">

<svg width="100%" height="100%" version="1.1"
xmlns="http://www.w3.org/2000/svg">
<line x1="15.0" y1="175.95182584542653" x2="22.5" y2="175.95182584542653" stroke="rgb(35%, 35%, 35%)" stroke-width="1.0" />
<line x1="27.5" y1="170.95182584542653" x2="27.5" y2="160.95182584542653" stroke="rgb(35%, 35%, 35%)" stroke-width="1.0" />
<line x1="27.5" y1="150.95182584542653" x2="27.5" y2="140.95182584542653" stroke="rgb(35%, 35%, 35%)" stroke-width="1.0" />
<line x1="27.5" y1="130.95182584542653" x2="27.5" y2="120.95182584542653" stroke="rgb(35%, 35%, 35%)" stroke-width="1.0" />
<line x1="27.5" y1="110.95182584542653" x2="27.5" y2="100.95182584542653" stroke="rgb(35%, 35%, 35%)" stroke-width="1.0" />
<line x1="27.5" y1="90.95182584542653" x2="27.5" y2="80.95182584542653" stroke="rgb(35%, 35%, 35%)" stroke-width="1.0" />
<line x1="27.5" y1="70.95182584542653" x2="27.5" y2="60.95182584542653" stroke="rgb(35%, 35%, 35%)" stroke-width="1.0" />
<line x1="27.5" y1="50.95182584542653" x2="27.5" y2="40.95182584542653" stroke="rgb(35%, 35%, 35%)" stroke-width="1.0" />
<line x1="27.76862854942486" y1="30.95904718996482" x2="28.171572589132282" y2="23.469856613966783" stroke="rgb(35%, 35%, 35%)" stroke-width="1.0" />
<line x1="32.81442372931808" y1="16.05505881603804" x2="39.37577740923906" y2="12.422019142467036" stroke="rgb(35%, 35%, 35%)" stroke-width="1.0" />
<line x1="48.12422259076094" y1="12.422019142467036" x2="54.68557627068192" y2="16.05505881603804" stroke="rgb(35%, 35%, 35%)" stroke-width="1.0" />
<line x1="59.32842741086772" y1="23.469856613966783" x2="59.73137145057514" y2="30.95904718996482" stroke="rgb(35%, 35%, 35%)" stroke-width="1.0" />
<line x1="60.0" y1="40.95182584542653" x2="60.0" y2="50.95182584542653" stroke="rgb(35%, 35%, 35%)" stroke-width="1.0" />
<line x1="60.0" y1="60.95182584542653" x2="60.0" y2="70.95182584542653" stroke="rgb(35%, 35%, 35%)" stroke-width="1.0" />
<line x1="60.0" y1="80.95182584542653" x2="60.0" y2="90.95182584542653" stroke="rgb(35%, 35%, 35%)" stroke-width="1.0" />
<line x1="60.0" y1="100.95182584542653" x2="60.0" y2="110.95182584542653" stroke="rgb(35%, 35%, 35%)" stroke-width="1.0" />
<line x1="60.0" y1="120.95182584542653" x2="60.0" y2="130.95182584542653" stroke="rgb(35%, 35%, 35%)" stroke-width="1.0" />
<line x1="60.0" y1="140.95182584542653" x2="60.0" y2="150.95182584542653" stroke="rgb(35%, 35%, 35%)" stroke-width="1.0" />
<line x1="60.0" y1="160.95182584542653" x2="60.0" y2="170.95182584542653" stroke="rgb(35%, 35%, 35%)" stroke-width="1.0" />
<line x1="65.0" y1="175.95182584542653" x2="72.5" y2="175.95182584542653" stroke="rgb(35%, 35%, 35%)" stroke-width="1.0" />
<line x1="82.5" y1="175.95182584542653" x2="90.0" y2="175.95182584542653" stroke="rgb(35%, 35%, 35%)" stroke-width="1.0" />
<line x1="32.5" y1="175.95182584542653" x2="55.0" y2="175.95182584542653" stroke="rgb(0%, 0%, 100%)" stroke-width="1.0" />
<circle cx="43.75" cy="175.95182584542653" r="2.75" stroke="none" stroke-width="1.0" fill="rgb(0%, 0%, 100%)"/>
<line x1="32.5" y1="155.95182584542653" x2="55.0" y2="155.95182584542653" stroke="rgb(0%, 0%, 100%)" stroke-width="1.0" />
<circle cx="43.75" cy="155.95182584542653" r="2.75" stroke="none" stroke-width="1.0" fill="rgb(0%, 0%, 100%)"/>
<line x1="32.5" y1="135.95182584542653" x2="55.0" y2="135.95182584542653" stroke="rgb(0%, 0%, 100%)" stroke-width="1.0" />
<circle cx="43.75" cy="135.95182584542653" r="2.75" stroke="none" stroke-width="1.0" fill="rgb(0%, 0%, 100%)"/>
<line x1="32.5" y1="114.70182584542653" x2="55.0" y2="114.70182584542653" stroke="rgb(0%, 0%, 100%)" stroke-width="1.0" />
<line x1="32.5" y1="117.20182584542653" x2="55.0" y2="117.20182584542653" stroke="rgb(0%, 0%, 100%)" stroke-width="1.0" />
<line x1="32.5" y1="94.70182584542653" x2="55.0" y2="94.70182584542653" stroke="rgb(0%, 0%, 100%)" stroke-width="1.0" />
<line x1="32.5" y1="97.20182584542653" x2="55.0" y2="97.20182584542653" stroke="rgb(0%, 0%, 100%)" stroke-width="1.0" />
<line x1="32.5" y1="74.70182584542653" x2="55.0" y2="74.70182584542653" stroke="rgb(0%, 0%, 100%)" stroke-width="1.0" />
<line x1="32.5" y1="77.20182584542653" x2="55.0" y2="77.20182584542653" stroke="rgb(0%, 0%, 100%)" stroke-width="1.0" />
<line x1="32.5" y1="55.95182584542653" x2="55.0" y2="55.95182584542653" stroke="rgb(0%, 0%, 100%)" stroke-width="1.0" />
<circle cx="43.75" cy="55.95182584542653" r="2.75" stroke="none" stroke-width="1.0" fill="rgb(0%, 0%, 100%)"/>
<line x1="32.5" y1="34.70182584542653" x2="55.0" y2="34.70182584542653" stroke="rgb(0%, 0%, 100%)" stroke-width="1.0" />
<line x1="32.5" y1="37.20182584542653" x2="55.0" y2="37.20182584542653" stroke="rgb(0%, 0%, 100%)" stroke-width="1.0" />
<circle cx="10.0" cy="175.95182584542653" r="5.0" stroke="none" stroke-width="1.0" fill="rgb(94%, 94%, 94%)"/>
<circle cx="10.0" cy="175.95182584542653" r="5.0" stroke="rgb(35%, 35%, 35%)" stroke-width="1.0" fill="none"/>
<text x="10.0" y="178.95182584542653" text-anchor="middle" font-family="Verdana" font-size="7.5" fill="rgb(0%, 0%, 0%)" >G</text>
<circle cx="27.5" cy="175.95182584542653" r="5.0" stroke="none" stroke-width="1.0" fill="rgb(94%, 94%, 94%)"/>
<circle cx="27.5" cy="175.95182584542653" r="5.0" stroke="rgb(35%, 35%, 35%)" stroke-width="1.0" fill="none"/>
<text x="27.5" y="178.95182584542653" text-anchor="middle" font-family="Verdana" font-size="7.5" fill="rgb(0%, 0%, 0%)" >T</text>
<circle cx="27.5" cy="155.95182584542653" r="5.0" stroke="none" stroke-width="1.0" fill="rgb(94%, 94%, 94%)"/>
<circle cx="27.5" cy="155.95182584542653" r="5.0" stroke="rgb(35%, 35%, 35%)" stroke-width="1.0" fill="none"/>
<text x="27.5" y="158.95182584542653" text-anchor="middle" font-family="Verdana" font-size="7.5" fill="rgb(0%, 0%, 0%)" >A</text>
<circle cx="27.5" cy="135.95182584542653" r="5.0" stroke="none" stroke-width="1.0" fill="rgb(94%, 94%, 94%)"/>
<circle cx="27.5" cy="135.95182584542653" r="5.0" stroke="rgb(35%, 35%, 35%)" stroke-width="1.0" fill="none"/>
<text x="27.5" y="138.95182584542653" text-anchor="middle" font-family="Verdana" font-size="7.5" fill="rgb(0%, 0%, 0%)" >A</text>
<circle cx="27.5" cy="115.95182584542653" r="5.0" stroke="none" stroke-width="1.0" fill="rgb(94%, 94%, 94%)"/>
<circle cx="27.5" cy="115.95182584542653" r="5.0" stroke="rgb(35%, 35%, 35%)" stroke-width="1.0" fill="none"/>
<text x="27.5" y="118.95182584542653" text-anchor="middle" font-family="Verdana" font-size="7.5" fill="rgb(0%, 0%, 0%)" >C</text>
<circle cx="27.5" cy="95.95182584542653" r="5.0" stroke="none" stroke-width="1.0" fill="rgb(94%, 94%, 94%)"/>
<circle cx="27.5" cy="95.95182584542653" r="5.0" stroke="rgb(35%, 35%, 35%)" stroke-width="1.0" fill="none"/>
<text x="27.5" y="98.95182584542653" text-anchor="middle" font-family="Verdana" font-size="7.5" fill="rgb(0%, 0%, 0%)" >G</text>
<circle cx="27.5" cy="75.95182584542653" r="5.0" stroke="none" stroke-width="1.0" fill="rgb(94%, 94%, 94%)"/>
<circle cx="27.5" cy="75.95182584542653" r="5.0" stroke="rgb(35%, 35%, 35%)" stroke-width="1.0" fill="none"/>
<text x="27.5" y="78.95182584542653" text-anchor="middle" font-family="Verdana" font-size="7.5" fill="rgb(0%, 0%, 0%)" >G</text>
<circle cx="27.5" cy="55.95182584542653" r="5.0" stroke="none" stroke-width="1.0" fill="rgb(94%, 94%, 94%)"/>
<circle cx="27.5" cy="55.95182584542653" r="5.0" stroke="rgb(35%, 35%, 35%)" stroke-width="1.0" fill="none"/>
<text x="27.5" y="58.95182584542653" text-anchor="middle" font-family="Verdana" font-size="7.5" fill="rgb(0%, 0%, 0%)" >T</text>
<circle cx="27.5" cy="35.95182584542653" r="5.0" stroke="none" stroke-width="1.0" fill="rgb(94%, 94%, 94%)"/>
<circle cx="27.5" cy="35.95182584542653" r="5.0" stroke="rgb(35%, 35%, 35%)" stroke-width="1.0" fill="none"/>
<text x="27.5" y="38.95182584542653" text-anchor="middle" font-family="Verdana" font-size="7.5" fill="rgb(0%, 0%, 0%)" >C</text>
<circle cx="28.440201138557143" cy="18.477077958505078" r="5.0" stroke="none" stroke-width="1.0" fill="rgb(94%, 94%, 94%)"/>
<circle cx="28.440201138557143" cy="18.477077958505078" r="5.0" stroke="rgb(35%, 35%, 35%)" stroke-width="1.0" fill="none"/>
<text x="28.440201138557143" y="21.477077958505078" text-anchor="middle" font-family="Verdana" font-size="7.5" fill="rgb(0%, 0%, 0%)" >T</text>
<circle cx="43.75" cy="10.0" r="5.0" stroke="none" stroke-width="1.0" fill="rgb(94%, 94%, 94%)"/>
<circle cx="43.75" cy="10.0" r="5.0" stroke="rgb(35%, 35%, 35%)" stroke-width="1.0" fill="none"/>
<text x="43.75" y="13.0" text-anchor="middle" font-family="Verdana" font-size="7.5" fill="rgb(0%, 0%, 0%)" >T</text>
<circle cx="59.05979886144286" cy="18.477077958505078" r="5.0" stroke="none" stroke-width="1.0" fill="rgb(94%, 94%, 94%)"/>
<circle cx="59.05979886144286" cy="18.477077958505078" r="5.0" stroke="rgb(35%, 35%, 35%)" stroke-width="1.0" fill="none"/>
<text x="59.05979886144286" y="21.477077958505078" text-anchor="middle" font-family="Verdana" font-size="7.5" fill="rgb(0%, 0%, 0%)" >C</text>
<circle cx="60.0" cy="35.95182584542653" r="5.0" stroke="none" stroke-width="1.0" fill="rgb(94%, 94%, 94%)"/>
<circle cx="60.0" cy="35.95182584542653" r="5.0" stroke="rgb(35%, 35%, 35%)" stroke-width="1.0" fill="none"/>
<text x="60.0" y="38.95182584542653" text-anchor="middle" font-family="Verdana" font-size="7.5" fill="rgb(0%, 0%, 0%)" >G</text>
<circle cx="60.0" cy="55.95182584542653" r="5.0" stroke="none" stroke-width="1.0" fill="rgb(94%, 94%, 94%)"/>
<circle cx="60.0" cy="55.95182584542653" r="5.0" stroke="rgb(35%, 35%, 35%)" stroke-width="1.0" fill="none"/>
<text x="60.0" y="58.95182584542653" text-anchor="middle" font-family="Verdana" font-size="7.5" fill="rgb(0%, 0%, 0%)" >A</text>
<circle cx="60.0" cy="75.95182584542653" r="5.0" stroke="none" stroke-width="1.0" fill="rgb(94%, 94%, 94%)"/>
<circle cx="60.0" cy="75.95182584542653" r="5.0" stroke="rgb(35%, 35%, 35%)" stroke-width="1.0" fill="none"/>
<text x="60.0" y="78.95182584542653" text-anchor="middle" font-family="Verdana" font-size="7.5" fill="rgb(0%, 0%, 0%)" >C</text>
<circle cx="60.0" cy="95.95182584542653" r="5.0" stroke="none" stroke-width="1.0" fill="rgb(94%, 94%, 94%)"/>
<circle cx="60.0" cy="95.95182584542653" r="5.0" stroke="rgb(35%, 35%, 35%)" stroke-width="1.0" fill="none"/>
<text x="60.0" y="98.95182584542653" text-anchor="middle" font-family="Verdana" font-size="7.5" fill="rgb(0%, 0%, 0%)" >C</text>
<circle cx="60.0" cy="115.95182584542653" r="5.0" stroke="none" stroke-width="1.0" fill="rgb(94%, 94%, 94%)"/>
<circle cx="60.0" cy="115.95182584542653" r="5.0" stroke="rgb(35%, 35%, 35%)" stroke-width="1.0" fill="none"/>
<text x="60.0" y="118.95182584542653" text-anchor="middle" font-family="Verdana" font-size="7.5" fill="rgb(0%, 0%, 0%)" >G</text>
<circle cx="60.0" cy="135.95182584542653" r="5.0" stroke="none" stroke-width="1.0" fill="rgb(94%, 94%, 94%)"/>
<circle cx="60.0" cy="135.95182584542653" r="5.0" stroke="rgb(35%, 35%, 35%)" stroke-width="1.0" fill="none"/>
<text x="60.0" y="138.95182584542653" text-anchor="middle" font-family="Verdana" font-size="7.5" fill="rgb(0%, 0%, 0%)" >T</text>
<circle cx="60.0" cy="155.95182584542653" r="5.0" stroke="none" stroke-width="1.0" fill="rgb(94%, 94%, 94%)"/>
<circle cx="60.0" cy="155.95182584542653" r="5.0" stroke="rgb(35%, 35%, 35%)" stroke-width="1.0" fill="none"/>
<text x="60.0" y="158.95182584542653" text-anchor="middle" font-family="Verdana" font-size="7.5" fill="rgb(0%, 0%, 0%)" >T</text>
<circle cx="60.0" cy="175.95182584542653" r="5.0" stroke="none" stroke-width="1.0" fill="rgb(94%, 94%, 94%)"/>
<circle cx="60.0" cy="175.95182584542653" r="5.0" stroke="rgb(35%, 35%, 35%)" stroke-width="1.0" fill="none"/>
<text x="60.0" y="178.95182584542653" text-anchor="middle" font-family="Verdana" font-size="7.5" fill="rgb(0%, 0%, 0%)" >A</text>
<circle cx="77.5" cy="175.95182584542653" r="5.0" stroke="none" stroke-width="1.0" fill="rgb(94%, 94%, 94%)"/>
<circle cx="77.5" cy="175.95182584542653" r="5.0" stroke="rgb(35%, 35%, 35%)" stroke-width="1.0" fill="none"/>
<text x="77.5" y="178.95182584542653" text-anchor="middle" font-family="Verdana" font-size="7.5" fill="rgb(0%, 0%, 0%)" >T</text>
<circle cx="95.0" cy="175.95182584542653" r="5.0" stroke="none" stroke-width="1.0" fill="rgb(94%, 94%, 94%)"/>
<circle cx="95.0" cy="175.95182584542653" r="5.0" stroke="rgb(35%, 35%, 35%)" stroke-width="1.0" fill="none"/>
<text x="95.0" y="178.95182584542653" text-anchor="middle" font-family="Verdana" font-size="7.5" fill="rgb(0%, 0%, 0%)" >G</text>
<line x1="10.0" y1="183.45182584542653" x2="10.0" y2="188.45182584542653" stroke="rgb(25%, 25%, 25%)" stroke-width="1.0" />
<text x="10.0" y="198.95182584542653" text-anchor="middle" font-family="Verdana" font-size="7.5" fill="rgb(25%, 25%, 25%)" >1</text>
<line x1="22.083530629616334" y1="14.496783994391109" x2="17.845750290322457" y2="11.843254684981787" stroke="rgb(25%, 25%, 25%)" stroke-width="1.0" />
<text x="11.489079781381644" y="10.862960720867818" text-anchor="middle" font-family="Verdana" font-size="7.5" fill="rgb(25%, 25%, 25%)" >10</text>
<line x1="65.3033008588991" y1="181.25512670432562" x2="68.83883476483184" y2="184.79066061025839" stroke="rgb(25%, 25%, 25%)" stroke-width="1.0" />
<text x="74.14213562373095" y="193.09396146915748" text-anchor="middle" font-family="Verdana" font-size="7.5" fill="rgb(25%, 25%, 25%)" >20</text>
<line x1="95.0" y1="183.45182584542653" x2="95.0" y2="188.45182584542653" stroke="rgb(25%, 25%, 25%)" stroke-width="1.0" />
<text x="95.0" y="198.95182584542653" text-anchor="middle" font-family="Verdana" font-size="7.5" fill="rgb(25%, 25%, 25%)" >22</text>
<text x="52.5" y="217.15182584542652" text-anchor="middle" font-family="Verdana" font-size="18.0" fill="rgb(0%, 0%, 0%)" >zihang_primer2 (E=-6.8 kcal/mol)</text>
</svg>
