<?xml version="1.0" encoding="UTF-8"?>
<!DOCTYPE svg PUBLIC "-//W3C//DTD SVG 1.1//EN" 
"http://www.w3.org/Graphics/SVG/1.1/DTD/svg11.dtd">

<svg width="100%" height="100%" version="1.1"
xmlns="http://www.w3.org/2000/svg">
<line x1="25.0" y1="264.0310204266525" x2="25.0" y2="254.0310204266525" stroke="rgb(35%, 35%, 35%)" stroke-width="1.0" />
<line x1="25.0" y1="244.0310204266525" x2="25.0" y2="234.0310204266525" stroke="rgb(35%, 35%, 35%)" stroke-width="1.0" />
<line x1="25.0" y1="224.0310204266525" x2="25.0" y2="214.0310204266525" stroke="rgb(35%, 35%, 35%)" stroke-width="1.0" />
<line x1="25.0" y1="204.0310204266525" x2="25.0" y2="194.0310204266525" stroke="rgb(35%, 35%, 35%)" stroke-width="1.0" />
<line x1="25.0" y1="184.0310204266525" x2="25.0" y2="174.0310204266525" stroke="rgb(35%, 35%, 35%)" stroke-width="1.0" />
<line x1="25.0" y1="164.0310204266525" x2="25.0" y2="154.0310204266525" stroke="rgb(35%, 35%, 35%)" stroke-width="1.0" />
<line x1="25.0" y1="144.0310204266525" x2="25.0" y2="134.0310204266525" stroke="rgb(35%, 35%, 35%)" stroke-width="1.0" />
<line x1="25.0" y1="124.0310204266525" x2="25.0" y2="114.0310204266525" stroke="rgb(35%, 35%, 35%)" stroke-width="1.0" />
<line x1="25.0" y1="104.0310204266525" x2="25.0" y2="94.0310204266525" stroke="rgb(35%, 35%, 35%)" stroke-width="1.0" />
<line x1="25.0" y1="84.0310204266525" x2="25.0" y2="74.0310204266525" stroke="rgb(35%, 35%, 35%)" stroke-width="1.0" />
<line x1="25.0" y1="64.0310204266525" x2="25.0" y2="54.0310204266525" stroke="rgb(35%, 35%, 35%)" stroke-width="1.0" />
<line x1="23.10052547530273" y1="44.40587215551284" x2="20.251304919879356" y2="37.46812839813754" stroke="rgb(35%, 35%, 35%)" stroke-width="1.0" />
<line x1="20.273604790816673" y1="28.22705300752517" x2="23.156275255586934" y2="21.303141020217197" stroke="rgb(35%, 35%, 35%)" stroke-width="1.0" />
<line x1="29.69860079960264" y1="14.77658387763853" x2="36.629448851618875" y2="11.910630023105966" stroke="rgb(35%, 35%, 35%)" stroke-width="1.0" />
<line x1="45.870551148381125" y1="11.910630023105966" x2="52.80139920039737" y2="14.77658387763853" stroke="rgb(35%, 35%, 35%)" stroke-width="1.0" />
<line x1="59.34372474441308" y1="21.303141020217197" x2="62.22639520918332" y2="28.22705300752517" stroke="rgb(35%, 35%, 35%)" stroke-width="1.0" />
<line x1="62.24869508012064" y1="37.46812839813754" x2="59.39947452469727" y2="44.40587215551284" stroke="rgb(35%, 35%, 35%)" stroke-width="1.0" />
<line x1="57.5" y1="54.0310204266525" x2="57.5" y2="64.0310204266525" stroke="rgb(35%, 35%, 35%)" stroke-width="1.0" />
<line x1="57.5" y1="74.0310204266525" x2="57.5" y2="84.0310204266525" stroke="rgb(35%, 35%, 35%)" stroke-width="1.0" />
<line x1="57.5" y1="94.0310204266525" x2="57.5" y2="104.0310204266525" stroke="rgb(35%, 35%, 35%)" stroke-width="1.0" />
<line x1="57.5" y1="114.0310204266525" x2="57.5" y2="124.0310204266525" stroke="rgb(35%, 35%, 35%)" stroke-width="1.0" />
<line x1="57.5" y1="134.0310204266525" x2="57.5" y2="144.0310204266525" stroke="rgb(35%, 35%, 35%)" stroke-width="1.0" />
<line x1="57.5" y1="154.0310204266525" x2="57.5" y2="164.0310204266525" stroke="rgb(35%, 35%, 35%)" stroke-width="1.0" />
<line x1="57.5" y1="174.0310204266525" x2="57.5" y2="184.0310204266525" stroke="rgb(35%, 35%, 35%)" stroke-width="1.0" />
<line x1="57.5" y1="194.0310204266525" x2="57.5" y2="204.0310204266525" stroke="rgb(35%, 35%, 35%)" stroke-width="1.0" />
<line x1="57.5" y1="214.0310204266525" x2="57.5" y2="224.0310204266525" stroke="rgb(35%, 35%, 35%)" stroke-width="1.0" />
<line x1="57.5" y1="234.0310204266525" x2="57.5" y2="244.0310204266525" stroke="rgb(35%, 35%, 35%)" stroke-width="1.0" />
<line x1="57.5" y1="254.0310204266525" x2="57.5" y2="264.0310204266525" stroke="rgb(35%, 35%, 35%)" stroke-width="1.0" />
<line x1="29.999999999999996" y1="267.7810204266525" x2="52.5" y2="267.7810204266525" stroke="rgb(0%, 0%, 100%)" stroke-width="1.0" />
<line x1="29.999999999999996" y1="270.2810204266525" x2="52.5" y2="270.2810204266525" stroke="rgb(0%, 0%, 100%)" stroke-width="1.0" />
<line x1="29.999999999999996" y1="249.0310204266525" x2="52.5" y2="249.0310204266525" stroke="rgb(0%, 0%, 100%)" stroke-width="1.0" />
<circle cx="41.25" cy="249.0310204266525" r="2.75" stroke="none" stroke-width="1.0" fill="rgb(0%, 0%, 100%)"/>
<line x1="29.999999999999996" y1="229.0310204266525" x2="52.5" y2="229.0310204266525" stroke="rgb(0%, 0%, 100%)" stroke-width="1.0" />
<circle cx="41.25" cy="229.0310204266525" r="2.75" stroke="none" stroke-width="1.0" fill="rgb(0%, 0%, 100%)"/>
<line x1="29.999999999999996" y1="209.0310204266525" x2="52.5" y2="209.0310204266525" stroke="rgb(0%, 0%, 100%)" stroke-width="1.0" />
<circle cx="41.25" cy="209.0310204266525" r="2.75" stroke="none" stroke-width="1.0" fill="rgb(0%, 0%, 100%)"/>
<line x1="29.999999999999996" y1="189.0310204266525" x2="52.5" y2="189.0310204266525" stroke="rgb(0%, 0%, 100%)" stroke-width="1.0" />
<circle cx="41.25" cy="189.0310204266525" r="2.75" stroke="none" stroke-width="1.0" fill="rgb(0%, 0%, 100%)"/>
<line x1="29.999999999999996" y1="169.0310204266525" x2="52.5" y2="169.0310204266525" stroke="rgb(0%, 0%, 100%)" stroke-width="1.0" />
<circle cx="41.25" cy="169.0310204266525" r="2.75" stroke="none" stroke-width="1.0" fill="rgb(0%, 0%, 100%)"/>
<line x1="29.999999999999996" y1="149.0310204266525" x2="52.5" y2="149.0310204266525" stroke="rgb(0%, 0%, 100%)" stroke-width="1.0" />
<circle cx="41.25" cy="149.0310204266525" r="2.75" stroke="none" stroke-width="1.0" fill="rgb(0%, 0%, 100%)"/>
<line x1="29.999999999999996" y1="129.0310204266525" x2="52.5" y2="129.0310204266525" stroke="rgb(0%, 0%, 100%)" stroke-width="1.0" />
<circle cx="41.25" cy="129.0310204266525" r="2.75" stroke="none" stroke-width="1.0" fill="rgb(0%, 0%, 100%)"/>
<line x1="29.999999999999996" y1="109.0310204266525" x2="52.5" y2="109.0310204266525" stroke="rgb(0%, 0%, 100%)" stroke-width="1.0" />
<circle cx="41.25" cy="109.0310204266525" r="2.75" stroke="none" stroke-width="1.0" fill="rgb(0%, 0%, 100%)"/>
<line x1="29.999999999999996" y1="89.0310204266525" x2="52.5" y2="89.0310204266525" stroke="rgb(0%, 0%, 100%)" stroke-width="1.0" />
<circle cx="41.25" cy="89.0310204266525" r="2.75" stroke="none" stroke-width="1.0" fill="rgb(0%, 0%, 100%)"/>
<line x1="29.999999999999996" y1="67.7810204266525" x2="52.5" y2="67.7810204266525" stroke="rgb(0%, 0%, 100%)" stroke-width="1.0" />
<line x1="29.999999999999996" y1="70.2810204266525" x2="52.5" y2="70.2810204266525" stroke="rgb(0%, 0%, 100%)" stroke-width="1.0" />
<line x1="29.999999999999996" y1="47.7810204266525" x2="52.5" y2="47.7810204266525" stroke="rgb(0%, 0%, 100%)" stroke-width="1.0" />
<line x1="29.999999999999996" y1="50.2810204266525" x2="52.5" y2="50.2810204266525" stroke="rgb(0%, 0%, 100%)" stroke-width="1.0" />
<circle cx="25.0" cy="269.0310204266525" r="5.0" stroke="none" stroke-width="1.0" fill="rgb(94%, 94%, 94%)"/>
<circle cx="25.0" cy="269.0310204266525" r="5.0" stroke="rgb(35%, 35%, 35%)" stroke-width="1.0" fill="none"/>
<text x="25.0" y="272.0310204266525" text-anchor="middle" font-family="Verdana" font-size="7.5" fill="rgb(0%, 0%, 0%)" >G</text>
<circle cx="25.0" cy="249.0310204266525" r="5.0" stroke="none" stroke-width="1.0" fill="rgb(94%, 94%, 94%)"/>
<circle cx="25.0" cy="249.0310204266525" r="5.0" stroke="rgb(35%, 35%, 35%)" stroke-width="1.0" fill="none"/>
<text x="25.0" y="252.0310204266525" text-anchor="middle" font-family="Verdana" font-size="7.5" fill="rgb(0%, 0%, 0%)" >T</text>
<circle cx="25.0" cy="229.0310204266525" r="5.0" stroke="none" stroke-width="1.0" fill="rgb(94%, 94%, 94%)"/>
<circle cx="25.0" cy="229.0310204266525" r="5.0" stroke="rgb(35%, 35%, 35%)" stroke-width="1.0" fill="none"/>
<text x="25.0" y="232.0310204266525" text-anchor="middle" font-family="Verdana" font-size="7.5" fill="rgb(0%, 0%, 0%)" >A</text>
<circle cx="25.0" cy="209.0310204266525" r="5.0" stroke="none" stroke-width="1.0" fill="rgb(94%, 94%, 94%)"/>
<circle cx="25.0" cy="209.0310204266525" r="5.0" stroke="rgb(35%, 35%, 35%)" stroke-width="1.0" fill="none"/>
<text x="25.0" y="212.0310204266525" text-anchor="middle" font-family="Verdana" font-size="7.5" fill="rgb(0%, 0%, 0%)" >T</text>
<circle cx="25.0" cy="189.0310204266525" r="5.0" stroke="none" stroke-width="1.0" fill="rgb(94%, 94%, 94%)"/>
<circle cx="25.0" cy="189.0310204266525" r="5.0" stroke="rgb(35%, 35%, 35%)" stroke-width="1.0" fill="none"/>
<text x="25.0" y="192.0310204266525" text-anchor="middle" font-family="Verdana" font-size="7.5" fill="rgb(0%, 0%, 0%)" >A</text>
<circle cx="25.0" cy="169.0310204266525" r="5.0" stroke="none" stroke-width="1.0" fill="rgb(94%, 94%, 94%)"/>
<circle cx="25.0" cy="169.0310204266525" r="5.0" stroke="rgb(35%, 35%, 35%)" stroke-width="1.0" fill="none"/>
<text x="25.0" y="172.0310204266525" text-anchor="middle" font-family="Verdana" font-size="7.5" fill="rgb(0%, 0%, 0%)" >T</text>
<circle cx="25.0" cy="149.0310204266525" r="5.0" stroke="none" stroke-width="1.0" fill="rgb(94%, 94%, 94%)"/>
<circle cx="25.0" cy="149.0310204266525" r="5.0" stroke="rgb(35%, 35%, 35%)" stroke-width="1.0" fill="none"/>
<text x="25.0" y="152.0310204266525" text-anchor="middle" font-family="Verdana" font-size="7.5" fill="rgb(0%, 0%, 0%)" >A</text>
<circle cx="25.0" cy="129.0310204266525" r="5.0" stroke="none" stroke-width="1.0" fill="rgb(94%, 94%, 94%)"/>
<circle cx="25.0" cy="129.0310204266525" r="5.0" stroke="rgb(35%, 35%, 35%)" stroke-width="1.0" fill="none"/>
<text x="25.0" y="132.0310204266525" text-anchor="middle" font-family="Verdana" font-size="7.5" fill="rgb(0%, 0%, 0%)" >A</text>
<circle cx="25.0" cy="109.0310204266525" r="5.0" stroke="none" stroke-width="1.0" fill="rgb(94%, 94%, 94%)"/>
<circle cx="25.0" cy="109.0310204266525" r="5.0" stroke="rgb(35%, 35%, 35%)" stroke-width="1.0" fill="none"/>
<text x="25.0" y="112.0310204266525" text-anchor="middle" font-family="Verdana" font-size="7.5" fill="rgb(0%, 0%, 0%)" >A</text>
<circle cx="25.0" cy="89.0310204266525" r="5.0" stroke="none" stroke-width="1.0" fill="rgb(94%, 94%, 94%)"/>
<circle cx="25.0" cy="89.0310204266525" r="5.0" stroke="rgb(35%, 35%, 35%)" stroke-width="1.0" fill="none"/>
<text x="25.0" y="92.0310204266525" text-anchor="middle" font-family="Verdana" font-size="7.5" fill="rgb(0%, 0%, 0%)" >A</text>
<circle cx="25.0" cy="69.0310204266525" r="5.0" stroke="none" stroke-width="1.0" fill="rgb(94%, 94%, 94%)"/>
<circle cx="25.0" cy="69.0310204266525" r="5.0" stroke="rgb(35%, 35%, 35%)" stroke-width="1.0" fill="none"/>
<text x="25.0" y="72.0310204266525" text-anchor="middle" font-family="Verdana" font-size="7.5" fill="rgb(0%, 0%, 0%)" >C</text>
<circle cx="25.0" cy="49.0310204266525" r="5.0" stroke="none" stroke-width="1.0" fill="rgb(94%, 94%, 94%)"/>
<circle cx="25.0" cy="49.0310204266525" r="5.0" stroke="rgb(35%, 35%, 35%)" stroke-width="1.0" fill="none"/>
<text x="25.0" y="52.0310204266525" text-anchor="middle" font-family="Verdana" font-size="7.5" fill="rgb(0%, 0%, 0%)" >G</text>
<circle cx="18.351830395182088" cy="32.84298012699787" r="5.0" stroke="none" stroke-width="1.0" fill="rgb(94%, 94%, 94%)"/>
<circle cx="18.351830395182088" cy="32.84298012699787" r="5.0" stroke="rgb(35%, 35%, 35%)" stroke-width="1.0" fill="none"/>
<text x="18.351830395182088" y="35.84298012699787" text-anchor="middle" font-family="Verdana" font-size="7.5" fill="rgb(0%, 0%, 0%)" >G</text>
<circle cx="25.07804965122152" cy="16.687213900744496" r="5.0" stroke="none" stroke-width="1.0" fill="rgb(94%, 94%, 94%)"/>
<circle cx="25.07804965122152" cy="16.687213900744496" r="5.0" stroke="rgb(35%, 35%, 35%)" stroke-width="1.0" fill="none"/>
<text x="25.07804965122152" y="19.687213900744496" text-anchor="middle" font-family="Verdana" font-size="7.5" fill="rgb(0%, 0%, 0%)" >G</text>
<circle cx="41.25" cy="10.0" r="5.0" stroke="none" stroke-width="1.0" fill="rgb(94%, 94%, 94%)"/>
<circle cx="41.25" cy="10.0" r="5.0" stroke="rgb(35%, 35%, 35%)" stroke-width="1.0" fill="none"/>
<text x="41.25" y="13.0" text-anchor="middle" font-family="Verdana" font-size="7.5" fill="rgb(0%, 0%, 0%)" >T</text>
<circle cx="57.421950348778495" cy="16.687213900744496" r="5.0" stroke="none" stroke-width="1.0" fill="rgb(94%, 94%, 94%)"/>
<circle cx="57.421950348778495" cy="16.687213900744496" r="5.0" stroke="rgb(35%, 35%, 35%)" stroke-width="1.0" fill="none"/>
<text x="57.421950348778495" y="19.687213900744496" text-anchor="middle" font-family="Verdana" font-size="7.5" fill="rgb(0%, 0%, 0%)" >G</text>
<circle cx="64.14816960481791" cy="32.84298012699787" r="5.0" stroke="none" stroke-width="1.0" fill="rgb(94%, 94%, 94%)"/>
<circle cx="64.14816960481791" cy="32.84298012699787" r="5.0" stroke="rgb(35%, 35%, 35%)" stroke-width="1.0" fill="none"/>
<text x="64.14816960481791" y="35.84298012699787" text-anchor="middle" font-family="Verdana" font-size="7.5" fill="rgb(0%, 0%, 0%)" >G</text>
<circle cx="57.5" cy="49.0310204266525" r="5.0" stroke="none" stroke-width="1.0" fill="rgb(94%, 94%, 94%)"/>
<circle cx="57.5" cy="49.0310204266525" r="5.0" stroke="rgb(35%, 35%, 35%)" stroke-width="1.0" fill="none"/>
<text x="57.5" y="52.0310204266525" text-anchor="middle" font-family="Verdana" font-size="7.5" fill="rgb(0%, 0%, 0%)" >C</text>
<circle cx="57.5" cy="69.0310204266525" r="5.0" stroke="none" stroke-width="1.0" fill="rgb(94%, 94%, 94%)"/>
<circle cx="57.5" cy="69.0310204266525" r="5.0" stroke="rgb(35%, 35%, 35%)" stroke-width="1.0" fill="none"/>
<text x="57.5" y="72.0310204266525" text-anchor="middle" font-family="Verdana" font-size="7.5" fill="rgb(0%, 0%, 0%)" >G</text>
<circle cx="57.5" cy="89.0310204266525" r="5.0" stroke="none" stroke-width="1.0" fill="rgb(94%, 94%, 94%)"/>
<circle cx="57.5" cy="89.0310204266525" r="5.0" stroke="rgb(35%, 35%, 35%)" stroke-width="1.0" fill="none"/>
<text x="57.5" y="92.0310204266525" text-anchor="middle" font-family="Verdana" font-size="7.5" fill="rgb(0%, 0%, 0%)" >T</text>
<circle cx="57.5" cy="109.0310204266525" r="5.0" stroke="none" stroke-width="1.0" fill="rgb(94%, 94%, 94%)"/>
<circle cx="57.5" cy="109.0310204266525" r="5.0" stroke="rgb(35%, 35%, 35%)" stroke-width="1.0" fill="none"/>
<text x="57.5" y="112.0310204266525" text-anchor="middle" font-family="Verdana" font-size="7.5" fill="rgb(0%, 0%, 0%)" >T</text>
<circle cx="57.5" cy="129.0310204266525" r="5.0" stroke="none" stroke-width="1.0" fill="rgb(94%, 94%, 94%)"/>
<circle cx="57.5" cy="129.0310204266525" r="5.0" stroke="rgb(35%, 35%, 35%)" stroke-width="1.0" fill="none"/>
<text x="57.5" y="132.0310204266525" text-anchor="middle" font-family="Verdana" font-size="7.5" fill="rgb(0%, 0%, 0%)" >T</text>
<circle cx="57.5" cy="149.0310204266525" r="5.0" stroke="none" stroke-width="1.0" fill="rgb(94%, 94%, 94%)"/>
<circle cx="57.5" cy="149.0310204266525" r="5.0" stroke="rgb(35%, 35%, 35%)" stroke-width="1.0" fill="none"/>
<text x="57.5" y="152.0310204266525" text-anchor="middle" font-family="Verdana" font-size="7.5" fill="rgb(0%, 0%, 0%)" >T</text>
<circle cx="57.5" cy="169.0310204266525" r="5.0" stroke="none" stroke-width="1.0" fill="rgb(94%, 94%, 94%)"/>
<circle cx="57.5" cy="169.0310204266525" r="5.0" stroke="rgb(35%, 35%, 35%)" stroke-width="1.0" fill="none"/>
<text x="57.5" y="172.0310204266525" text-anchor="middle" font-family="Verdana" font-size="7.5" fill="rgb(0%, 0%, 0%)" >A</text>
<circle cx="57.5" cy="189.0310204266525" r="5.0" stroke="none" stroke-width="1.0" fill="rgb(94%, 94%, 94%)"/>
<circle cx="57.5" cy="189.0310204266525" r="5.0" stroke="rgb(35%, 35%, 35%)" stroke-width="1.0" fill="none"/>
<text x="57.5" y="192.0310204266525" text-anchor="middle" font-family="Verdana" font-size="7.5" fill="rgb(0%, 0%, 0%)" >T</text>
<circle cx="57.5" cy="209.0310204266525" r="5.0" stroke="none" stroke-width="1.0" fill="rgb(94%, 94%, 94%)"/>
<circle cx="57.5" cy="209.0310204266525" r="5.0" stroke="rgb(35%, 35%, 35%)" stroke-width="1.0" fill="none"/>
<text x="57.5" y="212.0310204266525" text-anchor="middle" font-family="Verdana" font-size="7.5" fill="rgb(0%, 0%, 0%)" >A</text>
<circle cx="57.5" cy="229.0310204266525" r="5.0" stroke="none" stroke-width="1.0" fill="rgb(94%, 94%, 94%)"/>
<circle cx="57.5" cy="229.0310204266525" r="5.0" stroke="rgb(35%, 35%, 35%)" stroke-width="1.0" fill="none"/>
<text x="57.5" y="232.0310204266525" text-anchor="middle" font-family="Verdana" font-size="7.5" fill="rgb(0%, 0%, 0%)" >T</text>
<circle cx="57.5" cy="249.0310204266525" r="5.0" stroke="none" stroke-width="1.0" fill="rgb(94%, 94%, 94%)"/>
<circle cx="57.5" cy="249.0310204266525" r="5.0" stroke="rgb(35%, 35%, 35%)" stroke-width="1.0" fill="none"/>
<text x="57.5" y="252.0310204266525" text-anchor="middle" font-family="Verdana" font-size="7.5" fill="rgb(0%, 0%, 0%)" >A</text>
<circle cx="57.5" cy="269.0310204266525" r="5.0" stroke="none" stroke-width="1.0" fill="rgb(94%, 94%, 94%)"/>
<circle cx="57.5" cy="269.0310204266525" r="5.0" stroke="rgb(35%, 35%, 35%)" stroke-width="1.0" fill="none"/>
<text x="57.5" y="272.0310204266525" text-anchor="middle" font-family="Verdana" font-size="7.5" fill="rgb(0%, 0%, 0%)" >C</text>
<line x1="25.0" y1="276.5310204266525" x2="25.0" y2="281.5310204266525" stroke="rgb(25%, 25%, 25%)" stroke-width="1.0" />
<text x="24.999999999999996" y="292.0310204266525" text-anchor="middle" font-family="Verdana" font-size="7.5" fill="rgb(25%, 25%, 25%)" >1</text>
<line x1="17.5" y1="89.0310204266525" x2="12.5" y2="89.0310204266525" stroke="rgb(25%, 25%, 25%)" stroke-width="1.0" />
<text x="5.0" y="92.0310204266525" text-anchor="middle" font-family="Verdana" font-size="7.5" fill="rgb(25%, 25%, 25%)" >10</text>
<line x1="65.0" y1="89.0310204266525" x2="70.0" y2="89.0310204266525" stroke="rgb(25%, 25%, 25%)" stroke-width="1.0" />
<text x="77.5" y="92.0310204266525" text-anchor="middle" font-family="Verdana" font-size="7.5" fill="rgb(25%, 25%, 25%)" >20</text>
<line x1="57.5" y1="276.5310204266525" x2="57.5" y2="281.5310204266525" stroke="rgb(25%, 25%, 25%)" stroke-width="1.0" />
<text x="57.5" y="292.0310204266525" text-anchor="middle" font-family="Verdana" font-size="7.5" fill="rgb(25%, 25%, 25%)" >29</text>
<text x="41.25" y="310.2310204266525" text-anchor="middle" font-family="Verdana" font-size="18.0" fill="rgb(0%, 0%, 0%)" >1YTB (E=-9.1 kcal/mol)</text>
</svg>
