<?xml version="1.0" encoding="UTF-8"?>
<!DOCTYPE svg PUBLIC "-//W3C//DTD SVG 1.1//EN" 
"http://www.w3.org/Graphics/SVG/1.1/DTD/svg11.dtd">

<svg width="100%" height="100%" version="1.1"
xmlns="http://www.w3.org/2000/svg">
<line x1="15.0" y1="170.95182584542653" x2="22.5" y2="170.95182584542653" stroke="rgb(35%, 35%, 35%)" stroke-width="1.0" />
<line x1="27.5" y1="165.95182584542653" x2="27.5" y2="155.95182584542653" stroke="rgb(35%, 35%, 35%)" stroke-width="1.0" />
<line x1="27.5" y1="145.95182584542653" x2="27.5" y2="135.95182584542653" stroke="rgb(35%, 35%, 35%)" stroke-width="1.0" />
<line x1="27.5" y1="125.95182584542654" x2="27.5" y2="115.95182584542654" stroke="rgb(35%, 35%, 35%)" stroke-width="1.0" />
<line x1="27.5" y1="105.95182584542654" x2="27.5" y2="95.95182584542654" stroke="rgb(35%, 35%, 35%)" stroke-width="1.0" />
<line x1="27.5" y1="85.95182584542654" x2="27.5" y2="75.95182584542655" stroke="rgb(35%, 35%, 35%)" stroke-width="1.0" />
<line x1="27.5" y1="65.95182584542653" x2="27.5" y2="55.95182584542653" stroke="rgb(35%, 35%, 35%)" stroke-width="1.0" />
<line x1="27.76862854942486" y1="45.95904718996482" x2="28.171572589132282" y2="38.46985661396681" stroke="rgb(35%, 35%, 35%)" stroke-width="1.0" />
<line x1="32.81442372931807" y1="31.05505881603807" x2="39.37577740923907" y2="27.422019142467036" stroke="rgb(35%, 35%, 35%)" stroke-width="1.0" />
<line x1="48.12422259076093" y1="27.422019142467036" x2="54.685576270681935" y2="31.05505881603807" stroke="rgb(35%, 35%, 35%)" stroke-width="1.0" />
<line x1="59.32842741086772" y1="38.46985661396681" x2="59.73137145057514" y2="45.95904718996482" stroke="rgb(35%, 35%, 35%)" stroke-width="1.0" />
<line x1="60.0" y1="55.95182584542653" x2="60.0" y2="65.95182584542653" stroke="rgb(35%, 35%, 35%)" stroke-width="1.0" />
<line x1="60.0" y1="75.95182584542655" x2="60.0" y2="85.95182584542654" stroke="rgb(35%, 35%, 35%)" stroke-width="1.0" />
<line x1="60.0" y1="95.95182584542654" x2="60.0" y2="105.95182584542654" stroke="rgb(35%, 35%, 35%)" stroke-width="1.0" />
<line x1="60.0" y1="115.95182584542654" x2="60.0" y2="125.95182584542654" stroke="rgb(35%, 35%, 35%)" stroke-width="1.0" />
<line x1="60.0" y1="135.95182584542653" x2="60.0" y2="145.95182584542653" stroke="rgb(35%, 35%, 35%)" stroke-width="1.0" />
<line x1="60.0" y1="155.95182584542653" x2="60.0" y2="165.95182584542653" stroke="rgb(35%, 35%, 35%)" stroke-width="1.0" />
<line x1="65.0" y1="170.95182584542653" x2="72.5" y2="170.95182584542653" stroke="rgb(35%, 35%, 35%)" stroke-width="1.0" />
<line x1="82.5" y1="170.95182584542653" x2="90.0" y2="170.95182584542653" stroke="rgb(35%, 35%, 35%)" stroke-width="1.0" />
<line x1="100.0" y1="170.95182584542653" x2="107.5" y2="170.95182584542653" stroke="rgb(35%, 35%, 35%)" stroke-width="1.0" />
<line x1="117.5" y1="170.95182584542653" x2="125.0" y2="170.95182584542655" stroke="rgb(35%, 35%, 35%)" stroke-width="1.0" />
<line x1="135.0" y1="170.95182584542655" x2="142.5" y2="170.95182584542655" stroke="rgb(35%, 35%, 35%)" stroke-width="1.0" />
<line x1="152.5" y1="170.95182584542655" x2="160.0" y2="170.95182584542655" stroke="rgb(35%, 35%, 35%)" stroke-width="1.0" />
<line x1="170.0" y1="170.95182584542655" x2="177.5" y2="170.95182584542655" stroke="rgb(35%, 35%, 35%)" stroke-width="1.0" />
<line x1="187.5" y1="170.95182584542655" x2="195.0" y2="170.95182584542655" stroke="rgb(35%, 35%, 35%)" stroke-width="1.0" />
<line x1="205.0" y1="170.95182584542655" x2="212.5" y2="170.95182584542655" stroke="rgb(35%, 35%, 35%)" stroke-width="1.0" />
<line x1="222.5" y1="170.95182584542655" x2="230.0" y2="170.95182584542655" stroke="rgb(35%, 35%, 35%)" stroke-width="1.0" />
<line x1="32.5" y1="169.70182584542653" x2="55.0" y2="169.70182584542653" stroke="rgb(0%, 0%, 100%)" stroke-width="1.0" />
<line x1="32.5" y1="172.20182584542653" x2="55.0" y2="172.20182584542653" stroke="rgb(0%, 0%, 100%)" stroke-width="1.0" />
<line x1="32.5" y1="149.70182584542653" x2="55.0" y2="149.70182584542653" stroke="rgb(0%, 0%, 100%)" stroke-width="1.0" />
<line x1="32.5" y1="152.20182584542653" x2="55.0" y2="152.20182584542653" stroke="rgb(0%, 0%, 100%)" stroke-width="1.0" />
<line x1="32.5" y1="129.70182584542653" x2="55.0" y2="129.70182584542653" stroke="rgb(0%, 0%, 100%)" stroke-width="1.0" />
<line x1="32.5" y1="132.20182584542653" x2="55.0" y2="132.20182584542653" stroke="rgb(0%, 0%, 100%)" stroke-width="1.0" />
<line x1="32.5" y1="110.95182584542654" x2="55.0" y2="110.95182584542654" stroke="rgb(0%, 0%, 100%)" stroke-width="1.0" />
<circle cx="43.75" cy="110.95182584542654" r="2.75" stroke="none" stroke-width="1.0" fill="rgb(0%, 0%, 100%)"/>
<line x1="32.5" y1="90.95182584542654" x2="55.0" y2="90.95182584542654" stroke="rgb(0%, 0%, 100%)" stroke-width="1.0" />
<circle cx="43.75" cy="90.95182584542654" r="2.75" stroke="none" stroke-width="1.0" fill="rgb(0%, 0%, 100%)"/>
<line x1="32.5" y1="69.70182584542655" x2="55.0" y2="69.70182584542655" stroke="rgb(0%, 0%, 100%)" stroke-width="1.0" />
<line x1="32.5" y1="72.20182584542655" x2="55.0" y2="72.20182584542655" stroke="rgb(0%, 0%, 100%)" stroke-width="1.0" />
<line x1="32.5" y1="49.70182584542653" x2="55.0" y2="49.70182584542653" stroke="rgb(0%, 0%, 100%)" stroke-width="1.0" />
<line x1="32.5" y1="52.20182584542653" x2="55.0" y2="52.20182584542653" stroke="rgb(0%, 0%, 100%)" stroke-width="1.0" />
<circle cx="10.0" cy="170.95182584542653" r="5.0" stroke="none" stroke-width="1.0" fill="rgb(94%, 94%, 94%)"/>
<circle cx="10.0" cy="170.95182584542653" r="5.0" stroke="rgb(35%, 35%, 35%)" stroke-width="1.0" fill="none"/>
<text x="10.0" y="173.95182584542653" text-anchor="middle" font-family="Verdana" font-size="7.5" fill="rgb(0%, 0%, 0%)" >C</text>
<circle cx="27.5" cy="170.95182584542653" r="5.0" stroke="none" stroke-width="1.0" fill="rgb(94%, 94%, 94%)"/>
<circle cx="27.5" cy="170.95182584542653" r="5.0" stroke="rgb(35%, 35%, 35%)" stroke-width="1.0" fill="none"/>
<text x="27.5" y="173.95182584542653" text-anchor="middle" font-family="Verdana" font-size="7.5" fill="rgb(0%, 0%, 0%)" >G</text>
<circle cx="27.5" cy="150.95182584542653" r="5.0" stroke="none" stroke-width="1.0" fill="rgb(94%, 94%, 94%)"/>
<circle cx="27.5" cy="150.95182584542653" r="5.0" stroke="rgb(35%, 35%, 35%)" stroke-width="1.0" fill="none"/>
<text x="27.5" y="153.95182584542653" text-anchor="middle" font-family="Verdana" font-size="7.5" fill="rgb(0%, 0%, 0%)" >C</text>
<circle cx="27.5" cy="130.95182584542653" r="5.0" stroke="none" stroke-width="1.0" fill="rgb(94%, 94%, 94%)"/>
<circle cx="27.5" cy="130.95182584542653" r="5.0" stroke="rgb(35%, 35%, 35%)" stroke-width="1.0" fill="none"/>
<text x="27.5" y="133.95182584542653" text-anchor="middle" font-family="Verdana" font-size="7.5" fill="rgb(0%, 0%, 0%)" >G</text>
<circle cx="27.5" cy="110.95182584542654" r="5.0" stroke="none" stroke-width="1.0" fill="rgb(94%, 94%, 94%)"/>
<circle cx="27.5" cy="110.95182584542654" r="5.0" stroke="rgb(35%, 35%, 35%)" stroke-width="1.0" fill="none"/>
<text x="27.5" y="113.95182584542654" text-anchor="middle" font-family="Verdana" font-size="7.5" fill="rgb(0%, 0%, 0%)" >A</text>
<circle cx="27.5" cy="90.95182584542654" r="5.0" stroke="none" stroke-width="1.0" fill="rgb(94%, 94%, 94%)"/>
<circle cx="27.5" cy="90.95182584542654" r="5.0" stroke="rgb(35%, 35%, 35%)" stroke-width="1.0" fill="none"/>
<text x="27.5" y="93.95182584542654" text-anchor="middle" font-family="Verdana" font-size="7.5" fill="rgb(0%, 0%, 0%)" >A</text>
<circle cx="27.5" cy="70.95182584542655" r="5.0" stroke="none" stroke-width="1.0" fill="rgb(94%, 94%, 94%)"/>
<circle cx="27.5" cy="70.95182584542655" r="5.0" stroke="rgb(35%, 35%, 35%)" stroke-width="1.0" fill="none"/>
<text x="27.5" y="73.95182584542655" text-anchor="middle" font-family="Verdana" font-size="7.5" fill="rgb(0%, 0%, 0%)" >C</text>
<circle cx="27.5" cy="50.95182584542653" r="5.0" stroke="none" stroke-width="1.0" fill="rgb(94%, 94%, 94%)"/>
<circle cx="27.5" cy="50.95182584542653" r="5.0" stroke="rgb(35%, 35%, 35%)" stroke-width="1.0" fill="none"/>
<text x="27.5" y="53.95182584542653" text-anchor="middle" font-family="Verdana" font-size="7.5" fill="rgb(0%, 0%, 0%)" >G</text>
<circle cx="28.440201138557143" cy="33.477077958505106" r="5.0" stroke="none" stroke-width="1.0" fill="rgb(94%, 94%, 94%)"/>
<circle cx="28.440201138557143" cy="33.477077958505106" r="5.0" stroke="rgb(35%, 35%, 35%)" stroke-width="1.0" fill="none"/>
<text x="28.440201138557143" y="36.477077958505106" text-anchor="middle" font-family="Verdana" font-size="7.5" fill="rgb(0%, 0%, 0%)" >G</text>
<circle cx="43.75" cy="25.0" r="5.0" stroke="none" stroke-width="1.0" fill="rgb(94%, 94%, 94%)"/>
<circle cx="43.75" cy="25.0" r="5.0" stroke="rgb(35%, 35%, 35%)" stroke-width="1.0" fill="none"/>
<text x="43.75" y="28.0" text-anchor="middle" font-family="Verdana" font-size="7.5" fill="rgb(0%, 0%, 0%)" >A</text>
<circle cx="59.05979886144286" cy="33.477077958505106" r="5.0" stroke="none" stroke-width="1.0" fill="rgb(94%, 94%, 94%)"/>
<circle cx="59.05979886144286" cy="33.477077958505106" r="5.0" stroke="rgb(35%, 35%, 35%)" stroke-width="1.0" fill="none"/>
<text x="59.05979886144286" y="36.477077958505106" text-anchor="middle" font-family="Verdana" font-size="7.5" fill="rgb(0%, 0%, 0%)" >A</text>
<circle cx="60.0" cy="50.95182584542653" r="5.0" stroke="none" stroke-width="1.0" fill="rgb(94%, 94%, 94%)"/>
<circle cx="60.0" cy="50.95182584542653" r="5.0" stroke="rgb(35%, 35%, 35%)" stroke-width="1.0" fill="none"/>
<text x="60.0" y="53.95182584542653" text-anchor="middle" font-family="Verdana" font-size="7.5" fill="rgb(0%, 0%, 0%)" >C</text>
<circle cx="60.0" cy="70.95182584542655" r="5.0" stroke="none" stroke-width="1.0" fill="rgb(94%, 94%, 94%)"/>
<circle cx="60.0" cy="70.95182584542655" r="5.0" stroke="rgb(35%, 35%, 35%)" stroke-width="1.0" fill="none"/>
<text x="60.0" y="73.95182584542655" text-anchor="middle" font-family="Verdana" font-size="7.5" fill="rgb(0%, 0%, 0%)" >G</text>
<circle cx="60.0" cy="90.95182584542654" r="5.0" stroke="none" stroke-width="1.0" fill="rgb(94%, 94%, 94%)"/>
<circle cx="60.0" cy="90.95182584542654" r="5.0" stroke="rgb(35%, 35%, 35%)" stroke-width="1.0" fill="none"/>
<text x="60.0" y="93.95182584542654" text-anchor="middle" font-family="Verdana" font-size="7.5" fill="rgb(0%, 0%, 0%)" >T</text>
<circle cx="60.0" cy="110.95182584542654" r="5.0" stroke="none" stroke-width="1.0" fill="rgb(94%, 94%, 94%)"/>
<circle cx="60.0" cy="110.95182584542654" r="5.0" stroke="rgb(35%, 35%, 35%)" stroke-width="1.0" fill="none"/>
<text x="60.0" y="113.95182584542654" text-anchor="middle" font-family="Verdana" font-size="7.5" fill="rgb(0%, 0%, 0%)" >T</text>
<circle cx="60.0" cy="130.95182584542653" r="5.0" stroke="none" stroke-width="1.0" fill="rgb(94%, 94%, 94%)"/>
<circle cx="60.0" cy="130.95182584542653" r="5.0" stroke="rgb(35%, 35%, 35%)" stroke-width="1.0" fill="none"/>
<text x="60.0" y="133.95182584542653" text-anchor="middle" font-family="Verdana" font-size="7.5" fill="rgb(0%, 0%, 0%)" >C</text>
<circle cx="60.0" cy="150.95182584542653" r="5.0" stroke="none" stroke-width="1.0" fill="rgb(94%, 94%, 94%)"/>
<circle cx="60.0" cy="150.95182584542653" r="5.0" stroke="rgb(35%, 35%, 35%)" stroke-width="1.0" fill="none"/>
<text x="60.0" y="153.95182584542653" text-anchor="middle" font-family="Verdana" font-size="7.5" fill="rgb(0%, 0%, 0%)" >G</text>
<circle cx="60.0" cy="170.95182584542653" r="5.0" stroke="none" stroke-width="1.0" fill="rgb(94%, 94%, 94%)"/>
<circle cx="60.0" cy="170.95182584542653" r="5.0" stroke="rgb(35%, 35%, 35%)" stroke-width="1.0" fill="none"/>
<text x="60.0" y="173.95182584542653" text-anchor="middle" font-family="Verdana" font-size="7.5" fill="rgb(0%, 0%, 0%)" >C</text>
<circle cx="77.5" cy="170.95182584542653" r="5.0" stroke="none" stroke-width="1.0" fill="rgb(94%, 94%, 94%)"/>
<circle cx="77.5" cy="170.95182584542653" r="5.0" stroke="rgb(35%, 35%, 35%)" stroke-width="1.0" fill="none"/>
<text x="77.5" y="173.95182584542653" text-anchor="middle" font-family="Verdana" font-size="7.5" fill="rgb(0%, 0%, 0%)" >A</text>
<circle cx="95.0" cy="170.95182584542653" r="5.0" stroke="none" stroke-width="1.0" fill="rgb(94%, 94%, 94%)"/>
<circle cx="95.0" cy="170.95182584542653" r="5.0" stroke="rgb(35%, 35%, 35%)" stroke-width="1.0" fill="none"/>
<text x="95.0" y="173.95182584542653" text-anchor="middle" font-family="Verdana" font-size="7.5" fill="rgb(0%, 0%, 0%)" >T</text>
<circle cx="112.5" cy="170.95182584542653" r="5.0" stroke="none" stroke-width="1.0" fill="rgb(94%, 94%, 94%)"/>
<circle cx="112.5" cy="170.95182584542653" r="5.0" stroke="rgb(35%, 35%, 35%)" stroke-width="1.0" fill="none"/>
<text x="112.5" y="173.95182584542653" text-anchor="middle" font-family="Verdana" font-size="7.5" fill="rgb(0%, 0%, 0%)" >A</text>
<circle cx="130.0" cy="170.95182584542655" r="5.0" stroke="none" stroke-width="1.0" fill="rgb(94%, 94%, 94%)"/>
<circle cx="130.0" cy="170.95182584542655" r="5.0" stroke="rgb(35%, 35%, 35%)" stroke-width="1.0" fill="none"/>
<text x="130.0" y="173.95182584542655" text-anchor="middle" font-family="Verdana" font-size="7.5" fill="rgb(0%, 0%, 0%)" >A</text>
<circle cx="147.5" cy="170.95182584542655" r="5.0" stroke="none" stroke-width="1.0" fill="rgb(94%, 94%, 94%)"/>
<circle cx="147.5" cy="170.95182584542655" r="5.0" stroke="rgb(35%, 35%, 35%)" stroke-width="1.0" fill="none"/>
<text x="147.5" y="173.95182584542655" text-anchor="middle" font-family="Verdana" font-size="7.5" fill="rgb(0%, 0%, 0%)" >G</text>
<circle cx="165.0" cy="170.95182584542655" r="5.0" stroke="none" stroke-width="1.0" fill="rgb(94%, 94%, 94%)"/>
<circle cx="165.0" cy="170.95182584542655" r="5.0" stroke="rgb(35%, 35%, 35%)" stroke-width="1.0" fill="none"/>
<text x="165.0" y="173.95182584542655" text-anchor="middle" font-family="Verdana" font-size="7.5" fill="rgb(0%, 0%, 0%)" >T</text>
<circle cx="182.5" cy="170.95182584542655" r="5.0" stroke="none" stroke-width="1.0" fill="rgb(94%, 94%, 94%)"/>
<circle cx="182.5" cy="170.95182584542655" r="5.0" stroke="rgb(35%, 35%, 35%)" stroke-width="1.0" fill="none"/>
<text x="182.5" y="173.95182584542655" text-anchor="middle" font-family="Verdana" font-size="7.5" fill="rgb(0%, 0%, 0%)" >G</text>
<circle cx="200.0" cy="170.95182584542655" r="5.0" stroke="none" stroke-width="1.0" fill="rgb(94%, 94%, 94%)"/>
<circle cx="200.0" cy="170.95182584542655" r="5.0" stroke="rgb(35%, 35%, 35%)" stroke-width="1.0" fill="none"/>
<text x="200.0" y="173.95182584542655" text-anchor="middle" font-family="Verdana" font-size="7.5" fill="rgb(0%, 0%, 0%)" >C</text>
<circle cx="217.5" cy="170.95182584542655" r="5.0" stroke="none" stroke-width="1.0" fill="rgb(94%, 94%, 94%)"/>
<circle cx="217.5" cy="170.95182584542655" r="5.0" stroke="rgb(35%, 35%, 35%)" stroke-width="1.0" fill="none"/>
<text x="217.5" y="173.95182584542655" text-anchor="middle" font-family="Verdana" font-size="7.5" fill="rgb(0%, 0%, 0%)" >G</text>
<circle cx="235.0" cy="170.95182584542655" r="5.0" stroke="none" stroke-width="1.0" fill="rgb(94%, 94%, 94%)"/>
<circle cx="235.0" cy="170.95182584542655" r="5.0" stroke="rgb(35%, 35%, 35%)" stroke-width="1.0" fill="none"/>
<text x="235.0" y="173.95182584542655" text-anchor="middle" font-family="Verdana" font-size="7.5" fill="rgb(0%, 0%, 0%)" >C</text>
<line x1="10.0" y1="178.45182584542653" x2="10.0" y2="183.45182584542653" stroke="rgb(25%, 25%, 25%)" stroke-width="1.0" />
<text x="10.0" y="193.95182584542653" text-anchor="middle" font-family="Verdana" font-size="7.5" fill="rgb(25%, 25%, 25%)" >1</text>
<line x1="43.75" y1="17.5" x2="43.75" y2="12.5" stroke="rgb(25%, 25%, 25%)" stroke-width="1.0" />
<text x="43.75" y="8.0" text-anchor="middle" font-family="Verdana" font-size="7.5" fill="rgb(25%, 25%, 25%)" >10</text>
<line x1="95.0" y1="178.45182584542653" x2="95.0" y2="183.45182584542653" stroke="rgb(25%, 25%, 25%)" stroke-width="1.0" />
<text x="95.0" y="193.95182584542653" text-anchor="middle" font-family="Verdana" font-size="7.5" fill="rgb(25%, 25%, 25%)" >20</text>
<line x1="235.0" y1="178.45182584542655" x2="235.0" y2="183.45182584542655" stroke="rgb(25%, 25%, 25%)" stroke-width="1.0" />
<text x="235.0" y="193.95182584542655" text-anchor="middle" font-family="Verdana" font-size="7.5" fill="rgb(25%, 25%, 25%)" >28</text>
<text x="122.5" y="212.15182584542654" text-anchor="middle" font-family="Verdana" font-size="18.0" fill="rgb(0%, 0%, 0%)" >4HT4 (E=-8.0 kcal/mol)</text>
</svg>
