<?xml version="1.0" encoding="UTF-8"?>
<!DOCTYPE svg PUBLIC "-//W3C//DTD SVG 1.1//EN" 
"http://www.w3.org/Graphics/SVG/1.1/DTD/svg11.dtd">

<svg width="100%" height="100%" version="1.1"
xmlns="http://www.w3.org/2000/svg">
<line x1="10.0" y1="185.95182584542653" x2="10.0" y2="175.95182584542653" stroke="rgb(35%, 35%, 35%)" stroke-width="1.0" />
<line x1="10.0" y1="165.95182584542653" x2="10.0" y2="155.95182584542653" stroke="rgb(35%, 35%, 35%)" stroke-width="1.0" />
<line x1="10.0" y1="145.95182584542653" x2="10.0" y2="135.95182584542653" stroke="rgb(35%, 35%, 35%)" stroke-width="1.0" />
<line x1="10.0" y1="125.95182584542653" x2="10.0" y2="115.95182584542653" stroke="rgb(35%, 35%, 35%)" stroke-width="1.0" />
<line x1="10.0" y1="105.95182584542653" x2="10.0" y2="95.95182584542653" stroke="rgb(35%, 35%, 35%)" stroke-width="1.0" />
<line x1="10.0" y1="85.95182584542653" x2="10.0" y2="75.95182584542653" stroke="rgb(35%, 35%, 35%)" stroke-width="1.0" />
<line x1="10.0" y1="65.95182584542653" x2="10.0" y2="55.95182584542653" stroke="rgb(35%, 35%, 35%)" stroke-width="1.0" />
<line x1="10.26862854942486" y1="45.95904718996482" x2="10.671572589132278" y2="38.46985661396678" stroke="rgb(35%, 35%, 35%)" stroke-width="1.0" />
<line x1="15.314423729318072" y1="31.05505881603804" x2="21.875777409239063" y2="27.422019142467036" stroke="rgb(35%, 35%, 35%)" stroke-width="1.0" />
<line x1="30.624222590760937" y1="27.422019142467036" x2="37.185576270681935" y2="31.05505881603804" stroke="rgb(35%, 35%, 35%)" stroke-width="1.0" />
<line x1="41.828427410867725" y1="38.46985661396678" x2="42.23137145057514" y2="45.95904718996482" stroke="rgb(35%, 35%, 35%)" stroke-width="1.0" />
<line x1="42.5" y1="55.95182584542653" x2="42.5" y2="65.95182584542653" stroke="rgb(35%, 35%, 35%)" stroke-width="1.0" />
<line x1="42.5" y1="75.95182584542653" x2="42.5" y2="85.95182584542653" stroke="rgb(35%, 35%, 35%)" stroke-width="1.0" />
<line x1="42.5" y1="95.95182584542653" x2="42.5" y2="105.95182584542653" stroke="rgb(35%, 35%, 35%)" stroke-width="1.0" />
<line x1="42.5" y1="115.95182584542653" x2="42.5" y2="125.95182584542653" stroke="rgb(35%, 35%, 35%)" stroke-width="1.0" />
<line x1="42.5" y1="135.95182584542653" x2="42.5" y2="145.95182584542653" stroke="rgb(35%, 35%, 35%)" stroke-width="1.0" />
<line x1="42.5" y1="155.95182584542653" x2="42.5" y2="165.95182584542653" stroke="rgb(35%, 35%, 35%)" stroke-width="1.0" />
<line x1="42.5" y1="175.95182584542653" x2="42.5" y2="185.95182584542653" stroke="rgb(35%, 35%, 35%)" stroke-width="1.0" />
<line x1="15.0" y1="189.70182584542653" x2="37.5" y2="189.70182584542653" stroke="rgb(0%, 0%, 100%)" stroke-width="1.0" />
<line x1="15.0" y1="192.20182584542653" x2="37.5" y2="192.20182584542653" stroke="rgb(0%, 0%, 100%)" stroke-width="1.0" />
<line x1="15.0" y1="169.70182584542653" x2="37.5" y2="169.70182584542653" stroke="rgb(0%, 0%, 100%)" stroke-width="1.0" />
<line x1="15.0" y1="172.20182584542653" x2="37.5" y2="172.20182584542653" stroke="rgb(0%, 0%, 100%)" stroke-width="1.0" />
<line x1="15.0" y1="149.70182584542653" x2="37.5" y2="149.70182584542653" stroke="rgb(0%, 0%, 100%)" stroke-width="1.0" />
<line x1="15.0" y1="152.20182584542653" x2="37.5" y2="152.20182584542653" stroke="rgb(0%, 0%, 100%)" stroke-width="1.0" />
<line x1="15.0" y1="129.70182584542653" x2="37.5" y2="129.70182584542653" stroke="rgb(0%, 0%, 100%)" stroke-width="1.0" />
<line x1="15.0" y1="132.20182584542653" x2="37.5" y2="132.20182584542653" stroke="rgb(0%, 0%, 100%)" stroke-width="1.0" />
<line x1="15.0" y1="109.70182584542653" x2="37.5" y2="109.70182584542653" stroke="rgb(0%, 0%, 100%)" stroke-width="1.0" />
<line x1="15.0" y1="112.20182584542653" x2="37.5" y2="112.20182584542653" stroke="rgb(0%, 0%, 100%)" stroke-width="1.0" />
<line x1="15.0" y1="90.95182584542653" x2="37.5" y2="90.95182584542653" stroke="rgb(0%, 0%, 100%)" stroke-width="1.0" />
<circle cx="26.25" cy="90.95182584542653" r="2.75" stroke="none" stroke-width="1.0" fill="rgb(0%, 0%, 100%)"/>
<line x1="15.0" y1="70.95182584542653" x2="37.5" y2="70.95182584542653" stroke="rgb(0%, 0%, 100%)" stroke-width="1.0" />
<circle cx="26.25" cy="70.95182584542653" r="2.75" stroke="none" stroke-width="1.0" fill="rgb(0%, 0%, 100%)"/>
<line x1="15.0" y1="50.95182584542653" x2="37.5" y2="50.95182584542653" stroke="rgb(0%, 0%, 100%)" stroke-width="1.0" />
<circle cx="26.25" cy="50.95182584542653" r="2.75" stroke="none" stroke-width="1.0" fill="rgb(0%, 0%, 100%)"/>
<circle cx="10.0" cy="190.95182584542653" r="5.0" stroke="none" stroke-width="1.0" fill="rgb(94%, 94%, 94%)"/>
<circle cx="10.0" cy="190.95182584542653" r="5.0" stroke="rgb(35%, 35%, 35%)" stroke-width="1.0" fill="none"/>
<text x="10.0" y="193.95182584542653" text-anchor="middle" font-family="Verdana" font-size="7.5" fill="rgb(0%, 0%, 0%)" >G</text>
<circle cx="10.0" cy="170.95182584542653" r="5.0" stroke="none" stroke-width="1.0" fill="rgb(94%, 94%, 94%)"/>
<circle cx="10.0" cy="170.95182584542653" r="5.0" stroke="rgb(35%, 35%, 35%)" stroke-width="1.0" fill="none"/>
<text x="10.0" y="173.95182584542653" text-anchor="middle" font-family="Verdana" font-size="7.5" fill="rgb(0%, 0%, 0%)" >C</text>
<circle cx="10.0" cy="150.95182584542653" r="5.0" stroke="none" stroke-width="1.0" fill="rgb(94%, 94%, 94%)"/>
<circle cx="10.0" cy="150.95182584542653" r="5.0" stroke="rgb(35%, 35%, 35%)" stroke-width="1.0" fill="none"/>
<text x="10.0" y="153.95182584542653" text-anchor="middle" font-family="Verdana" font-size="7.5" fill="rgb(0%, 0%, 0%)" >G</text>
<circle cx="10.0" cy="130.95182584542653" r="5.0" stroke="none" stroke-width="1.0" fill="rgb(94%, 94%, 94%)"/>
<circle cx="10.0" cy="130.95182584542653" r="5.0" stroke="rgb(35%, 35%, 35%)" stroke-width="1.0" fill="none"/>
<text x="10.0" y="133.95182584542653" text-anchor="middle" font-family="Verdana" font-size="7.5" fill="rgb(0%, 0%, 0%)" >C</text>
<circle cx="10.0" cy="110.95182584542653" r="5.0" stroke="none" stroke-width="1.0" fill="rgb(94%, 94%, 94%)"/>
<circle cx="10.0" cy="110.95182584542653" r="5.0" stroke="rgb(35%, 35%, 35%)" stroke-width="1.0" fill="none"/>
<text x="10.0" y="113.95182584542653" text-anchor="middle" font-family="Verdana" font-size="7.5" fill="rgb(0%, 0%, 0%)" >G</text>
<circle cx="10.0" cy="90.95182584542653" r="5.0" stroke="none" stroke-width="1.0" fill="rgb(94%, 94%, 94%)"/>
<circle cx="10.0" cy="90.95182584542653" r="5.0" stroke="rgb(35%, 35%, 35%)" stroke-width="1.0" fill="none"/>
<text x="10.0" y="93.95182584542653" text-anchor="middle" font-family="Verdana" font-size="7.5" fill="rgb(0%, 0%, 0%)" >A</text>
<circle cx="10.0" cy="70.95182584542653" r="5.0" stroke="none" stroke-width="1.0" fill="rgb(94%, 94%, 94%)"/>
<circle cx="10.0" cy="70.95182584542653" r="5.0" stroke="rgb(35%, 35%, 35%)" stroke-width="1.0" fill="none"/>
<text x="10.0" y="73.95182584542653" text-anchor="middle" font-family="Verdana" font-size="7.5" fill="rgb(0%, 0%, 0%)" >A</text>
<circle cx="10.0" cy="50.95182584542653" r="5.0" stroke="none" stroke-width="1.0" fill="rgb(94%, 94%, 94%)"/>
<circle cx="10.0" cy="50.95182584542653" r="5.0" stroke="rgb(35%, 35%, 35%)" stroke-width="1.0" fill="none"/>
<text x="10.0" y="53.95182584542653" text-anchor="middle" font-family="Verdana" font-size="7.5" fill="rgb(0%, 0%, 0%)" >A</text>
<circle cx="10.94020113855714" cy="33.47707795850508" r="5.0" stroke="none" stroke-width="1.0" fill="rgb(94%, 94%, 94%)"/>
<circle cx="10.94020113855714" cy="33.47707795850508" r="5.0" stroke="rgb(35%, 35%, 35%)" stroke-width="1.0" fill="none"/>
<text x="10.94020113855714" y="36.47707795850508" text-anchor="middle" font-family="Verdana" font-size="7.5" fill="rgb(0%, 0%, 0%)" >C</text>
<circle cx="26.25" cy="25.0" r="5.0" stroke="none" stroke-width="1.0" fill="rgb(94%, 94%, 94%)"/>
<circle cx="26.25" cy="25.0" r="5.0" stroke="rgb(35%, 35%, 35%)" stroke-width="1.0" fill="none"/>
<text x="26.25" y="28.0" text-anchor="middle" font-family="Verdana" font-size="7.5" fill="rgb(0%, 0%, 0%)" >T</text>
<circle cx="41.559798861442864" cy="33.47707795850508" r="5.0" stroke="none" stroke-width="1.0" fill="rgb(94%, 94%, 94%)"/>
<circle cx="41.559798861442864" cy="33.47707795850508" r="5.0" stroke="rgb(35%, 35%, 35%)" stroke-width="1.0" fill="none"/>
<text x="41.559798861442864" y="36.47707795850508" text-anchor="middle" font-family="Verdana" font-size="7.5" fill="rgb(0%, 0%, 0%)" >G</text>
<circle cx="42.5" cy="50.95182584542653" r="5.0" stroke="none" stroke-width="1.0" fill="rgb(94%, 94%, 94%)"/>
<circle cx="42.5" cy="50.95182584542653" r="5.0" stroke="rgb(35%, 35%, 35%)" stroke-width="1.0" fill="none"/>
<text x="42.5" y="53.95182584542653" text-anchor="middle" font-family="Verdana" font-size="7.5" fill="rgb(0%, 0%, 0%)" >T</text>
<circle cx="42.5" cy="70.95182584542653" r="5.0" stroke="none" stroke-width="1.0" fill="rgb(94%, 94%, 94%)"/>
<circle cx="42.5" cy="70.95182584542653" r="5.0" stroke="rgb(35%, 35%, 35%)" stroke-width="1.0" fill="none"/>
<text x="42.5" y="73.95182584542653" text-anchor="middle" font-family="Verdana" font-size="7.5" fill="rgb(0%, 0%, 0%)" >T</text>
<circle cx="42.5" cy="90.95182584542653" r="5.0" stroke="none" stroke-width="1.0" fill="rgb(94%, 94%, 94%)"/>
<circle cx="42.5" cy="90.95182584542653" r="5.0" stroke="rgb(35%, 35%, 35%)" stroke-width="1.0" fill="none"/>
<text x="42.5" y="93.95182584542653" text-anchor="middle" font-family="Verdana" font-size="7.5" fill="rgb(0%, 0%, 0%)" >T</text>
<circle cx="42.5" cy="110.95182584542653" r="5.0" stroke="none" stroke-width="1.0" fill="rgb(94%, 94%, 94%)"/>
<circle cx="42.5" cy="110.95182584542653" r="5.0" stroke="rgb(35%, 35%, 35%)" stroke-width="1.0" fill="none"/>
<text x="42.5" y="113.95182584542653" text-anchor="middle" font-family="Verdana" font-size="7.5" fill="rgb(0%, 0%, 0%)" >C</text>
<circle cx="42.5" cy="130.95182584542653" r="5.0" stroke="none" stroke-width="1.0" fill="rgb(94%, 94%, 94%)"/>
<circle cx="42.5" cy="130.95182584542653" r="5.0" stroke="rgb(35%, 35%, 35%)" stroke-width="1.0" fill="none"/>
<text x="42.5" y="133.95182584542653" text-anchor="middle" font-family="Verdana" font-size="7.5" fill="rgb(0%, 0%, 0%)" >G</text>
<circle cx="42.5" cy="150.95182584542653" r="5.0" stroke="none" stroke-width="1.0" fill="rgb(94%, 94%, 94%)"/>
<circle cx="42.5" cy="150.95182584542653" r="5.0" stroke="rgb(35%, 35%, 35%)" stroke-width="1.0" fill="none"/>
<text x="42.5" y="153.95182584542653" text-anchor="middle" font-family="Verdana" font-size="7.5" fill="rgb(0%, 0%, 0%)" >C</text>
<circle cx="42.5" cy="170.95182584542653" r="5.0" stroke="none" stroke-width="1.0" fill="rgb(94%, 94%, 94%)"/>
<circle cx="42.5" cy="170.95182584542653" r="5.0" stroke="rgb(35%, 35%, 35%)" stroke-width="1.0" fill="none"/>
<text x="42.5" y="173.95182584542653" text-anchor="middle" font-family="Verdana" font-size="7.5" fill="rgb(0%, 0%, 0%)" >G</text>
<circle cx="42.5" cy="190.95182584542653" r="5.0" stroke="none" stroke-width="1.0" fill="rgb(94%, 94%, 94%)"/>
<circle cx="42.5" cy="190.95182584542653" r="5.0" stroke="rgb(35%, 35%, 35%)" stroke-width="1.0" fill="none"/>
<text x="42.5" y="193.95182584542653" text-anchor="middle" font-family="Verdana" font-size="7.5" fill="rgb(0%, 0%, 0%)" >C</text>
<line x1="10.0" y1="198.45182584542653" x2="10.0" y2="203.45182584542653" stroke="rgb(25%, 25%, 25%)" stroke-width="1.0" />
<text x="9.999999999999996" y="213.95182584542653" text-anchor="middle" font-family="Verdana" font-size="7.5" fill="rgb(25%, 25%, 25%)" >1</text>
<line x1="26.25" y1="17.5" x2="26.25" y2="12.5" stroke="rgb(25%, 25%, 25%)" stroke-width="1.0" />
<text x="26.25" y="8.0" text-anchor="middle" font-family="Verdana" font-size="7.5" fill="rgb(25%, 25%, 25%)" >10</text>
<line x1="42.5" y1="198.45182584542653" x2="42.5" y2="203.45182584542653" stroke="rgb(25%, 25%, 25%)" stroke-width="1.0" />
<text x="42.5" y="213.95182584542653" text-anchor="middle" font-family="Verdana" font-size="7.5" fill="rgb(25%, 25%, 25%)" >19</text>
<text x="26.25" y="232.15182584542652" text-anchor="middle" font-family="Verdana" font-size="18.0" fill="rgb(0%, 0%, 0%)" >1ECU (E=-9.9 kcal/mol)</text>
</svg>
