<?xml version="1.0" encoding="UTF-8"?>
<!DOCTYPE svg PUBLIC "-//W3C//DTD SVG 1.1//EN" 
"http://www.w3.org/Graphics/SVG/1.1/DTD/svg11.dtd">

<svg width="100%" height="100%" version="1.1"
xmlns="http://www.w3.org/2000/svg">
<line x1="25.0" y1="250.95182584542647" x2="25.0" y2="240.95182584542647" stroke="rgb(35%, 35%, 35%)" stroke-width="1.0" />
<line x1="25.0" y1="230.95182584542647" x2="25.0" y2="220.95182584542647" stroke="rgb(35%, 35%, 35%)" stroke-width="1.0" />
<line x1="25.0" y1="210.95182584542647" x2="25.0" y2="200.95182584542647" stroke="rgb(35%, 35%, 35%)" stroke-width="1.0" />
<line x1="25.0" y1="190.95182584542647" x2="25.0" y2="180.95182584542647" stroke="rgb(35%, 35%, 35%)" stroke-width="1.0" />
<line x1="25.0" y1="170.95182584542647" x2="25.0" y2="160.95182584542647" stroke="rgb(35%, 35%, 35%)" stroke-width="1.0" />
<line x1="25.0" y1="150.95182584542647" x2="25.0" y2="140.95182584542647" stroke="rgb(35%, 35%, 35%)" stroke-width="1.0" />
<line x1="25.0" y1="130.95182584542647" x2="25.0" y2="120.95182584542644" stroke="rgb(35%, 35%, 35%)" stroke-width="1.0" />
<line x1="25.0" y1="110.95182584542644" x2="25.0" y2="100.95182584542644" stroke="rgb(35%, 35%, 35%)" stroke-width="1.0" />
<line x1="25.0" y1="90.95182584542644" x2="25.0" y2="80.95182584542644" stroke="rgb(35%, 35%, 35%)" stroke-width="1.0" />
<line x1="25.0" y1="70.95182584542644" x2="25.0" y2="60.95182584542644" stroke="rgb(35%, 35%, 35%)" stroke-width="1.0" />
<line x1="25.0" y1="50.95182584542644" x2="25.0" y2="40.95182584542644" stroke="rgb(35%, 35%, 35%)" stroke-width="1.0" />
<line x1="25.26862854942486" y1="30.959047189964735" x2="25.67157258913228" y2="23.46985661396667" stroke="rgb(35%, 35%, 35%)" stroke-width="1.0" />
<line x1="30.314423729318083" y1="16.055058816038013" x2="36.875777409239056" y2="12.42201914246698" stroke="rgb(35%, 35%, 35%)" stroke-width="1.0" />
<line x1="45.624222590760944" y1="12.42201914246698" x2="52.18557627068192" y2="16.055058816038013" stroke="rgb(35%, 35%, 35%)" stroke-width="1.0" />
<line x1="56.828427410867725" y1="23.46985661396667" x2="57.23137145057514" y2="30.959047189964735" stroke="rgb(35%, 35%, 35%)" stroke-width="1.0" />
<line x1="57.5" y1="40.95182584542644" x2="57.5" y2="50.95182584542644" stroke="rgb(35%, 35%, 35%)" stroke-width="1.0" />
<line x1="57.5" y1="60.95182584542644" x2="57.5" y2="70.95182584542644" stroke="rgb(35%, 35%, 35%)" stroke-width="1.0" />
<line x1="57.5" y1="80.95182584542644" x2="57.5" y2="90.95182584542644" stroke="rgb(35%, 35%, 35%)" stroke-width="1.0" />
<line x1="57.5" y1="100.95182584542644" x2="57.5" y2="110.95182584542644" stroke="rgb(35%, 35%, 35%)" stroke-width="1.0" />
<line x1="57.5" y1="120.95182584542644" x2="57.5" y2="130.95182584542647" stroke="rgb(35%, 35%, 35%)" stroke-width="1.0" />
<line x1="57.5" y1="140.95182584542647" x2="57.5" y2="150.95182584542647" stroke="rgb(35%, 35%, 35%)" stroke-width="1.0" />
<line x1="57.5" y1="160.95182584542647" x2="57.5" y2="170.95182584542647" stroke="rgb(35%, 35%, 35%)" stroke-width="1.0" />
<line x1="57.5" y1="180.95182584542647" x2="57.5" y2="190.95182584542647" stroke="rgb(35%, 35%, 35%)" stroke-width="1.0" />
<line x1="57.5" y1="200.95182584542647" x2="57.5" y2="210.95182584542647" stroke="rgb(35%, 35%, 35%)" stroke-width="1.0" />
<line x1="57.5" y1="220.95182584542647" x2="57.5" y2="230.95182584542647" stroke="rgb(35%, 35%, 35%)" stroke-width="1.0" />
<line x1="57.5" y1="240.95182584542647" x2="57.5" y2="250.95182584542647" stroke="rgb(35%, 35%, 35%)" stroke-width="1.0" />
<line x1="30.0" y1="254.70182584542647" x2="52.5" y2="254.70182584542647" stroke="rgb(0%, 0%, 100%)" stroke-width="1.0" />
<line x1="30.0" y1="257.20182584542647" x2="52.5" y2="257.20182584542647" stroke="rgb(0%, 0%, 100%)" stroke-width="1.0" />
<line x1="30.0" y1="234.70182584542647" x2="52.5" y2="234.70182584542647" stroke="rgb(0%, 0%, 100%)" stroke-width="1.0" />
<line x1="30.0" y1="237.20182584542647" x2="52.5" y2="237.20182584542647" stroke="rgb(0%, 0%, 100%)" stroke-width="1.0" />
<line x1="30.0" y1="215.95182584542647" x2="52.5" y2="215.95182584542647" stroke="rgb(0%, 0%, 100%)" stroke-width="1.0" />
<circle cx="41.25" cy="215.95182584542647" r="2.75" stroke="none" stroke-width="1.0" fill="rgb(0%, 0%, 100%)"/>
<line x1="30.0" y1="195.95182584542647" x2="52.5" y2="195.95182584542647" stroke="rgb(0%, 0%, 100%)" stroke-width="1.0" />
<circle cx="41.25" cy="195.95182584542647" r="2.75" stroke="none" stroke-width="1.0" fill="rgb(0%, 0%, 100%)"/>
<line x1="30.0" y1="175.95182584542647" x2="52.5" y2="175.95182584542647" stroke="rgb(0%, 0%, 100%)" stroke-width="1.0" />
<circle cx="41.25" cy="175.95182584542647" r="2.75" stroke="none" stroke-width="1.0" fill="rgb(0%, 0%, 100%)"/>
<line x1="30.0" y1="155.95182584542647" x2="52.5" y2="155.95182584542647" stroke="rgb(0%, 0%, 100%)" stroke-width="1.0" />
<circle cx="41.25" cy="155.95182584542647" r="2.75" stroke="none" stroke-width="1.0" fill="rgb(0%, 0%, 100%)"/>
<line x1="30.0" y1="135.95182584542647" x2="52.5" y2="135.95182584542647" stroke="rgb(0%, 0%, 100%)" stroke-width="1.0" />
<circle cx="41.25" cy="135.95182584542647" r="2.75" stroke="none" stroke-width="1.0" fill="rgb(0%, 0%, 100%)"/>
<line x1="30.0" y1="115.95182584542644" x2="52.5" y2="115.95182584542644" stroke="rgb(0%, 0%, 100%)" stroke-width="1.0" />
<circle cx="41.25" cy="115.95182584542644" r="2.75" stroke="none" stroke-width="1.0" fill="rgb(0%, 0%, 100%)"/>
<line x1="30.0" y1="95.95182584542644" x2="52.5" y2="95.95182584542644" stroke="rgb(0%, 0%, 100%)" stroke-width="1.0" />
<circle cx="41.25" cy="95.95182584542644" r="2.75" stroke="none" stroke-width="1.0" fill="rgb(0%, 0%, 100%)"/>
<line x1="30.0" y1="75.95182584542644" x2="52.5" y2="75.95182584542644" stroke="rgb(0%, 0%, 100%)" stroke-width="1.0" />
<circle cx="41.25" cy="75.95182584542644" r="2.75" stroke="none" stroke-width="1.0" fill="rgb(0%, 0%, 100%)"/>
<line x1="30.0" y1="55.95182584542644" x2="52.5" y2="55.95182584542644" stroke="rgb(0%, 0%, 100%)" stroke-width="1.0" />
<circle cx="41.25" cy="55.95182584542644" r="2.75" stroke="none" stroke-width="1.0" fill="rgb(0%, 0%, 100%)"/>
<line x1="30.0" y1="34.70182584542647" x2="52.5" y2="34.70182584542647" stroke="rgb(0%, 0%, 100%)" stroke-width="1.0" />
<line x1="30.0" y1="37.20182584542647" x2="52.5" y2="37.20182584542647" stroke="rgb(0%, 0%, 100%)" stroke-width="1.0" />
<circle cx="25.0" cy="255.95182584542647" r="5.0" stroke="none" stroke-width="1.0" fill="rgb(94%, 94%, 94%)"/>
<circle cx="25.0" cy="255.95182584542647" r="5.0" stroke="rgb(35%, 35%, 35%)" stroke-width="1.0" fill="none"/>
<text x="25.0" y="258.95182584542647" text-anchor="middle" font-family="Verdana" font-size="7.5" fill="rgb(0%, 0%, 0%)" >C</text>
<circle cx="25.0" cy="235.95182584542647" r="5.0" stroke="none" stroke-width="1.0" fill="rgb(94%, 94%, 94%)"/>
<circle cx="25.0" cy="235.95182584542647" r="5.0" stroke="rgb(35%, 35%, 35%)" stroke-width="1.0" fill="none"/>
<text x="25.0" y="238.95182584542647" text-anchor="middle" font-family="Verdana" font-size="7.5" fill="rgb(0%, 0%, 0%)" >C</text>
<circle cx="25.0" cy="215.95182584542647" r="5.0" stroke="none" stroke-width="1.0" fill="rgb(94%, 94%, 94%)"/>
<circle cx="25.0" cy="215.95182584542647" r="5.0" stroke="rgb(35%, 35%, 35%)" stroke-width="1.0" fill="none"/>
<text x="25.0" y="218.95182584542647" text-anchor="middle" font-family="Verdana" font-size="7.5" fill="rgb(0%, 0%, 0%)" >T</text>
<circle cx="25.0" cy="195.95182584542647" r="5.0" stroke="none" stroke-width="1.0" fill="rgb(94%, 94%, 94%)"/>
<circle cx="25.0" cy="195.95182584542647" r="5.0" stroke="rgb(35%, 35%, 35%)" stroke-width="1.0" fill="none"/>
<text x="25.0" y="198.95182584542647" text-anchor="middle" font-family="Verdana" font-size="7.5" fill="rgb(0%, 0%, 0%)" >A</text>
<circle cx="25.0" cy="175.95182584542647" r="5.0" stroke="none" stroke-width="1.0" fill="rgb(94%, 94%, 94%)"/>
<circle cx="25.0" cy="175.95182584542647" r="5.0" stroke="rgb(35%, 35%, 35%)" stroke-width="1.0" fill="none"/>
<text x="25.0" y="178.95182584542647" text-anchor="middle" font-family="Verdana" font-size="7.5" fill="rgb(0%, 0%, 0%)" >A</text>
<circle cx="25.0" cy="155.95182584542647" r="5.0" stroke="none" stroke-width="1.0" fill="rgb(94%, 94%, 94%)"/>
<circle cx="25.0" cy="155.95182584542647" r="5.0" stroke="rgb(35%, 35%, 35%)" stroke-width="1.0" fill="none"/>
<text x="25.0" y="158.95182584542647" text-anchor="middle" font-family="Verdana" font-size="7.5" fill="rgb(0%, 0%, 0%)" >T</text>
<circle cx="25.0" cy="135.95182584542647" r="5.0" stroke="none" stroke-width="1.0" fill="rgb(94%, 94%, 94%)"/>
<circle cx="25.0" cy="135.95182584542647" r="5.0" stroke="rgb(35%, 35%, 35%)" stroke-width="1.0" fill="none"/>
<text x="25.0" y="138.95182584542647" text-anchor="middle" font-family="Verdana" font-size="7.5" fill="rgb(0%, 0%, 0%)" >T</text>
<circle cx="25.0" cy="115.95182584542644" r="5.0" stroke="none" stroke-width="1.0" fill="rgb(94%, 94%, 94%)"/>
<circle cx="25.0" cy="115.95182584542644" r="5.0" stroke="rgb(35%, 35%, 35%)" stroke-width="1.0" fill="none"/>
<text x="25.0" y="118.95182584542644" text-anchor="middle" font-family="Verdana" font-size="7.5" fill="rgb(0%, 0%, 0%)" >A</text>
<circle cx="25.0" cy="95.95182584542644" r="5.0" stroke="none" stroke-width="1.0" fill="rgb(94%, 94%, 94%)"/>
<circle cx="25.0" cy="95.95182584542644" r="5.0" stroke="rgb(35%, 35%, 35%)" stroke-width="1.0" fill="none"/>
<text x="25.0" y="98.95182584542644" text-anchor="middle" font-family="Verdana" font-size="7.5" fill="rgb(0%, 0%, 0%)" >T</text>
<circle cx="25.0" cy="75.95182584542644" r="5.0" stroke="none" stroke-width="1.0" fill="rgb(94%, 94%, 94%)"/>
<circle cx="25.0" cy="75.95182584542644" r="5.0" stroke="rgb(35%, 35%, 35%)" stroke-width="1.0" fill="none"/>
<text x="25.0" y="78.95182584542644" text-anchor="middle" font-family="Verdana" font-size="7.5" fill="rgb(0%, 0%, 0%)" >A</text>
<circle cx="25.0" cy="55.95182584542644" r="5.0" stroke="none" stroke-width="1.0" fill="rgb(94%, 94%, 94%)"/>
<circle cx="25.0" cy="55.95182584542644" r="5.0" stroke="rgb(35%, 35%, 35%)" stroke-width="1.0" fill="none"/>
<text x="25.0" y="58.95182584542644" text-anchor="middle" font-family="Verdana" font-size="7.5" fill="rgb(0%, 0%, 0%)" >A</text>
<circle cx="25.0" cy="35.95182584542647" r="5.0" stroke="none" stroke-width="1.0" fill="rgb(94%, 94%, 94%)"/>
<circle cx="25.0" cy="35.95182584542647" r="5.0" stroke="rgb(35%, 35%, 35%)" stroke-width="1.0" fill="none"/>
<text x="25.0" y="38.95182584542647" text-anchor="middle" font-family="Verdana" font-size="7.5" fill="rgb(0%, 0%, 0%)" >C</text>
<circle cx="25.94020113855714" cy="18.477077958504992" r="5.0" stroke="none" stroke-width="1.0" fill="rgb(94%, 94%, 94%)"/>
<circle cx="25.94020113855714" cy="18.477077958504992" r="5.0" stroke="rgb(35%, 35%, 35%)" stroke-width="1.0" fill="none"/>
<text x="25.94020113855714" y="21.477077958504992" text-anchor="middle" font-family="Verdana" font-size="7.5" fill="rgb(0%, 0%, 0%)" >G</text>
<circle cx="41.25" cy="10.0" r="5.0" stroke="none" stroke-width="1.0" fill="rgb(94%, 94%, 94%)"/>
<circle cx="41.25" cy="10.0" r="5.0" stroke="rgb(35%, 35%, 35%)" stroke-width="1.0" fill="none"/>
<text x="41.25" y="13.0" text-anchor="middle" font-family="Verdana" font-size="7.5" fill="rgb(0%, 0%, 0%)" >A</text>
<circle cx="56.559798861442864" cy="18.477077958504992" r="5.0" stroke="none" stroke-width="1.0" fill="rgb(94%, 94%, 94%)"/>
<circle cx="56.559798861442864" cy="18.477077958504992" r="5.0" stroke="rgb(35%, 35%, 35%)" stroke-width="1.0" fill="none"/>
<text x="56.559798861442864" y="21.477077958504992" text-anchor="middle" font-family="Verdana" font-size="7.5" fill="rgb(0%, 0%, 0%)" >A</text>
<circle cx="57.5" cy="35.95182584542647" r="5.0" stroke="none" stroke-width="1.0" fill="rgb(94%, 94%, 94%)"/>
<circle cx="57.5" cy="35.95182584542647" r="5.0" stroke="rgb(35%, 35%, 35%)" stroke-width="1.0" fill="none"/>
<text x="57.5" y="38.95182584542647" text-anchor="middle" font-family="Verdana" font-size="7.5" fill="rgb(0%, 0%, 0%)" >G</text>
<circle cx="57.5" cy="55.95182584542644" r="5.0" stroke="none" stroke-width="1.0" fill="rgb(94%, 94%, 94%)"/>
<circle cx="57.5" cy="55.95182584542644" r="5.0" stroke="rgb(35%, 35%, 35%)" stroke-width="1.0" fill="none"/>
<text x="57.5" y="58.95182584542644" text-anchor="middle" font-family="Verdana" font-size="7.5" fill="rgb(0%, 0%, 0%)" >T</text>
<circle cx="57.5" cy="75.95182584542644" r="5.0" stroke="none" stroke-width="1.0" fill="rgb(94%, 94%, 94%)"/>
<circle cx="57.5" cy="75.95182584542644" r="5.0" stroke="rgb(35%, 35%, 35%)" stroke-width="1.0" fill="none"/>
<text x="57.5" y="78.95182584542644" text-anchor="middle" font-family="Verdana" font-size="7.5" fill="rgb(0%, 0%, 0%)" >T</text>
<circle cx="57.5" cy="95.95182584542644" r="5.0" stroke="none" stroke-width="1.0" fill="rgb(94%, 94%, 94%)"/>
<circle cx="57.5" cy="95.95182584542644" r="5.0" stroke="rgb(35%, 35%, 35%)" stroke-width="1.0" fill="none"/>
<text x="57.5" y="98.95182584542644" text-anchor="middle" font-family="Verdana" font-size="7.5" fill="rgb(0%, 0%, 0%)" >A</text>
<circle cx="57.5" cy="115.95182584542644" r="5.0" stroke="none" stroke-width="1.0" fill="rgb(94%, 94%, 94%)"/>
<circle cx="57.5" cy="115.95182584542644" r="5.0" stroke="rgb(35%, 35%, 35%)" stroke-width="1.0" fill="none"/>
<text x="57.5" y="118.95182584542644" text-anchor="middle" font-family="Verdana" font-size="7.5" fill="rgb(0%, 0%, 0%)" >T</text>
<circle cx="57.5" cy="135.95182584542647" r="5.0" stroke="none" stroke-width="1.0" fill="rgb(94%, 94%, 94%)"/>
<circle cx="57.5" cy="135.95182584542647" r="5.0" stroke="rgb(35%, 35%, 35%)" stroke-width="1.0" fill="none"/>
<text x="57.5" y="138.95182584542647" text-anchor="middle" font-family="Verdana" font-size="7.5" fill="rgb(0%, 0%, 0%)" >A</text>
<circle cx="57.5" cy="155.95182584542647" r="5.0" stroke="none" stroke-width="1.0" fill="rgb(94%, 94%, 94%)"/>
<circle cx="57.5" cy="155.95182584542647" r="5.0" stroke="rgb(35%, 35%, 35%)" stroke-width="1.0" fill="none"/>
<text x="57.5" y="158.95182584542647" text-anchor="middle" font-family="Verdana" font-size="7.5" fill="rgb(0%, 0%, 0%)" >A</text>
<circle cx="57.5" cy="175.95182584542647" r="5.0" stroke="none" stroke-width="1.0" fill="rgb(94%, 94%, 94%)"/>
<circle cx="57.5" cy="175.95182584542647" r="5.0" stroke="rgb(35%, 35%, 35%)" stroke-width="1.0" fill="none"/>
<text x="57.5" y="178.95182584542647" text-anchor="middle" font-family="Verdana" font-size="7.5" fill="rgb(0%, 0%, 0%)" >T</text>
<circle cx="57.5" cy="195.95182584542647" r="5.0" stroke="none" stroke-width="1.0" fill="rgb(94%, 94%, 94%)"/>
<circle cx="57.5" cy="195.95182584542647" r="5.0" stroke="rgb(35%, 35%, 35%)" stroke-width="1.0" fill="none"/>
<text x="57.5" y="198.95182584542647" text-anchor="middle" font-family="Verdana" font-size="7.5" fill="rgb(0%, 0%, 0%)" >T</text>
<circle cx="57.5" cy="215.95182584542647" r="5.0" stroke="none" stroke-width="1.0" fill="rgb(94%, 94%, 94%)"/>
<circle cx="57.5" cy="215.95182584542647" r="5.0" stroke="rgb(35%, 35%, 35%)" stroke-width="1.0" fill="none"/>
<text x="57.5" y="218.95182584542647" text-anchor="middle" font-family="Verdana" font-size="7.5" fill="rgb(0%, 0%, 0%)" >A</text>
<circle cx="57.5" cy="235.95182584542647" r="5.0" stroke="none" stroke-width="1.0" fill="rgb(94%, 94%, 94%)"/>
<circle cx="57.5" cy="235.95182584542647" r="5.0" stroke="rgb(35%, 35%, 35%)" stroke-width="1.0" fill="none"/>
<text x="57.5" y="238.95182584542647" text-anchor="middle" font-family="Verdana" font-size="7.5" fill="rgb(0%, 0%, 0%)" >G</text>
<circle cx="57.5" cy="255.95182584542647" r="5.0" stroke="none" stroke-width="1.0" fill="rgb(94%, 94%, 94%)"/>
<circle cx="57.5" cy="255.95182584542647" r="5.0" stroke="rgb(35%, 35%, 35%)" stroke-width="1.0" fill="none"/>
<text x="57.5" y="258.95182584542647" text-anchor="middle" font-family="Verdana" font-size="7.5" fill="rgb(0%, 0%, 0%)" >G</text>
<line x1="25.0" y1="263.45182584542647" x2="25.0" y2="268.45182584542647" stroke="rgb(25%, 25%, 25%)" stroke-width="1.0" />
<text x="24.999999999999996" y="278.95182584542647" text-anchor="middle" font-family="Verdana" font-size="7.5" fill="rgb(25%, 25%, 25%)" >1</text>
<line x1="17.5" y1="75.95182584542644" x2="12.5" y2="75.95182584542644" stroke="rgb(25%, 25%, 25%)" stroke-width="1.0" />
<text x="5.0" y="78.95182584542644" text-anchor="middle" font-family="Verdana" font-size="7.5" fill="rgb(25%, 25%, 25%)" >10</text>
<line x1="65.0" y1="115.95182584542644" x2="70.0" y2="115.95182584542644" stroke="rgb(25%, 25%, 25%)" stroke-width="1.0" />
<text x="77.5" y="118.95182584542644" text-anchor="middle" font-family="Verdana" font-size="7.5" fill="rgb(25%, 25%, 25%)" >20</text>
<line x1="57.5" y1="263.45182584542647" x2="57.5" y2="268.45182584542647" stroke="rgb(25%, 25%, 25%)" stroke-width="1.0" />
<text x="57.5" y="278.95182584542647" text-anchor="middle" font-family="Verdana" font-size="7.5" fill="rgb(25%, 25%, 25%)" >27</text>
<text x="41.25" y="297.15182584542646" text-anchor="middle" font-family="Verdana" font-size="18.0" fill="rgb(0%, 0%, 0%)" >1JVE</text>
</svg>
