<?xml version="1.0" encoding="UTF-8"?>
<!DOCTYPE svg PUBLIC "-//W3C//DTD SVG 1.1//EN" 
"http://www.w3.org/Graphics/SVG/1.1/DTD/svg11.dtd">

<svg width="100%" height="100%" version="1.1"
xmlns="http://www.w3.org/2000/svg">
<line x1="25.0" y1="300.8114369335434" x2="25.0" y2="290.8114369335434" stroke="rgb(35%, 35%, 35%)" stroke-width="1.0" />
<line x1="25.0" y1="280.8114369335434" x2="25.0" y2="270.8114369335434" stroke="rgb(35%, 35%, 35%)" stroke-width="1.0" />
<line x1="25.0" y1="260.8114369335434" x2="25.0" y2="250.8114369335434" stroke="rgb(35%, 35%, 35%)" stroke-width="1.0" />
<line x1="25.0" y1="240.8114369335434" x2="25.0" y2="230.8114369335434" stroke="rgb(35%, 35%, 35%)" stroke-width="1.0" />
<line x1="25.0" y1="220.8114369335434" x2="25.0" y2="210.8114369335434" stroke="rgb(35%, 35%, 35%)" stroke-width="1.0" />
<line x1="25.0" y1="200.8114369335434" x2="25.0" y2="190.81143693354343" stroke="rgb(35%, 35%, 35%)" stroke-width="1.0" />
<line x1="25.0" y1="180.81143693354343" x2="25.0" y2="170.81143693354343" stroke="rgb(35%, 35%, 35%)" stroke-width="1.0" />
<line x1="25.0" y1="160.81143693354343" x2="25.0" y2="150.81143693354343" stroke="rgb(35%, 35%, 35%)" stroke-width="1.0" />
<line x1="25.0" y1="140.81143693354343" x2="25.0" y2="130.81143693354343" stroke="rgb(35%, 35%, 35%)" stroke-width="1.0" />
<line x1="25.0" y1="120.81143693354343" x2="25.0" y2="110.81143693354343" stroke="rgb(35%, 35%, 35%)" stroke-width="1.0" />
<line x1="25.0" y1="100.81143693354343" x2="25.0" y2="90.81143693354343" stroke="rgb(35%, 35%, 35%)" stroke-width="1.0" />
<line x1="25.0" y1="80.8114369335434" x2="25.0" y2="70.8114369335434" stroke="rgb(35%, 35%, 35%)" stroke-width="1.0" />
<line x1="25.0" y1="60.811436933543405" x2="25.0" y2="50.811436933543405" stroke="rgb(35%, 35%, 35%)" stroke-width="1.0" />
<line x1="25.0" y1="40.811436933543405" x2="25.0" y2="30.811436933543405" stroke="rgb(35%, 35%, 35%)" stroke-width="1.0" />
<line x1="27.142847542525644" y1="21.29389286519256" x2="30.357134364504525" y2="14.517544068350844" stroke="rgb(35%, 35%, 35%)" stroke-width="1.0" />
<line x1="37.49998190703017" y1="10.0" x2="45.00001809296984" y2="10.0" stroke="rgb(35%, 35%, 35%)" stroke-width="1.0" />
<line x1="52.14286563549548" y1="14.517544068350844" x2="55.357152457474356" y2="21.29389286519256" stroke="rgb(35%, 35%, 35%)" stroke-width="1.0" />
<line x1="57.5" y1="30.811436933543405" x2="57.5" y2="40.811436933543405" stroke="rgb(35%, 35%, 35%)" stroke-width="1.0" />
<line x1="57.5" y1="50.811436933543405" x2="57.5" y2="60.811436933543405" stroke="rgb(35%, 35%, 35%)" stroke-width="1.0" />
<line x1="57.5" y1="70.8114369335434" x2="57.5" y2="80.8114369335434" stroke="rgb(35%, 35%, 35%)" stroke-width="1.0" />
<line x1="57.5" y1="90.81143693354343" x2="57.5" y2="100.81143693354343" stroke="rgb(35%, 35%, 35%)" stroke-width="1.0" />
<line x1="57.5" y1="110.81143693354343" x2="57.5" y2="120.81143693354343" stroke="rgb(35%, 35%, 35%)" stroke-width="1.0" />
<line x1="57.5" y1="130.81143693354343" x2="57.5" y2="140.81143693354343" stroke="rgb(35%, 35%, 35%)" stroke-width="1.0" />
<line x1="57.5" y1="150.81143693354343" x2="57.5" y2="160.81143693354343" stroke="rgb(35%, 35%, 35%)" stroke-width="1.0" />
<line x1="57.5" y1="170.81143693354343" x2="57.5" y2="180.81143693354343" stroke="rgb(35%, 35%, 35%)" stroke-width="1.0" />
<line x1="57.5" y1="190.81143693354343" x2="57.5" y2="200.8114369335434" stroke="rgb(35%, 35%, 35%)" stroke-width="1.0" />
<line x1="57.5" y1="210.8114369335434" x2="57.5" y2="220.8114369335434" stroke="rgb(35%, 35%, 35%)" stroke-width="1.0" />
<line x1="57.5" y1="230.8114369335434" x2="57.5" y2="240.8114369335434" stroke="rgb(35%, 35%, 35%)" stroke-width="1.0" />
<line x1="57.5" y1="250.8114369335434" x2="57.5" y2="260.8114369335434" stroke="rgb(35%, 35%, 35%)" stroke-width="1.0" />
<line x1="57.5" y1="270.8114369335434" x2="57.5" y2="280.8114369335434" stroke="rgb(35%, 35%, 35%)" stroke-width="1.0" />
<line x1="57.5" y1="290.8114369335434" x2="57.5" y2="300.8114369335434" stroke="rgb(35%, 35%, 35%)" stroke-width="1.0" />
<line x1="30.0" y1="304.5614369335434" x2="52.5" y2="304.5614369335434" stroke="rgb(0%, 0%, 100%)" stroke-width="1.0" />
<line x1="30.0" y1="307.0614369335434" x2="52.5" y2="307.0614369335434" stroke="rgb(0%, 0%, 100%)" stroke-width="1.0" />
<line x1="30.0" y1="285.8114369335434" x2="52.5" y2="285.8114369335434" stroke="rgb(0%, 0%, 100%)" stroke-width="1.0" />
<circle cx="41.25" cy="285.8114369335434" r="2.75" stroke="none" stroke-width="1.0" fill="rgb(0%, 0%, 100%)"/>
<line x1="30.0" y1="265.8114369335434" x2="52.5" y2="265.8114369335434" stroke="rgb(0%, 0%, 100%)" stroke-width="1.0" />
<circle cx="41.25" cy="265.8114369335434" r="2.75" stroke="none" stroke-width="1.0" fill="rgb(0%, 0%, 100%)"/>
<line x1="30.0" y1="245.8114369335434" x2="52.5" y2="245.8114369335434" stroke="rgb(0%, 0%, 100%)" stroke-width="1.0" />
<circle cx="41.25" cy="245.8114369335434" r="2.75" stroke="none" stroke-width="1.0" fill="rgb(0%, 0%, 100%)"/>
<line x1="30.0" y1="225.8114369335434" x2="52.5" y2="225.8114369335434" stroke="rgb(0%, 0%, 100%)" stroke-width="1.0" />
<circle cx="41.25" cy="225.8114369335434" r="2.75" stroke="none" stroke-width="1.0" fill="rgb(0%, 0%, 100%)"/>
<line x1="30.0" y1="205.8114369335434" x2="52.5" y2="205.8114369335434" stroke="rgb(0%, 0%, 100%)" stroke-width="1.0" />
<circle cx="41.25" cy="205.8114369335434" r="2.75" stroke="none" stroke-width="1.0" fill="rgb(0%, 0%, 100%)"/>
<line x1="30.0" y1="185.81143693354343" x2="52.5" y2="185.81143693354343" stroke="rgb(0%, 0%, 100%)" stroke-width="1.0" />
<circle cx="41.25" cy="185.81143693354343" r="2.75" stroke="none" stroke-width="1.0" fill="rgb(0%, 0%, 100%)"/>
<line x1="30.0" y1="165.81143693354343" x2="52.5" y2="165.81143693354343" stroke="rgb(0%, 0%, 100%)" stroke-width="1.0" />
<circle cx="41.25" cy="165.81143693354343" r="2.75" stroke="none" stroke-width="1.0" fill="rgb(0%, 0%, 100%)"/>
<line x1="30.0" y1="144.56143693354343" x2="52.5" y2="144.56143693354343" stroke="rgb(0%, 0%, 100%)" stroke-width="1.0" />
<line x1="30.0" y1="147.06143693354343" x2="52.5" y2="147.06143693354343" stroke="rgb(0%, 0%, 100%)" stroke-width="1.0" />
<line x1="30.0" y1="125.81143693354343" x2="52.5" y2="125.81143693354343" stroke="rgb(0%, 0%, 100%)" stroke-width="1.0" />
<circle cx="41.25" cy="125.81143693354343" r="2.75" stroke="none" stroke-width="1.0" fill="rgb(0%, 0%, 100%)"/>
<line x1="30.0" y1="105.81143693354343" x2="52.5" y2="105.81143693354343" stroke="rgb(0%, 0%, 100%)" stroke-width="1.0" />
<circle cx="41.25" cy="105.81143693354343" r="2.75" stroke="none" stroke-width="1.0" fill="rgb(0%, 0%, 100%)"/>
<line x1="30.0" y1="85.8114369335434" x2="52.5" y2="85.8114369335434" stroke="rgb(0%, 0%, 100%)" stroke-width="1.0" />
<circle cx="41.25" cy="85.8114369335434" r="2.75" stroke="none" stroke-width="1.0" fill="rgb(0%, 0%, 100%)"/>
<line x1="30.0" y1="65.8114369335434" x2="52.5" y2="65.8114369335434" stroke="rgb(0%, 0%, 100%)" stroke-width="1.0" />
<circle cx="41.25" cy="65.8114369335434" r="2.75" stroke="none" stroke-width="1.0" fill="rgb(0%, 0%, 100%)"/>
<line x1="30.0" y1="45.811436933543405" x2="52.5" y2="45.811436933543405" stroke="rgb(0%, 0%, 100%)" stroke-width="1.0" />
<circle cx="41.25" cy="45.811436933543405" r="2.75" stroke="none" stroke-width="1.0" fill="rgb(0%, 0%, 100%)"/>
<line x1="30.0" y1="24.561436933543405" x2="52.5" y2="24.561436933543405" stroke="rgb(0%, 0%, 100%)" stroke-width="1.0" />
<line x1="30.0" y1="27.061436933543405" x2="52.5" y2="27.061436933543405" stroke="rgb(0%, 0%, 100%)" stroke-width="1.0" />
<circle cx="25.0" cy="305.8114369335434" r="5.0" stroke="none" stroke-width="1.0" fill="rgb(94%, 94%, 94%)"/>
<circle cx="25.0" cy="305.8114369335434" r="5.0" stroke="rgb(35%, 35%, 35%)" stroke-width="1.0" fill="none"/>
<text x="25.0" y="308.8114369335434" text-anchor="middle" font-family="Verdana" font-size="7.5" fill="rgb(0%, 0%, 0%)" >C</text>
<circle cx="25.0" cy="285.8114369335434" r="5.0" stroke="none" stroke-width="1.0" fill="rgb(94%, 94%, 94%)"/>
<circle cx="25.0" cy="285.8114369335434" r="5.0" stroke="rgb(35%, 35%, 35%)" stroke-width="1.0" fill="none"/>
<text x="25.0" y="288.8114369335434" text-anchor="middle" font-family="Verdana" font-size="7.5" fill="rgb(0%, 0%, 0%)" >A</text>
<circle cx="25.0" cy="265.8114369335434" r="5.0" stroke="none" stroke-width="1.0" fill="rgb(94%, 94%, 94%)"/>
<circle cx="25.0" cy="265.8114369335434" r="5.0" stroke="rgb(35%, 35%, 35%)" stroke-width="1.0" fill="none"/>
<text x="25.0" y="268.8114369335434" text-anchor="middle" font-family="Verdana" font-size="7.5" fill="rgb(0%, 0%, 0%)" >T</text>
<circle cx="25.0" cy="245.8114369335434" r="5.0" stroke="none" stroke-width="1.0" fill="rgb(94%, 94%, 94%)"/>
<circle cx="25.0" cy="245.8114369335434" r="5.0" stroke="rgb(35%, 35%, 35%)" stroke-width="1.0" fill="none"/>
<text x="25.0" y="248.8114369335434" text-anchor="middle" font-family="Verdana" font-size="7.5" fill="rgb(0%, 0%, 0%)" >A</text>
<circle cx="25.0" cy="225.8114369335434" r="5.0" stroke="none" stroke-width="1.0" fill="rgb(94%, 94%, 94%)"/>
<circle cx="25.0" cy="225.8114369335434" r="5.0" stroke="rgb(35%, 35%, 35%)" stroke-width="1.0" fill="none"/>
<text x="25.0" y="228.8114369335434" text-anchor="middle" font-family="Verdana" font-size="7.5" fill="rgb(0%, 0%, 0%)" >A</text>
<circle cx="25.0" cy="205.8114369335434" r="5.0" stroke="none" stroke-width="1.0" fill="rgb(94%, 94%, 94%)"/>
<circle cx="25.0" cy="205.8114369335434" r="5.0" stroke="rgb(35%, 35%, 35%)" stroke-width="1.0" fill="none"/>
<text x="25.0" y="208.8114369335434" text-anchor="middle" font-family="Verdana" font-size="7.5" fill="rgb(0%, 0%, 0%)" >T</text>
<circle cx="25.0" cy="185.81143693354343" r="5.0" stroke="none" stroke-width="1.0" fill="rgb(94%, 94%, 94%)"/>
<circle cx="25.0" cy="185.81143693354343" r="5.0" stroke="rgb(35%, 35%, 35%)" stroke-width="1.0" fill="none"/>
<text x="25.0" y="188.81143693354343" text-anchor="middle" font-family="Verdana" font-size="7.5" fill="rgb(0%, 0%, 0%)" >A</text>
<circle cx="25.0" cy="165.81143693354343" r="5.0" stroke="none" stroke-width="1.0" fill="rgb(94%, 94%, 94%)"/>
<circle cx="25.0" cy="165.81143693354343" r="5.0" stroke="rgb(35%, 35%, 35%)" stroke-width="1.0" fill="none"/>
<text x="25.0" y="168.81143693354343" text-anchor="middle" font-family="Verdana" font-size="7.5" fill="rgb(0%, 0%, 0%)" >A</text>
<circle cx="25.0" cy="145.81143693354343" r="5.0" stroke="none" stroke-width="1.0" fill="rgb(94%, 94%, 94%)"/>
<circle cx="25.0" cy="145.81143693354343" r="5.0" stroke="rgb(35%, 35%, 35%)" stroke-width="1.0" fill="none"/>
<text x="25.0" y="148.81143693354343" text-anchor="middle" font-family="Verdana" font-size="7.5" fill="rgb(0%, 0%, 0%)" >C</text>
<circle cx="25.0" cy="125.81143693354343" r="5.0" stroke="none" stroke-width="1.0" fill="rgb(94%, 94%, 94%)"/>
<circle cx="25.0" cy="125.81143693354343" r="5.0" stroke="rgb(35%, 35%, 35%)" stroke-width="1.0" fill="none"/>
<text x="25.0" y="128.81143693354343" text-anchor="middle" font-family="Verdana" font-size="7.5" fill="rgb(0%, 0%, 0%)" >A</text>
<circle cx="25.0" cy="105.81143693354343" r="5.0" stroke="none" stroke-width="1.0" fill="rgb(94%, 94%, 94%)"/>
<circle cx="25.0" cy="105.81143693354343" r="5.0" stroke="rgb(35%, 35%, 35%)" stroke-width="1.0" fill="none"/>
<text x="25.0" y="108.81143693354343" text-anchor="middle" font-family="Verdana" font-size="7.5" fill="rgb(0%, 0%, 0%)" >A</text>
<circle cx="25.0" cy="85.8114369335434" r="5.0" stroke="none" stroke-width="1.0" fill="rgb(94%, 94%, 94%)"/>
<circle cx="25.0" cy="85.8114369335434" r="5.0" stroke="rgb(35%, 35%, 35%)" stroke-width="1.0" fill="none"/>
<text x="25.0" y="88.8114369335434" text-anchor="middle" font-family="Verdana" font-size="7.5" fill="rgb(0%, 0%, 0%)" >T</text>
<circle cx="25.0" cy="65.8114369335434" r="5.0" stroke="none" stroke-width="1.0" fill="rgb(94%, 94%, 94%)"/>
<circle cx="25.0" cy="65.8114369335434" r="5.0" stroke="rgb(35%, 35%, 35%)" stroke-width="1.0" fill="none"/>
<text x="25.0" y="68.8114369335434" text-anchor="middle" font-family="Verdana" font-size="7.5" fill="rgb(0%, 0%, 0%)" >A</text>
<circle cx="25.0" cy="45.811436933543405" r="5.0" stroke="none" stroke-width="1.0" fill="rgb(94%, 94%, 94%)"/>
<circle cx="25.0" cy="45.811436933543405" r="5.0" stroke="rgb(35%, 35%, 35%)" stroke-width="1.0" fill="none"/>
<text x="25.0" y="48.811436933543405" text-anchor="middle" font-family="Verdana" font-size="7.5" fill="rgb(0%, 0%, 0%)" >T</text>
<circle cx="25.0" cy="25.811436933543405" r="5.0" stroke="none" stroke-width="1.0" fill="rgb(94%, 94%, 94%)"/>
<circle cx="25.0" cy="25.811436933543405" r="5.0" stroke="rgb(35%, 35%, 35%)" stroke-width="1.0" fill="none"/>
<text x="25.0" y="28.811436933543405" text-anchor="middle" font-family="Verdana" font-size="7.5" fill="rgb(0%, 0%, 0%)" >C</text>
<circle cx="32.49998190703017" cy="10.0" r="5.0" stroke="none" stroke-width="1.0" fill="rgb(94%, 94%, 94%)"/>
<circle cx="32.49998190703017" cy="10.0" r="5.0" stroke="rgb(35%, 35%, 35%)" stroke-width="1.0" fill="none"/>
<text x="32.49998190703017" y="13.0" text-anchor="middle" font-family="Verdana" font-size="7.5" fill="rgb(0%, 0%, 0%)" >T</text>
<circle cx="50.00001809296984" cy="10.0" r="5.0" stroke="none" stroke-width="1.0" fill="rgb(94%, 94%, 94%)"/>
<circle cx="50.00001809296984" cy="10.0" r="5.0" stroke="rgb(35%, 35%, 35%)" stroke-width="1.0" fill="none"/>
<text x="50.00001809296984" y="13.0" text-anchor="middle" font-family="Verdana" font-size="7.5" fill="rgb(0%, 0%, 0%)" >T</text>
<circle cx="57.5" cy="25.811436933543405" r="5.0" stroke="none" stroke-width="1.0" fill="rgb(94%, 94%, 94%)"/>
<circle cx="57.5" cy="25.811436933543405" r="5.0" stroke="rgb(35%, 35%, 35%)" stroke-width="1.0" fill="none"/>
<text x="57.5" y="28.811436933543405" text-anchor="middle" font-family="Verdana" font-size="7.5" fill="rgb(0%, 0%, 0%)" >G</text>
<circle cx="57.5" cy="45.811436933543405" r="5.0" stroke="none" stroke-width="1.0" fill="rgb(94%, 94%, 94%)"/>
<circle cx="57.5" cy="45.811436933543405" r="5.0" stroke="rgb(35%, 35%, 35%)" stroke-width="1.0" fill="none"/>
<text x="57.5" y="48.811436933543405" text-anchor="middle" font-family="Verdana" font-size="7.5" fill="rgb(0%, 0%, 0%)" >A</text>
<circle cx="57.5" cy="65.8114369335434" r="5.0" stroke="none" stroke-width="1.0" fill="rgb(94%, 94%, 94%)"/>
<circle cx="57.5" cy="65.8114369335434" r="5.0" stroke="rgb(35%, 35%, 35%)" stroke-width="1.0" fill="none"/>
<text x="57.5" y="68.8114369335434" text-anchor="middle" font-family="Verdana" font-size="7.5" fill="rgb(0%, 0%, 0%)" >T</text>
<circle cx="57.5" cy="85.8114369335434" r="5.0" stroke="none" stroke-width="1.0" fill="rgb(94%, 94%, 94%)"/>
<circle cx="57.5" cy="85.8114369335434" r="5.0" stroke="rgb(35%, 35%, 35%)" stroke-width="1.0" fill="none"/>
<text x="57.5" y="88.8114369335434" text-anchor="middle" font-family="Verdana" font-size="7.5" fill="rgb(0%, 0%, 0%)" >A</text>
<circle cx="57.5" cy="105.81143693354343" r="5.0" stroke="none" stroke-width="1.0" fill="rgb(94%, 94%, 94%)"/>
<circle cx="57.5" cy="105.81143693354343" r="5.0" stroke="rgb(35%, 35%, 35%)" stroke-width="1.0" fill="none"/>
<text x="57.5" y="108.81143693354343" text-anchor="middle" font-family="Verdana" font-size="7.5" fill="rgb(0%, 0%, 0%)" >T</text>
<circle cx="57.5" cy="125.81143693354343" r="5.0" stroke="none" stroke-width="1.0" fill="rgb(94%, 94%, 94%)"/>
<circle cx="57.5" cy="125.81143693354343" r="5.0" stroke="rgb(35%, 35%, 35%)" stroke-width="1.0" fill="none"/>
<text x="57.5" y="128.81143693354343" text-anchor="middle" font-family="Verdana" font-size="7.5" fill="rgb(0%, 0%, 0%)" >T</text>
<circle cx="57.5" cy="145.81143693354343" r="5.0" stroke="none" stroke-width="1.0" fill="rgb(94%, 94%, 94%)"/>
<circle cx="57.5" cy="145.81143693354343" r="5.0" stroke="rgb(35%, 35%, 35%)" stroke-width="1.0" fill="none"/>
<text x="57.5" y="148.81143693354343" text-anchor="middle" font-family="Verdana" font-size="7.5" fill="rgb(0%, 0%, 0%)" >G</text>
<circle cx="57.5" cy="165.81143693354343" r="5.0" stroke="none" stroke-width="1.0" fill="rgb(94%, 94%, 94%)"/>
<circle cx="57.5" cy="165.81143693354343" r="5.0" stroke="rgb(35%, 35%, 35%)" stroke-width="1.0" fill="none"/>
<text x="57.5" y="168.81143693354343" text-anchor="middle" font-family="Verdana" font-size="7.5" fill="rgb(0%, 0%, 0%)" >T</text>
<circle cx="57.5" cy="185.81143693354343" r="5.0" stroke="none" stroke-width="1.0" fill="rgb(94%, 94%, 94%)"/>
<circle cx="57.5" cy="185.81143693354343" r="5.0" stroke="rgb(35%, 35%, 35%)" stroke-width="1.0" fill="none"/>
<text x="57.5" y="188.81143693354343" text-anchor="middle" font-family="Verdana" font-size="7.5" fill="rgb(0%, 0%, 0%)" >T</text>
<circle cx="57.5" cy="205.8114369335434" r="5.0" stroke="none" stroke-width="1.0" fill="rgb(94%, 94%, 94%)"/>
<circle cx="57.5" cy="205.8114369335434" r="5.0" stroke="rgb(35%, 35%, 35%)" stroke-width="1.0" fill="none"/>
<text x="57.5" y="208.8114369335434" text-anchor="middle" font-family="Verdana" font-size="7.5" fill="rgb(0%, 0%, 0%)" >A</text>
<circle cx="57.5" cy="225.8114369335434" r="5.0" stroke="none" stroke-width="1.0" fill="rgb(94%, 94%, 94%)"/>
<circle cx="57.5" cy="225.8114369335434" r="5.0" stroke="rgb(35%, 35%, 35%)" stroke-width="1.0" fill="none"/>
<text x="57.5" y="228.8114369335434" text-anchor="middle" font-family="Verdana" font-size="7.5" fill="rgb(0%, 0%, 0%)" >T</text>
<circle cx="57.5" cy="245.8114369335434" r="5.0" stroke="none" stroke-width="1.0" fill="rgb(94%, 94%, 94%)"/>
<circle cx="57.5" cy="245.8114369335434" r="5.0" stroke="rgb(35%, 35%, 35%)" stroke-width="1.0" fill="none"/>
<text x="57.5" y="248.8114369335434" text-anchor="middle" font-family="Verdana" font-size="7.5" fill="rgb(0%, 0%, 0%)" >T</text>
<circle cx="57.5" cy="265.8114369335434" r="5.0" stroke="none" stroke-width="1.0" fill="rgb(94%, 94%, 94%)"/>
<circle cx="57.5" cy="265.8114369335434" r="5.0" stroke="rgb(35%, 35%, 35%)" stroke-width="1.0" fill="none"/>
<text x="57.5" y="268.8114369335434" text-anchor="middle" font-family="Verdana" font-size="7.5" fill="rgb(0%, 0%, 0%)" >A</text>
<circle cx="57.5" cy="285.8114369335434" r="5.0" stroke="none" stroke-width="1.0" fill="rgb(94%, 94%, 94%)"/>
<circle cx="57.5" cy="285.8114369335434" r="5.0" stroke="rgb(35%, 35%, 35%)" stroke-width="1.0" fill="none"/>
<text x="57.5" y="288.8114369335434" text-anchor="middle" font-family="Verdana" font-size="7.5" fill="rgb(0%, 0%, 0%)" >T</text>
<circle cx="57.5" cy="305.8114369335434" r="5.0" stroke="none" stroke-width="1.0" fill="rgb(94%, 94%, 94%)"/>
<circle cx="57.5" cy="305.8114369335434" r="5.0" stroke="rgb(35%, 35%, 35%)" stroke-width="1.0" fill="none"/>
<text x="57.5" y="308.8114369335434" text-anchor="middle" font-family="Verdana" font-size="7.5" fill="rgb(0%, 0%, 0%)" >G</text>
<line x1="25.0" y1="313.3114369335434" x2="25.0" y2="318.3114369335434" stroke="rgb(25%, 25%, 25%)" stroke-width="1.0" />
<text x="24.999999999999996" y="328.8114369335434" text-anchor="middle" font-family="Verdana" font-size="7.5" fill="rgb(25%, 25%, 25%)" >1</text>
<line x1="17.5" y1="125.81143693354343" x2="12.5" y2="125.81143693354343" stroke="rgb(25%, 25%, 25%)" stroke-width="1.0" />
<text x="5.0" y="128.81143693354343" text-anchor="middle" font-family="Verdana" font-size="7.5" fill="rgb(25%, 25%, 25%)" >10</text>
<line x1="65.0" y1="65.8114369335434" x2="70.0" y2="65.8114369335434" stroke="rgb(25%, 25%, 25%)" stroke-width="1.0" />
<text x="77.5" y="68.8114369335434" text-anchor="middle" font-family="Verdana" font-size="7.5" fill="rgb(25%, 25%, 25%)" >20</text>
<line x1="65.0" y1="265.8114369335434" x2="70.0" y2="265.8114369335434" stroke="rgb(25%, 25%, 25%)" stroke-width="1.0" />
<text x="77.5" y="268.8114369335434" text-anchor="middle" font-family="Verdana" font-size="7.5" fill="rgb(25%, 25%, 25%)" >30</text>
<line x1="57.5" y1="313.3114369335434" x2="57.5" y2="318.3114369335434" stroke="rgb(25%, 25%, 25%)" stroke-width="1.0" />
<text x="57.5" y="328.8114369335434" text-anchor="middle" font-family="Verdana" font-size="7.5" fill="rgb(25%, 25%, 25%)" >32</text>
<text x="41.25" y="347.0114369335434" text-anchor="middle" font-family="Verdana" font-size="18.0" fill="rgb(0%, 0%, 0%)" >4F41</text>
</svg>
