<?xml version="1.0" encoding="UTF-8"?>
<!DOCTYPE svg PUBLIC "-//W3C//DTD SVG 1.1//EN" 
"http://www.w3.org/Graphics/SVG/1.1/DTD/svg11.dtd">

<svg width="100%" height="100%" version="1.1"
xmlns="http://www.w3.org/2000/svg">
<line x1="15.0" y1="280.70763161412503" x2="22.5" y2="280.70763161412503" stroke="rgb(35%, 35%, 35%)" stroke-width="1.0" />
<line x1="27.5" y1="275.70763161412503" x2="27.5" y2="265.70763161412503" stroke="rgb(35%, 35%, 35%)" stroke-width="1.0" />
<line x1="27.5" y1="255.70763161412503" x2="27.5" y2="245.70763161412503" stroke="rgb(35%, 35%, 35%)" stroke-width="1.0" />
<line x1="27.5" y1="235.70763161412503" x2="27.5" y2="225.70763161412503" stroke="rgb(35%, 35%, 35%)" stroke-width="1.0" />
<line x1="27.5" y1="215.70763161412503" x2="27.5" y2="205.70763161412503" stroke="rgb(35%, 35%, 35%)" stroke-width="1.0" />
<line x1="27.5" y1="195.70763161412503" x2="27.5" y2="185.70763161412503" stroke="rgb(35%, 35%, 35%)" stroke-width="1.0" />
<line x1="27.5" y1="175.70763161412503" x2="27.5" y2="165.70763161412503" stroke="rgb(35%, 35%, 35%)" stroke-width="1.0" />
<line x1="27.5" y1="155.70763161412503" x2="27.5" y2="145.70763161412506" stroke="rgb(35%, 35%, 35%)" stroke-width="1.0" />
<line x1="27.5" y1="135.70763161412506" x2="27.5" y2="125.70763161412506" stroke="rgb(35%, 35%, 35%)" stroke-width="1.0" />
<line x1="27.5" y1="115.70763161412506" x2="27.5" y2="105.70763161412506" stroke="rgb(35%, 35%, 35%)" stroke-width="1.0" />
<line x1="27.5" y1="95.70763161412506" x2="27.5" y2="85.70763161412506" stroke="rgb(35%, 35%, 35%)" stroke-width="1.0" />
<line x1="27.5" y1="75.70763161412506" x2="27.5" y2="65.70763161412506" stroke="rgb(35%, 35%, 35%)" stroke-width="1.0" />
<line x1="27.5" y1="55.707631614125035" x2="27.5" y2="45.707631614125035" stroke="rgb(35%, 35%, 35%)" stroke-width="1.0" />
<line x1="26.486077961229753" y1="35.81151457106978" x2="24.965187651531146" y2="28.46730398958914" stroke="rgb(35%, 35%, 35%)" stroke-width="1.0" />
<line x1="27.10803530709628" y1="19.6937128851215" x2="31.843212425731636" y2="13.877474061412386" stroke="rgb(35%, 35%, 35%)" stroke-width="1.0" />
<line x1="39.99998212006702" y1="10.0" x2="47.50001787993298" y2="10.0" stroke="rgb(35%, 35%, 35%)" stroke-width="1.0" />
<line x1="55.65678757426838" y1="13.877474061412329" x2="60.3919646929037" y2="19.693712885121442" stroke="rgb(35%, 35%, 35%)" stroke-width="1.0" />
<line x1="62.53481234846886" y1="28.467303989589027" x2="61.01392203877023" y2="35.81151457106978" stroke="rgb(35%, 35%, 35%)" stroke-width="1.0" />
<line x1="60.0" y1="45.707631614125035" x2="60.0" y2="55.707631614125035" stroke="rgb(35%, 35%, 35%)" stroke-width="1.0" />
<line x1="60.0" y1="65.70763161412506" x2="60.0" y2="75.70763161412506" stroke="rgb(35%, 35%, 35%)" stroke-width="1.0" />
<line x1="60.0" y1="85.70763161412506" x2="60.0" y2="95.70763161412506" stroke="rgb(35%, 35%, 35%)" stroke-width="1.0" />
<line x1="60.0" y1="105.70763161412506" x2="60.0" y2="115.70763161412506" stroke="rgb(35%, 35%, 35%)" stroke-width="1.0" />
<line x1="60.0" y1="125.70763161412506" x2="60.0" y2="135.70763161412506" stroke="rgb(35%, 35%, 35%)" stroke-width="1.0" />
<line x1="60.0" y1="145.70763161412506" x2="60.0" y2="155.70763161412503" stroke="rgb(35%, 35%, 35%)" stroke-width="1.0" />
<line x1="60.0" y1="165.70763161412503" x2="60.0" y2="175.70763161412503" stroke="rgb(35%, 35%, 35%)" stroke-width="1.0" />
<line x1="60.0" y1="185.70763161412503" x2="60.0" y2="195.70763161412503" stroke="rgb(35%, 35%, 35%)" stroke-width="1.0" />
<line x1="60.0" y1="205.70763161412503" x2="60.0" y2="215.70763161412503" stroke="rgb(35%, 35%, 35%)" stroke-width="1.0" />
<line x1="60.0" y1="225.70763161412503" x2="60.0" y2="235.70763161412503" stroke="rgb(35%, 35%, 35%)" stroke-width="1.0" />
<line x1="60.0" y1="245.70763161412503" x2="60.0" y2="255.70763161412503" stroke="rgb(35%, 35%, 35%)" stroke-width="1.0" />
<line x1="60.0" y1="265.70763161412503" x2="60.0" y2="275.70763161412503" stroke="rgb(35%, 35%, 35%)" stroke-width="1.0" />
<line x1="32.5" y1="280.70763161412503" x2="55.0" y2="280.70763161412503" stroke="rgb(0%, 0%, 100%)" stroke-width="1.0" />
<circle cx="43.75" cy="280.70763161412503" r="2.75" stroke="none" stroke-width="1.0" fill="rgb(0%, 0%, 100%)"/>
<line x1="32.5" y1="260.70763161412503" x2="55.0" y2="260.70763161412503" stroke="rgb(0%, 0%, 100%)" stroke-width="1.0" />
<circle cx="43.75" cy="260.70763161412503" r="2.75" stroke="none" stroke-width="1.0" fill="rgb(0%, 0%, 100%)"/>
<line x1="32.5" y1="239.45763161412503" x2="55.0" y2="239.45763161412503" stroke="rgb(0%, 0%, 100%)" stroke-width="1.0" />
<line x1="32.5" y1="241.95763161412503" x2="55.0" y2="241.95763161412503" stroke="rgb(0%, 0%, 100%)" stroke-width="1.0" />
<line x1="32.5" y1="220.70763161412503" x2="55.0" y2="220.70763161412503" stroke="rgb(0%, 0%, 100%)" stroke-width="1.0" />
<circle cx="43.75" cy="220.70763161412503" r="2.75" stroke="none" stroke-width="1.0" fill="rgb(0%, 0%, 100%)"/>
<line x1="32.5" y1="199.45763161412503" x2="55.0" y2="199.45763161412503" stroke="rgb(0%, 0%, 100%)" stroke-width="1.0" />
<line x1="32.5" y1="201.95763161412503" x2="55.0" y2="201.95763161412503" stroke="rgb(0%, 0%, 100%)" stroke-width="1.0" />
<line x1="32.5" y1="179.45763161412503" x2="55.0" y2="179.45763161412503" stroke="rgb(0%, 0%, 100%)" stroke-width="1.0" />
<line x1="32.5" y1="181.95763161412503" x2="55.0" y2="181.95763161412503" stroke="rgb(0%, 0%, 100%)" stroke-width="1.0" />
<line x1="32.5" y1="159.45763161412503" x2="55.0" y2="159.45763161412503" stroke="rgb(0%, 0%, 100%)" stroke-width="1.0" />
<line x1="32.5" y1="161.95763161412503" x2="55.0" y2="161.95763161412503" stroke="rgb(0%, 0%, 100%)" stroke-width="1.0" />
<line x1="32.5" y1="139.45763161412506" x2="55.0" y2="139.45763161412506" stroke="rgb(0%, 0%, 100%)" stroke-width="1.0" />
<line x1="32.5" y1="141.95763161412506" x2="55.0" y2="141.95763161412506" stroke="rgb(0%, 0%, 100%)" stroke-width="1.0" />
<line x1="32.5" y1="120.70763161412506" x2="55.0" y2="120.70763161412506" stroke="rgb(0%, 0%, 100%)" stroke-width="1.0" />
<circle cx="43.75" cy="120.70763161412506" r="2.75" stroke="none" stroke-width="1.0" fill="rgb(0%, 0%, 100%)"/>
<line x1="32.5" y1="99.45763161412506" x2="55.0" y2="99.45763161412506" stroke="rgb(0%, 0%, 100%)" stroke-width="1.0" />
<line x1="32.5" y1="101.95763161412506" x2="55.0" y2="101.95763161412506" stroke="rgb(0%, 0%, 100%)" stroke-width="1.0" />
<line x1="32.5" y1="80.70763161412506" x2="55.0" y2="80.70763161412506" stroke="rgb(0%, 0%, 100%)" stroke-width="1.0" />
<circle cx="43.75" cy="80.70763161412506" r="2.75" stroke="none" stroke-width="1.0" fill="rgb(0%, 0%, 100%)"/>
<line x1="32.5" y1="59.457631614125035" x2="55.0" y2="59.457631614125035" stroke="rgb(0%, 0%, 100%)" stroke-width="1.0" />
<line x1="32.5" y1="61.957631614125035" x2="55.0" y2="61.957631614125035" stroke="rgb(0%, 0%, 100%)" stroke-width="1.0" />
<line x1="32.5" y1="40.707631614125035" x2="55.0" y2="40.707631614125035" stroke="rgb(0%, 0%, 100%)" stroke-width="1.0" />
<circle cx="43.75" cy="40.707631614125035" r="2.75" stroke="none" stroke-width="1.0" fill="rgb(0%, 0%, 100%)"/>
<circle cx="10.0" cy="280.70763161412503" r="5.0" stroke="none" stroke-width="1.0" fill="rgb(94%, 94%, 94%)"/>
<circle cx="10.0" cy="280.70763161412503" r="5.0" stroke="rgb(35%, 35%, 35%)" stroke-width="1.0" fill="none"/>
<text x="10.0" y="283.70763161412503" text-anchor="middle" font-family="Verdana" font-size="7.5" fill="rgb(0%, 0%, 0%)" >A</text>
<circle cx="27.5" cy="280.70763161412503" r="5.0" stroke="none" stroke-width="1.0" fill="rgb(94%, 94%, 94%)"/>
<circle cx="27.5" cy="280.70763161412503" r="5.0" stroke="rgb(35%, 35%, 35%)" stroke-width="1.0" fill="none"/>
<text x="27.5" y="283.70763161412503" text-anchor="middle" font-family="Verdana" font-size="7.5" fill="rgb(0%, 0%, 0%)" >A</text>
<circle cx="27.5" cy="260.70763161412503" r="5.0" stroke="none" stroke-width="1.0" fill="rgb(94%, 94%, 94%)"/>
<circle cx="27.5" cy="260.70763161412503" r="5.0" stroke="rgb(35%, 35%, 35%)" stroke-width="1.0" fill="none"/>
<text x="27.5" y="263.70763161412503" text-anchor="middle" font-family="Verdana" font-size="7.5" fill="rgb(0%, 0%, 0%)" >T</text>
<circle cx="27.5" cy="240.70763161412503" r="5.0" stroke="none" stroke-width="1.0" fill="rgb(94%, 94%, 94%)"/>
<circle cx="27.5" cy="240.70763161412503" r="5.0" stroke="rgb(35%, 35%, 35%)" stroke-width="1.0" fill="none"/>
<text x="27.5" y="243.70763161412503" text-anchor="middle" font-family="Verdana" font-size="7.5" fill="rgb(0%, 0%, 0%)" >C</text>
<circle cx="27.5" cy="220.70763161412503" r="5.0" stroke="none" stroke-width="1.0" fill="rgb(94%, 94%, 94%)"/>
<circle cx="27.5" cy="220.70763161412503" r="5.0" stroke="rgb(35%, 35%, 35%)" stroke-width="1.0" fill="none"/>
<text x="27.5" y="223.70763161412503" text-anchor="middle" font-family="Verdana" font-size="7.5" fill="rgb(0%, 0%, 0%)" >T</text>
<circle cx="27.5" cy="200.70763161412503" r="5.0" stroke="none" stroke-width="1.0" fill="rgb(94%, 94%, 94%)"/>
<circle cx="27.5" cy="200.70763161412503" r="5.0" stroke="rgb(35%, 35%, 35%)" stroke-width="1.0" fill="none"/>
<text x="27.5" y="203.70763161412503" text-anchor="middle" font-family="Verdana" font-size="7.5" fill="rgb(0%, 0%, 0%)" >G</text>
<circle cx="27.5" cy="180.70763161412503" r="5.0" stroke="none" stroke-width="1.0" fill="rgb(94%, 94%, 94%)"/>
<circle cx="27.5" cy="180.70763161412503" r="5.0" stroke="rgb(35%, 35%, 35%)" stroke-width="1.0" fill="none"/>
<text x="27.5" y="183.70763161412503" text-anchor="middle" font-family="Verdana" font-size="7.5" fill="rgb(0%, 0%, 0%)" >G</text>
<circle cx="27.5" cy="160.70763161412503" r="5.0" stroke="none" stroke-width="1.0" fill="rgb(94%, 94%, 94%)"/>
<circle cx="27.5" cy="160.70763161412503" r="5.0" stroke="rgb(35%, 35%, 35%)" stroke-width="1.0" fill="none"/>
<text x="27.5" y="163.70763161412503" text-anchor="middle" font-family="Verdana" font-size="7.5" fill="rgb(0%, 0%, 0%)" >C</text>
<circle cx="27.5" cy="140.70763161412506" r="5.0" stroke="none" stroke-width="1.0" fill="rgb(94%, 94%, 94%)"/>
<circle cx="27.5" cy="140.70763161412506" r="5.0" stroke="rgb(35%, 35%, 35%)" stroke-width="1.0" fill="none"/>
<text x="27.5" y="143.70763161412506" text-anchor="middle" font-family="Verdana" font-size="7.5" fill="rgb(0%, 0%, 0%)" >C</text>
<circle cx="27.5" cy="120.70763161412506" r="5.0" stroke="none" stroke-width="1.0" fill="rgb(94%, 94%, 94%)"/>
<circle cx="27.5" cy="120.70763161412506" r="5.0" stroke="rgb(35%, 35%, 35%)" stroke-width="1.0" fill="none"/>
<text x="27.5" y="123.70763161412506" text-anchor="middle" font-family="Verdana" font-size="7.5" fill="rgb(0%, 0%, 0%)" >T</text>
<circle cx="27.5" cy="100.70763161412506" r="5.0" stroke="none" stroke-width="1.0" fill="rgb(94%, 94%, 94%)"/>
<circle cx="27.5" cy="100.70763161412506" r="5.0" stroke="rgb(35%, 35%, 35%)" stroke-width="1.0" fill="none"/>
<text x="27.5" y="103.70763161412506" text-anchor="middle" font-family="Verdana" font-size="7.5" fill="rgb(0%, 0%, 0%)" >G</text>
<circle cx="27.5" cy="80.70763161412506" r="5.0" stroke="none" stroke-width="1.0" fill="rgb(94%, 94%, 94%)"/>
<circle cx="27.5" cy="80.70763161412506" r="5.0" stroke="rgb(35%, 35%, 35%)" stroke-width="1.0" fill="none"/>
<text x="27.5" y="83.70763161412506" text-anchor="middle" font-family="Verdana" font-size="7.5" fill="rgb(0%, 0%, 0%)" >T</text>
<circle cx="27.5" cy="60.707631614125035" r="5.0" stroke="none" stroke-width="1.0" fill="rgb(94%, 94%, 94%)"/>
<circle cx="27.5" cy="60.707631614125035" r="5.0" stroke="rgb(35%, 35%, 35%)" stroke-width="1.0" fill="none"/>
<text x="27.5" y="63.707631614125035" text-anchor="middle" font-family="Verdana" font-size="7.5" fill="rgb(0%, 0%, 0%)" >C</text>
<circle cx="27.5" cy="40.707631614125035" r="5.0" stroke="none" stroke-width="1.0" fill="rgb(94%, 94%, 94%)"/>
<circle cx="27.5" cy="40.707631614125035" r="5.0" stroke="rgb(35%, 35%, 35%)" stroke-width="1.0" fill="none"/>
<text x="27.5" y="43.707631614125035" text-anchor="middle" font-family="Verdana" font-size="7.5" fill="rgb(0%, 0%, 0%)" >T</text>
<circle cx="23.9512656127609" cy="23.571186946533885" r="5.0" stroke="none" stroke-width="1.0" fill="rgb(94%, 94%, 94%)"/>
<circle cx="23.9512656127609" cy="23.571186946533885" r="5.0" stroke="rgb(35%, 35%, 35%)" stroke-width="1.0" fill="none"/>
<text x="23.9512656127609" y="26.571186946533885" text-anchor="middle" font-family="Verdana" font-size="7.5" fill="rgb(0%, 0%, 0%)" >T</text>
<circle cx="34.99998212006702" cy="10.0" r="5.0" stroke="none" stroke-width="1.0" fill="rgb(94%, 94%, 94%)"/>
<circle cx="34.99998212006702" cy="10.0" r="5.0" stroke="rgb(35%, 35%, 35%)" stroke-width="1.0" fill="none"/>
<text x="34.99998212006702" y="13.0" text-anchor="middle" font-family="Verdana" font-size="7.5" fill="rgb(0%, 0%, 0%)" >A</text>
<circle cx="52.50001787993298" cy="10.0" r="5.0" stroke="none" stroke-width="1.0" fill="rgb(94%, 94%, 94%)"/>
<circle cx="52.50001787993298" cy="10.0" r="5.0" stroke="rgb(35%, 35%, 35%)" stroke-width="1.0" fill="none"/>
<text x="52.50001787993298" y="13.0" text-anchor="middle" font-family="Verdana" font-size="7.5" fill="rgb(0%, 0%, 0%)" >T</text>
<circle cx="63.548734387239094" cy="23.57118694653377" r="5.0" stroke="none" stroke-width="1.0" fill="rgb(94%, 94%, 94%)"/>
<circle cx="63.548734387239094" cy="23.57118694653377" r="5.0" stroke="rgb(35%, 35%, 35%)" stroke-width="1.0" fill="none"/>
<text x="63.548734387239094" y="26.57118694653377" text-anchor="middle" font-family="Verdana" font-size="7.5" fill="rgb(0%, 0%, 0%)" >A</text>
<circle cx="60.0" cy="40.707631614125035" r="5.0" stroke="none" stroke-width="1.0" fill="rgb(94%, 94%, 94%)"/>
<circle cx="60.0" cy="40.707631614125035" r="5.0" stroke="rgb(35%, 35%, 35%)" stroke-width="1.0" fill="none"/>
<text x="60.0" y="43.707631614125035" text-anchor="middle" font-family="Verdana" font-size="7.5" fill="rgb(0%, 0%, 0%)" >A</text>
<circle cx="60.0" cy="60.707631614125035" r="5.0" stroke="none" stroke-width="1.0" fill="rgb(94%, 94%, 94%)"/>
<circle cx="60.0" cy="60.707631614125035" r="5.0" stroke="rgb(35%, 35%, 35%)" stroke-width="1.0" fill="none"/>
<text x="60.0" y="63.707631614125035" text-anchor="middle" font-family="Verdana" font-size="7.5" fill="rgb(0%, 0%, 0%)" >G</text>
<circle cx="60.0" cy="80.70763161412506" r="5.0" stroke="none" stroke-width="1.0" fill="rgb(94%, 94%, 94%)"/>
<circle cx="60.0" cy="80.70763161412506" r="5.0" stroke="rgb(35%, 35%, 35%)" stroke-width="1.0" fill="none"/>
<text x="60.0" y="83.70763161412506" text-anchor="middle" font-family="Verdana" font-size="7.5" fill="rgb(0%, 0%, 0%)" >A</text>
<circle cx="60.0" cy="100.70763161412506" r="5.0" stroke="none" stroke-width="1.0" fill="rgb(94%, 94%, 94%)"/>
<circle cx="60.0" cy="100.70763161412506" r="5.0" stroke="rgb(35%, 35%, 35%)" stroke-width="1.0" fill="none"/>
<text x="60.0" y="103.70763161412506" text-anchor="middle" font-family="Verdana" font-size="7.5" fill="rgb(0%, 0%, 0%)" >C</text>
<circle cx="60.0" cy="120.70763161412506" r="5.0" stroke="none" stroke-width="1.0" fill="rgb(94%, 94%, 94%)"/>
<circle cx="60.0" cy="120.70763161412506" r="5.0" stroke="rgb(35%, 35%, 35%)" stroke-width="1.0" fill="none"/>
<text x="60.0" y="123.70763161412506" text-anchor="middle" font-family="Verdana" font-size="7.5" fill="rgb(0%, 0%, 0%)" >A</text>
<circle cx="60.0" cy="140.70763161412506" r="5.0" stroke="none" stroke-width="1.0" fill="rgb(94%, 94%, 94%)"/>
<circle cx="60.0" cy="140.70763161412506" r="5.0" stroke="rgb(35%, 35%, 35%)" stroke-width="1.0" fill="none"/>
<text x="60.0" y="143.70763161412506" text-anchor="middle" font-family="Verdana" font-size="7.5" fill="rgb(0%, 0%, 0%)" >G</text>
<circle cx="60.0" cy="160.70763161412503" r="5.0" stroke="none" stroke-width="1.0" fill="rgb(94%, 94%, 94%)"/>
<circle cx="60.0" cy="160.70763161412503" r="5.0" stroke="rgb(35%, 35%, 35%)" stroke-width="1.0" fill="none"/>
<text x="60.0" y="163.70763161412503" text-anchor="middle" font-family="Verdana" font-size="7.5" fill="rgb(0%, 0%, 0%)" >G</text>
<circle cx="60.0" cy="180.70763161412503" r="5.0" stroke="none" stroke-width="1.0" fill="rgb(94%, 94%, 94%)"/>
<circle cx="60.0" cy="180.70763161412503" r="5.0" stroke="rgb(35%, 35%, 35%)" stroke-width="1.0" fill="none"/>
<text x="60.0" y="183.70763161412503" text-anchor="middle" font-family="Verdana" font-size="7.5" fill="rgb(0%, 0%, 0%)" >C</text>
<circle cx="60.0" cy="200.70763161412503" r="5.0" stroke="none" stroke-width="1.0" fill="rgb(94%, 94%, 94%)"/>
<circle cx="60.0" cy="200.70763161412503" r="5.0" stroke="rgb(35%, 35%, 35%)" stroke-width="1.0" fill="none"/>
<text x="60.0" y="203.70763161412503" text-anchor="middle" font-family="Verdana" font-size="7.5" fill="rgb(0%, 0%, 0%)" >C</text>
<circle cx="60.0" cy="220.70763161412503" r="5.0" stroke="none" stroke-width="1.0" fill="rgb(94%, 94%, 94%)"/>
<circle cx="60.0" cy="220.70763161412503" r="5.0" stroke="rgb(35%, 35%, 35%)" stroke-width="1.0" fill="none"/>
<text x="60.0" y="223.70763161412503" text-anchor="middle" font-family="Verdana" font-size="7.5" fill="rgb(0%, 0%, 0%)" >A</text>
<circle cx="60.0" cy="240.70763161412503" r="5.0" stroke="none" stroke-width="1.0" fill="rgb(94%, 94%, 94%)"/>
<circle cx="60.0" cy="240.70763161412503" r="5.0" stroke="rgb(35%, 35%, 35%)" stroke-width="1.0" fill="none"/>
<text x="60.0" y="243.70763161412503" text-anchor="middle" font-family="Verdana" font-size="7.5" fill="rgb(0%, 0%, 0%)" >G</text>
<circle cx="60.0" cy="260.70763161412503" r="5.0" stroke="none" stroke-width="1.0" fill="rgb(94%, 94%, 94%)"/>
<circle cx="60.0" cy="260.70763161412503" r="5.0" stroke="rgb(35%, 35%, 35%)" stroke-width="1.0" fill="none"/>
<text x="60.0" y="263.70763161412503" text-anchor="middle" font-family="Verdana" font-size="7.5" fill="rgb(0%, 0%, 0%)" >A</text>
<circle cx="60.0" cy="280.70763161412503" r="5.0" stroke="none" stroke-width="1.0" fill="rgb(94%, 94%, 94%)"/>
<circle cx="60.0" cy="280.70763161412503" r="5.0" stroke="rgb(35%, 35%, 35%)" stroke-width="1.0" fill="none"/>
<text x="60.0" y="283.70763161412503" text-anchor="middle" font-family="Verdana" font-size="7.5" fill="rgb(0%, 0%, 0%)" >T</text>
<line x1="10.0" y1="288.20763161412503" x2="10.0" y2="293.20763161412503" stroke="rgb(25%, 25%, 25%)" stroke-width="1.0" />
<text x="9.999999999999996" y="303.70763161412503" text-anchor="middle" font-family="Verdana" font-size="7.5" fill="rgb(25%, 25%, 25%)" >1</text>
<line x1="20.0" y1="120.70763161412506" x2="15.0" y2="120.70763161412506" stroke="rgb(25%, 25%, 25%)" stroke-width="1.0" />
<text x="7.5" y="123.70763161412506" text-anchor="middle" font-family="Verdana" font-size="7.5" fill="rgb(25%, 25%, 25%)" >10</text>
<line x1="67.5" y1="60.707631614125035" x2="72.5" y2="60.707631614125035" stroke="rgb(25%, 25%, 25%)" stroke-width="1.0" />
<text x="80.0" y="63.707631614125035" text-anchor="middle" font-family="Verdana" font-size="7.5" fill="rgb(25%, 25%, 25%)" >20</text>
<line x1="67.5" y1="260.70763161412503" x2="72.5" y2="260.70763161412503" stroke="rgb(25%, 25%, 25%)" stroke-width="1.0" />
<text x="80.0" y="263.70763161412503" text-anchor="middle" font-family="Verdana" font-size="7.5" fill="rgb(25%, 25%, 25%)" >30</text>
<line x1="60.0" y1="288.20763161412503" x2="60.0" y2="293.20763161412503" stroke="rgb(25%, 25%, 25%)" stroke-width="1.0" />
<text x="60.0" y="303.70763161412503" text-anchor="middle" font-family="Verdana" font-size="7.5" fill="rgb(25%, 25%, 25%)" >31</text>
<text x="36.77436719361955" y="321.907631614125" text-anchor="middle" font-family="Verdana" font-size="18.0" fill="rgb(0%, 0%, 0%)" >5ZE2 (E=-15.34 kcal/mol)</text>
</svg>
